<mxfile host="app.diagrams.net" modified="2023-10-05T17:14:38.854Z" agent="Mozilla/5.0 (Windows NT 10.0; Win64; x64) AppleWebKit/537.36 (KHTML, like Gecko) Chrome/117.0.0.0 Safari/537.36" etag="5aBb3jpq31Yz3EyO_qY1" version="22.0.2" type="google">
  <diagram name="Page-1" id="bBlCPJpEpDweRvq2T72I">
    <mxGraphModel grid="1" page="1" gridSize="10" guides="1" tooltips="1" connect="1" arrows="1" fold="1" pageScale="1" pageWidth="2150" pageHeight="1200" math="0" shadow="0">
      <root>
        <mxCell id="0" />
        <mxCell id="1" parent="0" />
        <mxCell id="RMb5vPwJAWPibP_djfCR-1" value="&amp;lt;&amp;lt;entity&amp;gt;&amp;gt;&lt;br&gt;&lt;div&gt;Algorithm&lt;/div&gt;" style="swimlane;fontStyle=1;align=center;verticalAlign=top;childLayout=stackLayout;horizontal=1;startSize=40;horizontalStack=0;resizeParent=1;resizeParentMax=0;resizeLast=0;collapsible=1;marginBottom=0;whiteSpace=wrap;html=1;fillColor=#e1d5e7;strokeColor=#9673a6;rounded=1;fontFamily=Georgia;strokeWidth=2;" vertex="1" parent="1">
          <mxGeometry x="720" y="40" width="193" height="308" as="geometry" />
        </mxCell>
        <mxCell id="RMb5vPwJAWPibP_djfCR-2" value="- algorithmID&amp;nbsp;" style="text;strokeColor=none;fillColor=none;align=left;verticalAlign=top;spacingLeft=4;spacingRight=4;overflow=hidden;rotatable=0;points=[[0,0.5],[1,0.5]];portConstraint=eastwest;whiteSpace=wrap;html=1;fontFamily=Georgia;fontColor=#000000;strokeWidth=2;" vertex="1" parent="RMb5vPwJAWPibP_djfCR-1">
          <mxGeometry y="40" width="193" height="26" as="geometry" />
        </mxCell>
        <mxCell id="RMb5vPwJAWPibP_djfCR-3" value="- topicID&amp;nbsp;" style="text;strokeColor=none;fillColor=none;align=left;verticalAlign=top;spacingLeft=4;spacingRight=4;overflow=hidden;rotatable=0;points=[[0,0.5],[1,0.5]];portConstraint=eastwest;whiteSpace=wrap;html=1;fontFamily=Georgia;fontColor=#000000;strokeWidth=2;" vertex="1" parent="RMb5vPwJAWPibP_djfCR-1">
          <mxGeometry y="66" width="193" height="26" as="geometry" />
        </mxCell>
        <mxCell id="RMb5vPwJAWPibP_djfCR-4" value="- canvasID" style="text;strokeColor=none;fillColor=none;align=left;verticalAlign=top;spacingLeft=4;spacingRight=4;overflow=hidden;rotatable=0;points=[[0,0.5],[1,0.5]];portConstraint=eastwest;whiteSpace=wrap;html=1;fontFamily=Georgia;fontColor=#000000;strokeWidth=2;" vertex="1" parent="RMb5vPwJAWPibP_djfCR-1">
          <mxGeometry y="92" width="193" height="26" as="geometry" />
        </mxCell>
        <mxCell id="RMb5vPwJAWPibP_djfCR-5" value="- name" style="text;strokeColor=none;fillColor=none;align=left;verticalAlign=top;spacingLeft=4;spacingRight=4;overflow=hidden;rotatable=0;points=[[0,0.5],[1,0.5]];portConstraint=eastwest;whiteSpace=wrap;html=1;fontFamily=Georgia;fontColor=#000000;strokeWidth=2;" vertex="1" parent="RMb5vPwJAWPibP_djfCR-1">
          <mxGeometry y="118" width="193" height="26" as="geometry" />
        </mxCell>
        <mxCell id="RMb5vPwJAWPibP_djfCR-6" value="- logo" style="text;strokeColor=none;fillColor=none;align=left;verticalAlign=top;spacingLeft=4;spacingRight=4;overflow=hidden;rotatable=0;points=[[0,0.5],[1,0.5]];portConstraint=eastwest;whiteSpace=wrap;html=1;fontFamily=Georgia;fontColor=#000000;strokeWidth=2;" vertex="1" parent="RMb5vPwJAWPibP_djfCR-1">
          <mxGeometry y="144" width="193" height="26" as="geometry" />
        </mxCell>
        <mxCell id="RMb5vPwJAWPibP_djfCR-7" value="- solution_generator&amp;nbsp;" style="text;strokeColor=none;fillColor=none;align=left;verticalAlign=top;spacingLeft=4;spacingRight=4;overflow=hidden;rotatable=0;points=[[0,0.5],[1,0.5]];portConstraint=eastwest;whiteSpace=wrap;html=1;fontFamily=Georgia;fontColor=#000000;strokeWidth=2;" vertex="1" parent="RMb5vPwJAWPibP_djfCR-1">
          <mxGeometry y="170" width="193" height="26" as="geometry" />
        </mxCell>
        <mxCell id="RMb5vPwJAWPibP_djfCR-8" value="- tutorial_link" style="text;strokeColor=none;fillColor=none;align=left;verticalAlign=top;spacingLeft=4;spacingRight=4;overflow=hidden;rotatable=0;points=[[0,0.5],[1,0.5]];portConstraint=eastwest;whiteSpace=wrap;html=1;fontFamily=Georgia;fontColor=#000000;strokeWidth=2;" vertex="1" parent="RMb5vPwJAWPibP_djfCR-1">
          <mxGeometry y="196" width="193" height="26" as="geometry" />
        </mxCell>
        <mxCell id="RMb5vPwJAWPibP_djfCR-9" value="" style="line;strokeWidth=2;fillColor=none;align=left;verticalAlign=middle;spacingTop=-1;spacingLeft=3;spacingRight=3;rotatable=0;labelPosition=right;points=[];portConstraint=eastwest;strokeColor=inherit;fontFamily=Georgia;fontColor=#000000;" vertex="1" parent="RMb5vPwJAWPibP_djfCR-1">
          <mxGeometry y="222" width="193" height="8" as="geometry" />
        </mxCell>
        <mxCell id="RMb5vPwJAWPibP_djfCR-10" value="+ getAlgorithmAttributes()" style="text;strokeColor=none;fillColor=none;align=left;verticalAlign=top;spacingLeft=4;spacingRight=4;overflow=hidden;rotatable=0;points=[[0,0.5],[1,0.5]];portConstraint=eastwest;whiteSpace=wrap;html=1;fontFamily=Georgia;fontColor=#000000;strokeWidth=2;" vertex="1" parent="RMb5vPwJAWPibP_djfCR-1">
          <mxGeometry y="230" width="193" height="26" as="geometry" />
        </mxCell>
        <mxCell id="RMb5vPwJAWPibP_djfCR-11" value="+ updateAlgorithm()" style="text;strokeColor=none;fillColor=none;align=left;verticalAlign=top;spacingLeft=4;spacingRight=4;overflow=hidden;rotatable=0;points=[[0,0.5],[1,0.5]];portConstraint=eastwest;whiteSpace=wrap;html=1;fontFamily=Georgia;fontColor=#000000;strokeWidth=2;" vertex="1" parent="RMb5vPwJAWPibP_djfCR-1">
          <mxGeometry y="256" width="193" height="26" as="geometry" />
        </mxCell>
        <mxCell id="RMb5vPwJAWPibP_djfCR-12" value="+ getSolutionGenerator()" style="text;strokeColor=none;fillColor=none;align=left;verticalAlign=top;spacingLeft=4;spacingRight=4;overflow=hidden;rotatable=0;points=[[0,0.5],[1,0.5]];portConstraint=eastwest;whiteSpace=wrap;html=1;fontFamily=Georgia;fontColor=#000000;strokeWidth=2;" vertex="1" parent="RMb5vPwJAWPibP_djfCR-1">
          <mxGeometry y="282" width="193" height="26" as="geometry" />
        </mxCell>
        <mxCell id="RMb5vPwJAWPibP_djfCR-13" value="&amp;lt;&amp;lt;boundary&amp;gt;&amp;gt;&lt;br&gt;&lt;div&gt;AlgoCreatorUI&lt;/div&gt;" style="swimlane;fontStyle=1;align=center;verticalAlign=top;childLayout=stackLayout;horizontal=1;startSize=40;horizontalStack=0;resizeParent=1;resizeParentMax=0;resizeLast=0;collapsible=1;marginBottom=0;whiteSpace=wrap;html=1;fillColor=#ffe6cc;strokeColor=#d79b00;rounded=1;fontFamily=Georgia;fontColor=#000000;strokeWidth=2;" vertex="1" parent="1">
          <mxGeometry x="247" y="40" width="244" height="204" as="geometry" />
        </mxCell>
        <mxCell id="RMb5vPwJAWPibP_djfCR-14" value="- canvas" style="text;strokeColor=none;fillColor=none;align=left;verticalAlign=top;spacingLeft=4;spacingRight=4;overflow=hidden;rotatable=0;points=[[0,0.5],[1,0.5]];portConstraint=eastwest;whiteSpace=wrap;html=1;fontFamily=Georgia;fontColor=#000000;strokeWidth=2;" vertex="1" parent="RMb5vPwJAWPibP_djfCR-13">
          <mxGeometry y="40" width="244" height="26" as="geometry" />
        </mxCell>
        <mxCell id="RMb5vPwJAWPibP_djfCR-15" value="" style="line;strokeWidth=2;fillColor=none;align=left;verticalAlign=middle;spacingTop=-1;spacingLeft=3;spacingRight=3;rotatable=0;labelPosition=right;points=[];portConstraint=eastwest;strokeColor=inherit;fontFamily=Georgia;fontColor=#000000;" vertex="1" parent="RMb5vPwJAWPibP_djfCR-13">
          <mxGeometry y="66" width="244" height="8" as="geometry" />
        </mxCell>
        <mxCell id="RMb5vPwJAWPibP_djfCR-16" value="+ inputAlgoDetails(details)" style="text;strokeColor=none;fillColor=none;align=left;verticalAlign=top;spacingLeft=4;spacingRight=4;overflow=hidden;rotatable=0;points=[[0,0.5],[1,0.5]];portConstraint=eastwest;whiteSpace=wrap;html=1;fontFamily=Georgia;fontColor=#000000;strokeWidth=2;" vertex="1" parent="RMb5vPwJAWPibP_djfCR-13">
          <mxGeometry y="74" width="244" height="26" as="geometry" />
        </mxCell>
        <mxCell id="RMb5vPwJAWPibP_djfCR-17" value="+ inputSolutionGenerator(solGenerator)" style="text;strokeColor=none;fillColor=none;align=left;verticalAlign=top;spacingLeft=4;spacingRight=4;overflow=hidden;rotatable=0;points=[[0,0.5],[1,0.5]];portConstraint=eastwest;whiteSpace=wrap;html=1;fontFamily=Georgia;fontColor=#000000;strokeWidth=2;" vertex="1" parent="RMb5vPwJAWPibP_djfCR-13">
          <mxGeometry y="100" width="244" height="26" as="geometry" />
        </mxCell>
        <mxCell id="RMb5vPwJAWPibP_djfCR-18" value="+ chooseCanvas(canvas)" style="text;strokeColor=none;fillColor=none;align=left;verticalAlign=top;spacingLeft=4;spacingRight=4;overflow=hidden;rotatable=0;points=[[0,0.5],[1,0.5]];portConstraint=eastwest;whiteSpace=wrap;html=1;fontFamily=Georgia;fontColor=#000000;strokeWidth=2;" vertex="1" parent="RMb5vPwJAWPibP_djfCR-13">
          <mxGeometry y="126" width="244" height="26" as="geometry" />
        </mxCell>
        <mxCell id="RMb5vPwJAWPibP_djfCR-19" value="+ inputTutorialLink(link)" style="text;strokeColor=none;fillColor=none;align=left;verticalAlign=top;spacingLeft=4;spacingRight=4;overflow=hidden;rotatable=0;points=[[0,0.5],[1,0.5]];portConstraint=eastwest;whiteSpace=wrap;html=1;fontFamily=Georgia;fontColor=#000000;strokeWidth=2;" vertex="1" parent="RMb5vPwJAWPibP_djfCR-13">
          <mxGeometry y="152" width="244" height="26" as="geometry" />
        </mxCell>
        <mxCell id="RMb5vPwJAWPibP_djfCR-20" value="+ submitAlgoData(data)" style="text;strokeColor=none;fillColor=none;align=left;verticalAlign=top;spacingLeft=4;spacingRight=4;overflow=hidden;rotatable=0;points=[[0,0.5],[1,0.5]];portConstraint=eastwest;whiteSpace=wrap;html=1;fontFamily=Georgia;fontColor=#000000;strokeWidth=2;" vertex="1" parent="RMb5vPwJAWPibP_djfCR-13">
          <mxGeometry y="178" width="244" height="26" as="geometry" />
        </mxCell>
        <mxCell id="RMb5vPwJAWPibP_djfCR-21" value="&amp;lt;&amp;lt;controller&amp;gt;&amp;gt;&lt;br&gt;&lt;div&gt;AlgoCreator&lt;/div&gt;" style="swimlane;fontStyle=1;align=center;verticalAlign=top;childLayout=stackLayout;horizontal=1;startSize=40;horizontalStack=0;resizeParent=1;resizeParentMax=0;resizeLast=0;collapsible=1;marginBottom=0;whiteSpace=wrap;html=1;fillColor=#ffe6cc;strokeColor=#d79b00;rounded=1;fontFamily=Georgia;fontColor=#000000;strokeWidth=2;" vertex="1" parent="1">
          <mxGeometry x="530" y="40" width="160" height="126" as="geometry" />
        </mxCell>
        <mxCell id="RMb5vPwJAWPibP_djfCR-22" value="&lt;br&gt;" style="text;strokeColor=none;fillColor=none;align=left;verticalAlign=top;spacingLeft=4;spacingRight=4;overflow=hidden;rotatable=0;points=[[0,0.5],[1,0.5]];portConstraint=eastwest;whiteSpace=wrap;html=1;fontFamily=Georgia;fontColor=#000000;strokeWidth=2;" vertex="1" parent="RMb5vPwJAWPibP_djfCR-21">
          <mxGeometry y="40" width="160" height="26" as="geometry" />
        </mxCell>
        <mxCell id="RMb5vPwJAWPibP_djfCR-23" value="" style="line;strokeWidth=2;fillColor=none;align=left;verticalAlign=middle;spacingTop=-1;spacingLeft=3;spacingRight=3;rotatable=0;labelPosition=right;points=[];portConstraint=eastwest;strokeColor=inherit;fontFamily=Georgia;fontColor=#000000;" vertex="1" parent="RMb5vPwJAWPibP_djfCR-21">
          <mxGeometry y="66" width="160" height="8" as="geometry" />
        </mxCell>
        <mxCell id="RMb5vPwJAWPibP_djfCR-24" value="+ postAlgorithm(data)" style="text;strokeColor=none;fillColor=none;align=left;verticalAlign=top;spacingLeft=4;spacingRight=4;overflow=hidden;rotatable=0;points=[[0,0.5],[1,0.5]];portConstraint=eastwest;whiteSpace=wrap;html=1;fontFamily=Georgia;fontColor=#000000;strokeWidth=2;" vertex="1" parent="RMb5vPwJAWPibP_djfCR-21">
          <mxGeometry y="74" width="160" height="26" as="geometry" />
        </mxCell>
        <mxCell id="RMb5vPwJAWPibP_djfCR-25" value="+ editAlgorithm(algorithm)" style="text;strokeColor=none;fillColor=none;align=left;verticalAlign=top;spacingLeft=4;spacingRight=4;overflow=hidden;rotatable=0;points=[[0,0.5],[1,0.5]];portConstraint=eastwest;whiteSpace=wrap;html=1;fontFamily=Georgia;fontColor=#000000;strokeWidth=2;" vertex="1" parent="RMb5vPwJAWPibP_djfCR-21">
          <mxGeometry y="100" width="160" height="26" as="geometry" />
        </mxCell>
        <mxCell id="RMb5vPwJAWPibP_djfCR-26" value="&amp;lt;&amp;lt;boundary&amp;gt;&amp;gt;&lt;br&gt;&lt;div&gt;ProblemDesignUI&lt;/div&gt;" style="swimlane;fontStyle=1;align=center;verticalAlign=top;childLayout=stackLayout;horizontal=1;startSize=40;horizontalStack=0;resizeParent=1;resizeParentMax=0;resizeLast=0;collapsible=1;marginBottom=0;whiteSpace=wrap;html=1;fillColor=#fff2cc;strokeColor=#d6b656;rounded=1;fontFamily=Georgia;fontColor=#000000;strokeWidth=2;" vertex="1" parent="1">
          <mxGeometry x="67" y="399" width="259" height="278" as="geometry" />
        </mxCell>
        <mxCell id="RMb5vPwJAWPibP_djfCR-27" value="- canvas" style="text;strokeColor=none;fillColor=none;align=left;verticalAlign=top;spacingLeft=4;spacingRight=4;overflow=hidden;rotatable=0;points=[[0,0.5],[1,0.5]];portConstraint=eastwest;whiteSpace=wrap;html=1;fontFamily=Georgia;fontColor=#000000;strokeWidth=2;" vertex="1" parent="RMb5vPwJAWPibP_djfCR-26">
          <mxGeometry y="40" width="259" height="26" as="geometry" />
        </mxCell>
        <mxCell id="RMb5vPwJAWPibP_djfCR-28" value="" style="line;strokeWidth=2;fillColor=none;align=left;verticalAlign=middle;spacingTop=-1;spacingLeft=3;spacingRight=3;rotatable=0;labelPosition=right;points=[];portConstraint=eastwest;strokeColor=inherit;fontFamily=Georgia;fontColor=#000000;" vertex="1" parent="RMb5vPwJAWPibP_djfCR-26">
          <mxGeometry y="66" width="259" height="8" as="geometry" />
        </mxCell>
        <mxCell id="RMb5vPwJAWPibP_djfCR-29" value="+ selectTopic(topics)" style="text;strokeColor=none;fillColor=none;align=left;verticalAlign=top;spacingLeft=4;spacingRight=4;overflow=hidden;rotatable=0;points=[[0,0.5],[1,0.5]];portConstraint=eastwest;whiteSpace=wrap;html=1;fontFamily=Georgia;fontColor=#000000;strokeWidth=2;" vertex="1" parent="RMb5vPwJAWPibP_djfCR-26">
          <mxGeometry y="74" width="259" height="26" as="geometry" />
        </mxCell>
        <mxCell id="RMb5vPwJAWPibP_djfCR-30" value="+ selectAlgorithm(algorithms, topic)" style="text;strokeColor=none;fillColor=none;align=left;verticalAlign=top;spacingLeft=4;spacingRight=4;overflow=hidden;rotatable=0;points=[[0,0.5],[1,0.5]];portConstraint=eastwest;whiteSpace=wrap;html=1;fontFamily=Georgia;fontColor=#000000;strokeWidth=2;" vertex="1" parent="RMb5vPwJAWPibP_djfCR-26">
          <mxGeometry y="100" width="259" height="26" as="geometry" />
        </mxCell>
        <mxCell id="RMb5vPwJAWPibP_djfCR-31" value="+ inputProblemDetails(details)" style="text;strokeColor=none;fillColor=none;align=left;verticalAlign=top;spacingLeft=4;spacingRight=4;overflow=hidden;rotatable=0;points=[[0,0.5],[1,0.5]];portConstraint=eastwest;whiteSpace=wrap;html=1;fontFamily=Georgia;fontColor=#000000;strokeWidth=2;" vertex="1" parent="RMb5vPwJAWPibP_djfCR-26">
          <mxGeometry y="126" width="259" height="26" as="geometry" />
        </mxCell>
        <mxCell id="RMb5vPwJAWPibP_djfCR-32" value="+ viewProblemSetterInterface()" style="text;strokeColor=none;fillColor=none;align=left;verticalAlign=top;spacingLeft=4;spacingRight=4;overflow=hidden;rotatable=0;points=[[0,0.5],[1,0.5]];portConstraint=eastwest;whiteSpace=wrap;html=1;fontFamily=Georgia;fontColor=#000000;strokeWidth=2;" vertex="1" parent="RMb5vPwJAWPibP_djfCR-26">
          <mxGeometry y="152" width="259" height="22" as="geometry" />
        </mxCell>
        <mxCell id="RMb5vPwJAWPibP_djfCR-33" value="+ addHint(hint)" style="text;strokeColor=none;fillColor=none;align=left;verticalAlign=top;spacingLeft=4;spacingRight=4;overflow=hidden;rotatable=0;points=[[0,0.5],[1,0.5]];portConstraint=eastwest;whiteSpace=wrap;html=1;fontFamily=Georgia;fontColor=#000000;strokeWidth=2;" vertex="1" parent="RMb5vPwJAWPibP_djfCR-26">
          <mxGeometry y="174" width="259" height="26" as="geometry" />
        </mxCell>
        <mxCell id="RMb5vPwJAWPibP_djfCR-34" value="+ addEditorial(editorial)" style="text;strokeColor=none;fillColor=none;align=left;verticalAlign=top;spacingLeft=4;spacingRight=4;overflow=hidden;rotatable=0;points=[[0,0.5],[1,0.5]];portConstraint=eastwest;whiteSpace=wrap;html=1;fontFamily=Georgia;fontColor=#000000;strokeWidth=2;" vertex="1" parent="RMb5vPwJAWPibP_djfCR-26">
          <mxGeometry y="200" width="259" height="26" as="geometry" />
        </mxCell>
        <mxCell id="RMb5vPwJAWPibP_djfCR-35" value="+ inputSolutionChecker(solChecker)" style="text;strokeColor=none;fillColor=none;align=left;verticalAlign=top;spacingLeft=4;spacingRight=4;overflow=hidden;rotatable=0;points=[[0,0.5],[1,0.5]];portConstraint=eastwest;whiteSpace=wrap;html=1;fontFamily=Georgia;fontColor=#000000;strokeWidth=2;" vertex="1" parent="RMb5vPwJAWPibP_djfCR-26">
          <mxGeometry y="226" width="259" height="26" as="geometry" />
        </mxCell>
        <mxCell id="RMb5vPwJAWPibP_djfCR-36" value="+ submitProblem(problem, authorID)" style="text;strokeColor=none;fillColor=none;align=left;verticalAlign=top;spacingLeft=4;spacingRight=4;overflow=hidden;rotatable=0;points=[[0,0.5],[1,0.5]];portConstraint=eastwest;whiteSpace=wrap;html=1;fontFamily=Georgia;fontColor=#000000;strokeWidth=2;" vertex="1" parent="RMb5vPwJAWPibP_djfCR-26">
          <mxGeometry y="252" width="259" height="26" as="geometry" />
        </mxCell>
        <mxCell id="RMb5vPwJAWPibP_djfCR-37" value="&amp;lt;&amp;lt;controller&amp;gt;&amp;gt;&lt;br&gt;&lt;div&gt;ProblemDesign&lt;/div&gt;" style="swimlane;fontStyle=1;align=center;verticalAlign=top;childLayout=stackLayout;horizontal=1;startSize=40;horizontalStack=0;resizeParent=1;resizeParentMax=0;resizeLast=0;collapsible=1;marginBottom=0;whiteSpace=wrap;html=1;rounded=1;fillColor=#fff2cc;strokeColor=#d6b656;fontFamily=Georgia;fontColor=#000000;strokeWidth=2;" vertex="1" parent="1">
          <mxGeometry x="380" y="318" width="217" height="204" as="geometry" />
        </mxCell>
        <mxCell id="RMb5vPwJAWPibP_djfCR-38" value="- problem" style="text;strokeColor=none;fillColor=none;align=left;verticalAlign=top;spacingLeft=4;spacingRight=4;overflow=hidden;rotatable=0;points=[[0,0.5],[1,0.5]];portConstraint=eastwest;whiteSpace=wrap;html=1;fontFamily=Georgia;fontColor=#000000;strokeWidth=2;" vertex="1" parent="RMb5vPwJAWPibP_djfCR-37">
          <mxGeometry y="40" width="217" height="26" as="geometry" />
        </mxCell>
        <mxCell id="RMb5vPwJAWPibP_djfCR-39" value="" style="line;strokeWidth=2;fillColor=none;align=left;verticalAlign=middle;spacingTop=-1;spacingLeft=3;spacingRight=3;rotatable=0;labelPosition=right;points=[];portConstraint=eastwest;strokeColor=inherit;fontFamily=Georgia;fontColor=#000000;" vertex="1" parent="RMb5vPwJAWPibP_djfCR-37">
          <mxGeometry y="66" width="217" height="8" as="geometry" />
        </mxCell>
        <mxCell id="RMb5vPwJAWPibP_djfCR-40" value="+ retrieveTopics()" style="text;strokeColor=none;fillColor=none;align=left;verticalAlign=top;spacingLeft=4;spacingRight=4;overflow=hidden;rotatable=0;points=[[0,0.5],[1,0.5]];portConstraint=eastwest;whiteSpace=wrap;html=1;fontFamily=Georgia;fontColor=#000000;strokeWidth=2;" vertex="1" parent="RMb5vPwJAWPibP_djfCR-37">
          <mxGeometry y="74" width="217" height="26" as="geometry" />
        </mxCell>
        <mxCell id="RMb5vPwJAWPibP_djfCR-41" value="+ retrieveAlgorithms(topic)" style="text;strokeColor=none;fillColor=none;align=left;verticalAlign=top;spacingLeft=4;spacingRight=4;overflow=hidden;rotatable=0;points=[[0,0.5],[1,0.5]];portConstraint=eastwest;whiteSpace=wrap;html=1;fontFamily=Georgia;fontColor=#000000;strokeWidth=2;" vertex="1" parent="RMb5vPwJAWPibP_djfCR-37">
          <mxGeometry y="100" width="217" height="26" as="geometry" />
        </mxCell>
        <mxCell id="RMb5vPwJAWPibP_djfCR-42" value="+ retrieveAlgoData(algoritm)" style="text;strokeColor=none;fillColor=none;align=left;verticalAlign=top;spacingLeft=4;spacingRight=4;overflow=hidden;rotatable=0;points=[[0,0.5],[1,0.5]];portConstraint=eastwest;whiteSpace=wrap;html=1;fontFamily=Georgia;fontColor=#000000;strokeWidth=2;" vertex="1" parent="RMb5vPwJAWPibP_djfCR-37">
          <mxGeometry y="126" width="217" height="26" as="geometry" />
        </mxCell>
        <mxCell id="RMb5vPwJAWPibP_djfCR-43" value="+ retrieveCanvasData(algorithm)" style="text;strokeColor=none;fillColor=none;align=left;verticalAlign=top;spacingLeft=4;spacingRight=4;overflow=hidden;rotatable=0;points=[[0,0.5],[1,0.5]];portConstraint=eastwest;whiteSpace=wrap;html=1;fontFamily=Georgia;fontColor=#000000;strokeWidth=2;" vertex="1" parent="RMb5vPwJAWPibP_djfCR-37">
          <mxGeometry y="152" width="217" height="26" as="geometry" />
        </mxCell>
        <mxCell id="RMb5vPwJAWPibP_djfCR-44" value="+ postProblem(problem,authID)" style="text;strokeColor=none;fillColor=none;align=left;verticalAlign=top;spacingLeft=4;spacingRight=4;overflow=hidden;rotatable=0;points=[[0,0.5],[1,0.5]];portConstraint=eastwest;whiteSpace=wrap;html=1;fontFamily=Georgia;fontColor=#000000;strokeWidth=2;" vertex="1" parent="RMb5vPwJAWPibP_djfCR-37">
          <mxGeometry y="178" width="217" height="26" as="geometry" />
        </mxCell>
        <mxCell id="RMb5vPwJAWPibP_djfCR-45" value="&lt;span style=&quot;font-weight: normal;&quot;&gt;&lt;i&gt;&amp;lt;&amp;lt;boundary&amp;gt;&amp;gt;&lt;br&gt;&lt;/i&gt;&lt;/span&gt;&lt;div&gt;ProblemSolvingUI&lt;/div&gt;" style="swimlane;fontStyle=1;align=center;verticalAlign=top;childLayout=stackLayout;horizontal=1;startSize=40;horizontalStack=0;resizeParent=1;resizeParentMax=0;resizeLast=0;collapsible=1;marginBottom=0;whiteSpace=wrap;html=1;rounded=1;fillColor=#fff2cc;strokeColor=#d6b656;fontFamily=Georgia;fontColor=#000000;strokeWidth=2;" vertex="1" parent="1">
          <mxGeometry x="560" y="610" width="209" height="334" as="geometry" />
        </mxCell>
        <mxCell id="RMb5vPwJAWPibP_djfCR-46" value="- canvas" style="text;strokeColor=none;fillColor=none;align=left;verticalAlign=top;spacingLeft=4;spacingRight=4;overflow=hidden;rotatable=0;points=[[0,0.5],[1,0.5]];portConstraint=eastwest;whiteSpace=wrap;html=1;fontFamily=Georgia;fontColor=#000000;strokeWidth=2;" vertex="1" parent="RMb5vPwJAWPibP_djfCR-45">
          <mxGeometry y="40" width="209" height="26" as="geometry" />
        </mxCell>
        <mxCell id="RMb5vPwJAWPibP_djfCR-47" value="" style="line;strokeWidth=2;fillColor=none;align=left;verticalAlign=middle;spacingTop=-1;spacingLeft=3;spacingRight=3;rotatable=0;labelPosition=right;points=[];portConstraint=eastwest;strokeColor=inherit;fontFamily=Georgia;fontColor=#000000;" vertex="1" parent="RMb5vPwJAWPibP_djfCR-45">
          <mxGeometry y="66" width="209" height="8" as="geometry" />
        </mxCell>
        <mxCell id="RMb5vPwJAWPibP_djfCR-48" value="+ viewProblemDetails(problem)" style="text;strokeColor=none;fillColor=none;align=left;verticalAlign=top;spacingLeft=4;spacingRight=4;overflow=hidden;rotatable=0;points=[[0,0.5],[1,0.5]];portConstraint=eastwest;whiteSpace=wrap;html=1;fontFamily=Georgia;fontColor=#000000;strokeWidth=2;" vertex="1" parent="RMb5vPwJAWPibP_djfCR-45">
          <mxGeometry y="74" width="209" height="26" as="geometry" />
        </mxCell>
        <mxCell id="RMb5vPwJAWPibP_djfCR-49" value="+ viewCanvas(canvas, problem)" style="text;strokeColor=none;fillColor=none;align=left;verticalAlign=top;spacingLeft=4;spacingRight=4;overflow=hidden;rotatable=0;points=[[0,0.5],[1,0.5]];portConstraint=eastwest;whiteSpace=wrap;html=1;fontFamily=Georgia;fontColor=#000000;strokeWidth=2;" vertex="1" parent="RMb5vPwJAWPibP_djfCR-45">
          <mxGeometry y="100" width="209" height="26" as="geometry" />
        </mxCell>
        <mxCell id="RMb5vPwJAWPibP_djfCR-50" value="+ viewHints(hints, problem)" style="text;strokeColor=none;fillColor=none;align=left;verticalAlign=top;spacingLeft=4;spacingRight=4;overflow=hidden;rotatable=0;points=[[0,0.5],[1,0.5]];portConstraint=eastwest;whiteSpace=wrap;html=1;fontFamily=Georgia;fontColor=#000000;strokeWidth=2;" vertex="1" parent="RMb5vPwJAWPibP_djfCR-45">
          <mxGeometry y="126" width="209" height="26" as="geometry" />
        </mxCell>
        <mxCell id="RMb5vPwJAWPibP_djfCR-51" value="+ viewPoints(point)" style="text;strokeColor=none;fillColor=none;align=left;verticalAlign=top;spacingLeft=4;spacingRight=4;overflow=hidden;rotatable=0;points=[[0,0.5],[1,0.5]];portConstraint=eastwest;whiteSpace=wrap;html=1;fontFamily=Georgia;fontColor=#000000;strokeWidth=2;" vertex="1" parent="RMb5vPwJAWPibP_djfCR-45">
          <mxGeometry y="152" width="209" height="26" as="geometry" />
        </mxCell>
        <mxCell id="RMb5vPwJAWPibP_djfCR-52" value="+ viewStats(problemStat)" style="text;strokeColor=none;fillColor=none;align=left;verticalAlign=top;spacingLeft=4;spacingRight=4;overflow=hidden;rotatable=0;points=[[0,0.5],[1,0.5]];portConstraint=eastwest;whiteSpace=wrap;html=1;fontFamily=Georgia;fontColor=#000000;strokeWidth=2;" vertex="1" parent="RMb5vPwJAWPibP_djfCR-45">
          <mxGeometry y="178" width="209" height="26" as="geometry" />
        </mxCell>
        <mxCell id="RMb5vPwJAWPibP_djfCR-53" value="+ viewSubmissions(submissions)" style="text;strokeColor=none;fillColor=none;align=left;verticalAlign=top;spacingLeft=4;spacingRight=4;overflow=hidden;rotatable=0;points=[[0,0.5],[1,0.5]];portConstraint=eastwest;whiteSpace=wrap;html=1;fontFamily=Georgia;fontColor=#000000;strokeWidth=2;" vertex="1" parent="RMb5vPwJAWPibP_djfCR-45">
          <mxGeometry y="204" width="209" height="26" as="geometry" />
        </mxCell>
        <mxCell id="RMb5vPwJAWPibP_djfCR-54" value="+ submitSolution(solution)" style="text;strokeColor=none;fillColor=none;align=left;verticalAlign=top;spacingLeft=4;spacingRight=4;overflow=hidden;rotatable=0;points=[[0,0.5],[1,0.5]];portConstraint=eastwest;whiteSpace=wrap;html=1;fontFamily=Georgia;fontColor=#000000;strokeWidth=2;" vertex="1" parent="RMb5vPwJAWPibP_djfCR-45">
          <mxGeometry y="230" width="209" height="26" as="geometry" />
        </mxCell>
        <mxCell id="RMb5vPwJAWPibP_djfCR-55" value="+ viewVerdict(verdict)" style="text;strokeColor=none;fillColor=none;align=left;verticalAlign=top;spacingLeft=4;spacingRight=4;overflow=hidden;rotatable=0;points=[[0,0.5],[1,0.5]];portConstraint=eastwest;whiteSpace=wrap;html=1;fontFamily=Georgia;fontColor=#000000;strokeWidth=2;" vertex="1" parent="RMb5vPwJAWPibP_djfCR-45">
          <mxGeometry y="256" width="209" height="26" as="geometry" />
        </mxCell>
        <mxCell id="RMb5vPwJAWPibP_djfCR-56" value="+ viewRatingInterface()" style="text;strokeColor=none;fillColor=none;align=left;verticalAlign=top;spacingLeft=4;spacingRight=4;overflow=hidden;rotatable=0;points=[[0,0.5],[1,0.5]];portConstraint=eastwest;whiteSpace=wrap;html=1;fontFamily=Georgia;fontColor=#000000;strokeWidth=2;" vertex="1" parent="RMb5vPwJAWPibP_djfCR-45">
          <mxGeometry y="282" width="209" height="26" as="geometry" />
        </mxCell>
        <mxCell id="RMb5vPwJAWPibP_djfCR-57" value="+ viewEditorial()" style="text;strokeColor=none;fillColor=none;align=left;verticalAlign=top;spacingLeft=4;spacingRight=4;overflow=hidden;rotatable=0;points=[[0,0.5],[1,0.5]];portConstraint=eastwest;whiteSpace=wrap;html=1;fontFamily=Georgia;fontColor=#000000;strokeWidth=2;" vertex="1" parent="RMb5vPwJAWPibP_djfCR-45">
          <mxGeometry y="308" width="209" height="26" as="geometry" />
        </mxCell>
        <mxCell id="RMb5vPwJAWPibP_djfCR-58" value="&lt;i style=&quot;font-weight: normal;&quot;&gt;&amp;lt;&amp;lt;boundary&amp;gt;&amp;gt;&lt;br&gt;&lt;/i&gt;&lt;div&gt;PlaygroundUI&lt;/div&gt;" style="swimlane;fontStyle=1;align=center;verticalAlign=top;childLayout=stackLayout;horizontal=1;startSize=40;horizontalStack=0;resizeParent=1;resizeParentMax=0;resizeLast=0;collapsible=1;marginBottom=0;whiteSpace=wrap;html=1;fillColor=#e1d5e7;strokeColor=#9673a6;rounded=1;fontFamily=Georgia;fontColor=#000000;strokeWidth=2;" vertex="1" parent="1">
          <mxGeometry x="768" y="1250" width="181" height="152" as="geometry" />
        </mxCell>
        <mxCell id="RMb5vPwJAWPibP_djfCR-59" value="- canvas" style="text;strokeColor=none;fillColor=none;align=left;verticalAlign=top;spacingLeft=4;spacingRight=4;overflow=hidden;rotatable=0;points=[[0,0.5],[1,0.5]];portConstraint=eastwest;whiteSpace=wrap;html=1;fontFamily=Georgia;fontColor=#000000;strokeWidth=2;" vertex="1" parent="RMb5vPwJAWPibP_djfCR-58">
          <mxGeometry y="40" width="181" height="26" as="geometry" />
        </mxCell>
        <mxCell id="RMb5vPwJAWPibP_djfCR-60" value="" style="line;strokeWidth=2;fillColor=none;align=left;verticalAlign=middle;spacingTop=-1;spacingLeft=3;spacingRight=3;rotatable=0;labelPosition=right;points=[];portConstraint=eastwest;strokeColor=inherit;fontFamily=Georgia;fontColor=#000000;" vertex="1" parent="RMb5vPwJAWPibP_djfCR-58">
          <mxGeometry y="66" width="181" height="8" as="geometry" />
        </mxCell>
        <mxCell id="RMb5vPwJAWPibP_djfCR-61" value="+ chooseAlgorithm(algorithm)" style="text;strokeColor=none;fillColor=none;align=left;verticalAlign=top;spacingLeft=4;spacingRight=4;overflow=hidden;rotatable=0;points=[[0,0.5],[1,0.5]];portConstraint=eastwest;whiteSpace=wrap;html=1;fontFamily=Georgia;fontColor=#000000;strokeWidth=2;" vertex="1" parent="RMb5vPwJAWPibP_djfCR-58">
          <mxGeometry y="74" width="181" height="26" as="geometry" />
        </mxCell>
        <mxCell id="RMb5vPwJAWPibP_djfCR-62" value="+ viewCanvas(canvas)" style="text;strokeColor=none;fillColor=none;align=left;verticalAlign=top;spacingLeft=4;spacingRight=4;overflow=hidden;rotatable=0;points=[[0,0.5],[1,0.5]];portConstraint=eastwest;whiteSpace=wrap;html=1;fontFamily=Georgia;fontColor=#000000;strokeWidth=2;" vertex="1" parent="RMb5vPwJAWPibP_djfCR-58">
          <mxGeometry y="100" width="181" height="26" as="geometry" />
        </mxCell>
        <mxCell id="RMb5vPwJAWPibP_djfCR-63" value="+ solve(canvas)" style="text;strokeColor=none;fillColor=none;align=left;verticalAlign=top;spacingLeft=4;spacingRight=4;overflow=hidden;rotatable=0;points=[[0,0.5],[1,0.5]];portConstraint=eastwest;whiteSpace=wrap;html=1;fontFamily=Georgia;fontColor=#000000;strokeWidth=2;" vertex="1" parent="RMb5vPwJAWPibP_djfCR-58">
          <mxGeometry y="126" width="181" height="26" as="geometry" />
        </mxCell>
        <mxCell id="RMb5vPwJAWPibP_djfCR-64" value="&lt;span style=&quot;font-weight: normal;&quot;&gt;&lt;i&gt;&amp;lt;&amp;lt;boundary&amp;gt;&amp;gt;&lt;br&gt;&lt;/i&gt;&lt;/span&gt;&lt;div&gt;HomepageUI&lt;/div&gt;" style="swimlane;fontStyle=1;align=center;verticalAlign=top;childLayout=stackLayout;horizontal=1;startSize=40;horizontalStack=0;resizeParent=1;resizeParentMax=0;resizeLast=0;collapsible=1;marginBottom=0;whiteSpace=wrap;html=1;fillColor=#f8cecc;strokeColor=#b85450;rounded=1;fontFamily=Georgia;fontColor=#000000;strokeWidth=2;" vertex="1" parent="1">
          <mxGeometry x="960" y="40" width="226" height="256" as="geometry" />
        </mxCell>
        <mxCell id="RMb5vPwJAWPibP_djfCR-65" value="&lt;br&gt;" style="text;strokeColor=none;fillColor=none;align=left;verticalAlign=top;spacingLeft=4;spacingRight=4;overflow=hidden;rotatable=0;points=[[0,0.5],[1,0.5]];portConstraint=eastwest;whiteSpace=wrap;html=1;fontFamily=Georgia;fontColor=#000000;strokeWidth=2;" vertex="1" parent="RMb5vPwJAWPibP_djfCR-64">
          <mxGeometry y="40" width="226" height="26" as="geometry" />
        </mxCell>
        <mxCell id="RMb5vPwJAWPibP_djfCR-66" value="" style="line;strokeWidth=2;fillColor=none;align=left;verticalAlign=middle;spacingTop=-1;spacingLeft=3;spacingRight=3;rotatable=0;labelPosition=right;points=[];portConstraint=eastwest;strokeColor=inherit;fontFamily=Georgia;fontColor=#000000;" vertex="1" parent="RMb5vPwJAWPibP_djfCR-64">
          <mxGeometry y="66" width="226" height="8" as="geometry" />
        </mxCell>
        <mxCell id="RMb5vPwJAWPibP_djfCR-67" value="+ viewTopics(topics)" style="text;strokeColor=none;fillColor=none;align=left;verticalAlign=top;spacingLeft=4;spacingRight=4;overflow=hidden;rotatable=0;points=[[0,0.5],[1,0.5]];portConstraint=eastwest;whiteSpace=wrap;html=1;fontFamily=Georgia;fontColor=#000000;strokeWidth=2;" vertex="1" parent="RMb5vPwJAWPibP_djfCR-64">
          <mxGeometry y="74" width="226" height="26" as="geometry" />
        </mxCell>
        <mxCell id="RMb5vPwJAWPibP_djfCR-68" value="+ viewAlgorithms(topic, algorithms)" style="text;strokeColor=none;fillColor=none;align=left;verticalAlign=top;spacingLeft=4;spacingRight=4;overflow=hidden;rotatable=0;points=[[0,0.5],[1,0.5]];portConstraint=eastwest;whiteSpace=wrap;html=1;fontFamily=Georgia;fontColor=#000000;strokeWidth=2;" vertex="1" parent="RMb5vPwJAWPibP_djfCR-64">
          <mxGeometry y="100" width="226" height="26" as="geometry" />
        </mxCell>
        <mxCell id="RMb5vPwJAWPibP_djfCR-69" value="+ viewProblems(algorithm, problems)" style="text;strokeColor=none;fillColor=none;align=left;verticalAlign=top;spacingLeft=4;spacingRight=4;overflow=hidden;rotatable=0;points=[[0,0.5],[1,0.5]];portConstraint=eastwest;whiteSpace=wrap;html=1;fontFamily=Georgia;fontColor=#000000;strokeWidth=2;" vertex="1" parent="RMb5vPwJAWPibP_djfCR-64">
          <mxGeometry y="126" width="226" height="26" as="geometry" />
        </mxCell>
        <mxCell id="RMb5vPwJAWPibP_djfCR-70" value="+ viewUnsolvedProblems(problems)" style="text;strokeColor=none;fillColor=none;align=left;verticalAlign=top;spacingLeft=4;spacingRight=4;overflow=hidden;rotatable=0;points=[[0,0.5],[1,0.5]];portConstraint=eastwest;whiteSpace=wrap;html=1;fontFamily=Georgia;fontColor=#000000;strokeWidth=2;" vertex="1" parent="RMb5vPwJAWPibP_djfCR-64">
          <mxGeometry y="152" width="226" height="26" as="geometry" />
        </mxCell>
        <mxCell id="RMb5vPwJAWPibP_djfCR-71" value="+ viewRecommendedProblem(problem)" style="text;strokeColor=none;fillColor=none;align=left;verticalAlign=top;spacingLeft=4;spacingRight=4;overflow=hidden;rotatable=0;points=[[0,0.5],[1,0.5]];portConstraint=eastwest;whiteSpace=wrap;html=1;fontFamily=Georgia;fontColor=#000000;strokeWidth=2;" vertex="1" parent="RMb5vPwJAWPibP_djfCR-64">
          <mxGeometry y="178" width="226" height="26" as="geometry" />
        </mxCell>
        <mxCell id="RMb5vPwJAWPibP_djfCR-72" value="+ viewProblem(problem)" style="text;strokeColor=none;fillColor=none;align=left;verticalAlign=top;spacingLeft=4;spacingRight=4;overflow=hidden;rotatable=0;points=[[0,0.5],[1,0.5]];portConstraint=eastwest;whiteSpace=wrap;html=1;fontFamily=Georgia;fontColor=#000000;strokeWidth=2;" vertex="1" parent="RMb5vPwJAWPibP_djfCR-64">
          <mxGeometry y="204" width="226" height="26" as="geometry" />
        </mxCell>
        <mxCell id="RMb5vPwJAWPibP_djfCR-73" value="+ viewUserMiniStats(stat)" style="text;strokeColor=none;fillColor=none;align=left;verticalAlign=top;spacingLeft=4;spacingRight=4;overflow=hidden;rotatable=0;points=[[0,0.5],[1,0.5]];portConstraint=eastwest;whiteSpace=wrap;html=1;fontFamily=Georgia;fontColor=#000000;strokeWidth=2;" vertex="1" parent="RMb5vPwJAWPibP_djfCR-64">
          <mxGeometry y="230" width="226" height="26" as="geometry" />
        </mxCell>
        <mxCell id="RMb5vPwJAWPibP_djfCR-74" value="&lt;span style=&quot;font-weight: normal;&quot;&gt;&lt;i&gt;&amp;lt;&amp;lt;controller&amp;gt;&amp;gt;&lt;br style=&quot;font-size: 13px;&quot;&gt;&lt;/i&gt;&lt;/span&gt;&lt;div style=&quot;font-size: 13px;&quot;&gt;HomePage&lt;/div&gt;" style="swimlane;fontStyle=1;align=center;verticalAlign=top;childLayout=stackLayout;horizontal=1;startSize=40;horizontalStack=0;resizeParent=1;resizeParentMax=0;resizeLast=0;collapsible=1;marginBottom=0;whiteSpace=wrap;html=1;fillColor=#f8cecc;strokeColor=#b85450;rounded=1;fontFamily=Georgia;fontColor=#000000;strokeWidth=2;fontSize=13;arcSize=18;" vertex="1" parent="1">
          <mxGeometry x="1250" y="40" width="238" height="256" as="geometry" />
        </mxCell>
        <mxCell id="RMb5vPwJAWPibP_djfCR-75" value="&lt;br&gt;" style="text;strokeColor=none;fillColor=none;align=left;verticalAlign=top;spacingLeft=4;spacingRight=4;overflow=hidden;rotatable=0;points=[[0,0.5],[1,0.5]];portConstraint=eastwest;whiteSpace=wrap;html=1;fontFamily=Georgia;fontColor=#000000;strokeWidth=2;" vertex="1" parent="RMb5vPwJAWPibP_djfCR-74">
          <mxGeometry y="40" width="238" height="26" as="geometry" />
        </mxCell>
        <mxCell id="RMb5vPwJAWPibP_djfCR-76" value="" style="line;strokeWidth=2;fillColor=none;align=left;verticalAlign=middle;spacingTop=-1;spacingLeft=3;spacingRight=3;rotatable=0;labelPosition=right;points=[];portConstraint=eastwest;strokeColor=inherit;fontFamily=Georgia;fontColor=#000000;" vertex="1" parent="RMb5vPwJAWPibP_djfCR-74">
          <mxGeometry y="66" width="238" height="8" as="geometry" />
        </mxCell>
        <mxCell id="RMb5vPwJAWPibP_djfCR-77" value="+ retrieveTopics()" style="text;strokeColor=none;fillColor=none;align=left;verticalAlign=top;spacingLeft=4;spacingRight=4;overflow=hidden;rotatable=0;points=[[0,0.5],[1,0.5]];portConstraint=eastwest;whiteSpace=wrap;html=1;fontFamily=Georgia;fontColor=#000000;strokeWidth=2;" vertex="1" parent="RMb5vPwJAWPibP_djfCR-74">
          <mxGeometry y="74" width="238" height="26" as="geometry" />
        </mxCell>
        <mxCell id="RMb5vPwJAWPibP_djfCR-78" value="+ retriveAlgorithms(topic)" style="text;strokeColor=none;fillColor=none;align=left;verticalAlign=top;spacingLeft=4;spacingRight=4;overflow=hidden;rotatable=0;points=[[0,0.5],[1,0.5]];portConstraint=eastwest;whiteSpace=wrap;html=1;fontFamily=Georgia;fontColor=#000000;strokeWidth=2;" vertex="1" parent="RMb5vPwJAWPibP_djfCR-74">
          <mxGeometry y="100" width="238" height="26" as="geometry" />
        </mxCell>
        <mxCell id="RMb5vPwJAWPibP_djfCR-79" value="+ retriveProblems(algorithm)" style="text;strokeColor=none;fillColor=none;align=left;verticalAlign=top;spacingLeft=4;spacingRight=4;overflow=hidden;rotatable=0;points=[[0,0.5],[1,0.5]];portConstraint=eastwest;whiteSpace=wrap;html=1;fontFamily=Georgia;fontColor=#000000;strokeWidth=2;" vertex="1" parent="RMb5vPwJAWPibP_djfCR-74">
          <mxGeometry y="126" width="238" height="26" as="geometry" />
        </mxCell>
        <mxCell id="RMb5vPwJAWPibP_djfCR-80" value="+ retriveUnsolvedProblems()" style="text;strokeColor=none;fillColor=none;align=left;verticalAlign=top;spacingLeft=4;spacingRight=4;overflow=hidden;rotatable=0;points=[[0,0.5],[1,0.5]];portConstraint=eastwest;whiteSpace=wrap;html=1;fontFamily=Georgia;fontColor=#000000;strokeWidth=2;" vertex="1" parent="RMb5vPwJAWPibP_djfCR-74">
          <mxGeometry y="152" width="238" height="26" as="geometry" />
        </mxCell>
        <mxCell id="RMb5vPwJAWPibP_djfCR-81" value="+ generateRecommendedProblem()" style="text;strokeColor=none;fillColor=none;align=left;verticalAlign=top;spacingLeft=4;spacingRight=4;overflow=hidden;rotatable=0;points=[[0,0.5],[1,0.5]];portConstraint=eastwest;whiteSpace=wrap;html=1;fontFamily=Georgia;fontColor=#000000;strokeWidth=2;" vertex="1" parent="RMb5vPwJAWPibP_djfCR-74">
          <mxGeometry y="178" width="238" height="26" as="geometry" />
        </mxCell>
        <mxCell id="RMb5vPwJAWPibP_djfCR-82" value="&lt;span style=&quot;color: rgb(0, 0, 0); font-family: Georgia; font-size: 12px; font-style: normal; font-variant-ligatures: normal; font-variant-caps: normal; font-weight: 400; letter-spacing: normal; orphans: 2; text-align: left; text-indent: 0px; text-transform: none; widows: 2; word-spacing: 0px; -webkit-text-stroke-width: 0px; background-color: rgb(251, 251, 251); text-decoration-thickness: initial; text-decoration-style: initial; text-decoration-color: initial; float: none; display: inline !important;&quot;&gt;+ renderProblemPage(url)&lt;/span&gt;&lt;br&gt;" style="text;strokeColor=none;fillColor=none;align=left;verticalAlign=top;spacingLeft=4;spacingRight=4;overflow=hidden;rotatable=0;points=[[0,0.5],[1,0.5]];portConstraint=eastwest;whiteSpace=wrap;html=1;fontFamily=Georgia;fontColor=#000000;strokeWidth=2;" vertex="1" parent="RMb5vPwJAWPibP_djfCR-74">
          <mxGeometry y="204" width="238" height="26" as="geometry" />
        </mxCell>
        <mxCell id="RMb5vPwJAWPibP_djfCR-83" value="+ retriveUserMiniStats()" style="text;strokeColor=none;fillColor=none;align=left;verticalAlign=top;spacingLeft=4;spacingRight=4;overflow=hidden;rotatable=0;points=[[0,0.5],[1,0.5]];portConstraint=eastwest;whiteSpace=wrap;html=1;fontFamily=Georgia;fontColor=#000000;strokeWidth=2;" vertex="1" parent="RMb5vPwJAWPibP_djfCR-74">
          <mxGeometry y="230" width="238" height="26" as="geometry" />
        </mxCell>
        <mxCell id="RMb5vPwJAWPibP_djfCR-84" value="&lt;span style=&quot;font-weight: normal;&quot;&gt;&lt;i&gt;&amp;lt;&amp;lt;entity&amp;gt;&amp;gt;&lt;br&gt;&lt;/i&gt;&lt;/span&gt;&lt;div&gt;Submission&lt;/div&gt;" style="swimlane;fontStyle=1;align=center;verticalAlign=top;childLayout=stackLayout;horizontal=1;startSize=40;horizontalStack=0;resizeParent=1;resizeParentMax=0;resizeLast=0;collapsible=1;marginBottom=0;whiteSpace=wrap;html=1;fillColor=#f8cecc;strokeColor=#b85450;rounded=1;fontFamily=Georgia;strokeWidth=2;" vertex="1" parent="1">
          <mxGeometry x="1462" y="602" width="190" height="438" as="geometry" />
        </mxCell>
        <mxCell id="RMb5vPwJAWPibP_djfCR-85" value="- submissionID" style="text;strokeColor=none;fillColor=none;align=left;verticalAlign=top;spacingLeft=4;spacingRight=4;overflow=hidden;rotatable=0;points=[[0,0.5],[1,0.5]];portConstraint=eastwest;whiteSpace=wrap;html=1;fontFamily=Georgia;fontColor=#000000;strokeWidth=2;" vertex="1" parent="RMb5vPwJAWPibP_djfCR-84">
          <mxGeometry y="40" width="190" height="26" as="geometry" />
        </mxCell>
        <mxCell id="RMb5vPwJAWPibP_djfCR-86" value="- userID" style="text;strokeColor=none;fillColor=none;align=left;verticalAlign=top;spacingLeft=4;spacingRight=4;overflow=hidden;rotatable=0;points=[[0,0.5],[1,0.5]];portConstraint=eastwest;whiteSpace=wrap;html=1;fontFamily=Georgia;fontColor=#000000;strokeWidth=2;" vertex="1" parent="RMb5vPwJAWPibP_djfCR-84">
          <mxGeometry y="66" width="190" height="26" as="geometry" />
        </mxCell>
        <mxCell id="RMb5vPwJAWPibP_djfCR-87" value="- problemID" style="text;strokeColor=none;fillColor=none;align=left;verticalAlign=top;spacingLeft=4;spacingRight=4;overflow=hidden;rotatable=0;points=[[0,0.5],[1,0.5]];portConstraint=eastwest;whiteSpace=wrap;html=1;fontFamily=Georgia;fontColor=#000000;strokeWidth=2;" vertex="1" parent="RMb5vPwJAWPibP_djfCR-84">
          <mxGeometry y="92" width="190" height="26" as="geometry" />
        </mxCell>
        <mxCell id="RMb5vPwJAWPibP_djfCR-88" value="- submissionJSON" style="text;strokeColor=none;fillColor=none;align=left;verticalAlign=top;spacingLeft=4;spacingRight=4;overflow=hidden;rotatable=0;points=[[0,0.5],[1,0.5]];portConstraint=eastwest;whiteSpace=wrap;html=1;fontFamily=Georgia;fontColor=#000000;strokeWidth=2;" vertex="1" parent="RMb5vPwJAWPibP_djfCR-84">
          <mxGeometry y="118" width="190" height="26" as="geometry" />
        </mxCell>
        <mxCell id="RMb5vPwJAWPibP_djfCR-89" value="- timestamp" style="text;strokeColor=none;fillColor=none;align=left;verticalAlign=top;spacingLeft=4;spacingRight=4;overflow=hidden;rotatable=0;points=[[0,0.5],[1,0.5]];portConstraint=eastwest;whiteSpace=wrap;html=1;fontFamily=Georgia;fontColor=#000000;strokeWidth=2;" vertex="1" parent="RMb5vPwJAWPibP_djfCR-84">
          <mxGeometry y="144" width="190" height="26" as="geometry" />
        </mxCell>
        <mxCell id="RMb5vPwJAWPibP_djfCR-90" value="- verdict" style="text;strokeColor=none;fillColor=none;align=left;verticalAlign=top;spacingLeft=4;spacingRight=4;overflow=hidden;rotatable=0;points=[[0,0.5],[1,0.5]];portConstraint=eastwest;whiteSpace=wrap;html=1;fontFamily=Georgia;fontColor=#000000;strokeWidth=2;" vertex="1" parent="RMb5vPwJAWPibP_djfCR-84">
          <mxGeometry y="170" width="190" height="26" as="geometry" />
        </mxCell>
        <mxCell id="RMb5vPwJAWPibP_djfCR-91" value="" style="line;strokeWidth=2;fillColor=none;align=left;verticalAlign=middle;spacingTop=-1;spacingLeft=3;spacingRight=3;rotatable=0;labelPosition=right;points=[];portConstraint=eastwest;strokeColor=inherit;fontFamily=Georgia;fontColor=#000000;" vertex="1" parent="RMb5vPwJAWPibP_djfCR-84">
          <mxGeometry y="196" width="190" height="8" as="geometry" />
        </mxCell>
        <mxCell id="RMb5vPwJAWPibP_djfCR-92" value="+ getSubmissionAttributes()" style="text;strokeColor=none;fillColor=none;align=left;verticalAlign=top;spacingLeft=4;spacingRight=4;overflow=hidden;rotatable=0;points=[[0,0.5],[1,0.5]];portConstraint=eastwest;whiteSpace=wrap;html=1;fontFamily=Georgia;fontColor=#000000;strokeWidth=2;" vertex="1" parent="RMb5vPwJAWPibP_djfCR-84">
          <mxGeometry y="204" width="190" height="26" as="geometry" />
        </mxCell>
        <mxCell id="RMb5vPwJAWPibP_djfCR-93" value="+ getSubmissionStat()" style="text;strokeColor=none;fillColor=none;align=left;verticalAlign=top;spacingLeft=4;spacingRight=4;overflow=hidden;rotatable=0;points=[[0,0.5],[1,0.5]];portConstraint=eastwest;whiteSpace=wrap;html=1;fontFamily=Georgia;fontColor=#000000;strokeWidth=2;" vertex="1" parent="RMb5vPwJAWPibP_djfCR-84">
          <mxGeometry y="230" width="190" height="26" as="geometry" />
        </mxCell>
        <mxCell id="RMb5vPwJAWPibP_djfCR-94" value="+ getSubmissionJSON()" style="text;strokeColor=none;fillColor=none;align=left;verticalAlign=top;spacingLeft=4;spacingRight=4;overflow=hidden;rotatable=0;points=[[0,0.5],[1,0.5]];portConstraint=eastwest;whiteSpace=wrap;html=1;fontFamily=Georgia;fontColor=#000000;strokeWidth=2;" vertex="1" parent="RMb5vPwJAWPibP_djfCR-84">
          <mxGeometry y="256" width="190" height="26" as="geometry" />
        </mxCell>
        <mxCell id="RMb5vPwJAWPibP_djfCR-95" value="+ getTimeStamp()" style="text;strokeColor=none;fillColor=none;align=left;verticalAlign=top;spacingLeft=4;spacingRight=4;overflow=hidden;rotatable=0;points=[[0,0.5],[1,0.5]];portConstraint=eastwest;whiteSpace=wrap;html=1;fontFamily=Georgia;fontColor=#000000;strokeWidth=2;" vertex="1" parent="RMb5vPwJAWPibP_djfCR-84">
          <mxGeometry y="282" width="190" height="26" as="geometry" />
        </mxCell>
        <mxCell id="RMb5vPwJAWPibP_djfCR-96" value="+ getVerdict()" style="text;strokeColor=none;fillColor=none;align=left;verticalAlign=top;spacingLeft=4;spacingRight=4;overflow=hidden;rotatable=0;points=[[0,0.5],[1,0.5]];portConstraint=eastwest;whiteSpace=wrap;html=1;fontFamily=Georgia;fontColor=#000000;strokeWidth=2;" vertex="1" parent="RMb5vPwJAWPibP_djfCR-84">
          <mxGeometry y="308" width="190" height="26" as="geometry" />
        </mxCell>
        <mxCell id="RMb5vPwJAWPibP_djfCR-97" value="+ getUserRating()" style="text;strokeColor=none;fillColor=none;align=left;verticalAlign=top;spacingLeft=4;spacingRight=4;overflow=hidden;rotatable=0;points=[[0,0.5],[1,0.5]];portConstraint=eastwest;whiteSpace=wrap;html=1;fontFamily=Georgia;fontColor=#000000;strokeWidth=2;" vertex="1" parent="RMb5vPwJAWPibP_djfCR-84">
          <mxGeometry y="334" width="190" height="26" as="geometry" />
        </mxCell>
        <mxCell id="RMb5vPwJAWPibP_djfCR-98" value="+ getUserStats()" style="text;strokeColor=none;fillColor=none;align=left;verticalAlign=top;spacingLeft=4;spacingRight=4;overflow=hidden;rotatable=0;points=[[0,0.5],[1,0.5]];portConstraint=eastwest;whiteSpace=wrap;html=1;fontFamily=Georgia;fontColor=#000000;strokeWidth=2;" vertex="1" parent="RMb5vPwJAWPibP_djfCR-84">
          <mxGeometry y="360" width="190" height="26" as="geometry" />
        </mxCell>
        <mxCell id="RMb5vPwJAWPibP_djfCR-99" value="+getUserMiniStats()" style="text;strokeColor=none;fillColor=none;align=left;verticalAlign=top;spacingLeft=4;spacingRight=4;overflow=hidden;rotatable=0;points=[[0,0.5],[1,0.5]];portConstraint=eastwest;whiteSpace=wrap;html=1;fontFamily=Georgia;fontColor=#000000;strokeWidth=2;" vertex="1" parent="RMb5vPwJAWPibP_djfCR-84">
          <mxGeometry y="386" width="190" height="26" as="geometry" />
        </mxCell>
        <mxCell id="RMb5vPwJAWPibP_djfCR-100" value="+ generateUserHeatMap()" style="text;strokeColor=none;fillColor=none;align=left;verticalAlign=top;spacingLeft=4;spacingRight=4;overflow=hidden;rotatable=0;points=[[0,0.5],[1,0.5]];portConstraint=eastwest;whiteSpace=wrap;html=1;fontFamily=Georgia;fontColor=#000000;strokeWidth=2;" vertex="1" parent="RMb5vPwJAWPibP_djfCR-84">
          <mxGeometry y="412" width="190" height="26" as="geometry" />
        </mxCell>
        <mxCell id="RMb5vPwJAWPibP_djfCR-101" value="&lt;span style=&quot;font-weight: normal;&quot;&gt;&lt;i&gt;&amp;lt;&amp;lt;controller&amp;gt;&amp;gt;&lt;br&gt;&lt;/i&gt;&lt;/span&gt;&lt;div&gt;ProblemSolving&lt;/div&gt;" style="swimlane;fontStyle=1;align=center;verticalAlign=top;childLayout=stackLayout;horizontal=1;startSize=40;horizontalStack=0;resizeParent=1;resizeParentMax=0;resizeLast=0;collapsible=1;marginBottom=0;whiteSpace=wrap;html=1;fillColor=#fff2cc;strokeColor=#d6b656;rounded=1;fontFamily=Georgia;fontColor=#000000;strokeWidth=2;" vertex="1" parent="1">
          <mxGeometry x="824.5" y="610" width="213.5" height="334" as="geometry" />
        </mxCell>
        <mxCell id="RMb5vPwJAWPibP_djfCR-102" value="- canvas" style="text;strokeColor=none;fillColor=none;align=left;verticalAlign=top;spacingLeft=4;spacingRight=4;overflow=hidden;rotatable=0;points=[[0,0.5],[1,0.5]];portConstraint=eastwest;whiteSpace=wrap;html=1;fontFamily=Georgia;fontColor=#000000;strokeWidth=2;" vertex="1" parent="RMb5vPwJAWPibP_djfCR-101">
          <mxGeometry y="40" width="213.5" height="26" as="geometry" />
        </mxCell>
        <mxCell id="RMb5vPwJAWPibP_djfCR-103" value="" style="line;strokeWidth=2;fillColor=none;align=left;verticalAlign=middle;spacingTop=-1;spacingLeft=3;spacingRight=3;rotatable=0;labelPosition=right;points=[];portConstraint=eastwest;strokeColor=inherit;fontFamily=Georgia;fontColor=#000000;" vertex="1" parent="RMb5vPwJAWPibP_djfCR-101">
          <mxGeometry y="66" width="213.5" height="8" as="geometry" />
        </mxCell>
        <mxCell id="RMb5vPwJAWPibP_djfCR-104" value="+ retrieveProblemDetails()" style="text;strokeColor=none;fillColor=none;align=left;verticalAlign=top;spacingLeft=4;spacingRight=4;overflow=hidden;rotatable=0;points=[[0,0.5],[1,0.5]];portConstraint=eastwest;whiteSpace=wrap;html=1;fontFamily=Georgia;fontColor=#000000;strokeWidth=2;" vertex="1" parent="RMb5vPwJAWPibP_djfCR-101">
          <mxGeometry y="74" width="213.5" height="26" as="geometry" />
        </mxCell>
        <mxCell id="RMb5vPwJAWPibP_djfCR-105" value="+ retriveCanvasData(problem)" style="text;strokeColor=none;fillColor=none;align=left;verticalAlign=top;spacingLeft=4;spacingRight=4;overflow=hidden;rotatable=0;points=[[0,0.5],[1,0.5]];portConstraint=eastwest;whiteSpace=wrap;html=1;fontFamily=Georgia;fontColor=#000000;strokeWidth=2;" vertex="1" parent="RMb5vPwJAWPibP_djfCR-101">
          <mxGeometry y="100" width="213.5" height="26" as="geometry" />
        </mxCell>
        <mxCell id="RMb5vPwJAWPibP_djfCR-106" value="+ retrieveHints(problem)" style="text;strokeColor=none;fillColor=none;align=left;verticalAlign=top;spacingLeft=4;spacingRight=4;overflow=hidden;rotatable=0;points=[[0,0.5],[1,0.5]];portConstraint=eastwest;whiteSpace=wrap;html=1;fontFamily=Georgia;fontColor=#000000;strokeWidth=2;" vertex="1" parent="RMb5vPwJAWPibP_djfCR-101">
          <mxGeometry y="126" width="213.5" height="26" as="geometry" />
        </mxCell>
        <mxCell id="RMb5vPwJAWPibP_djfCR-107" value="+ retrievePoints()" style="text;strokeColor=none;fillColor=none;align=left;verticalAlign=top;spacingLeft=4;spacingRight=4;overflow=hidden;rotatable=0;points=[[0,0.5],[1,0.5]];portConstraint=eastwest;whiteSpace=wrap;html=1;fontFamily=Georgia;fontColor=#000000;strokeWidth=2;" vertex="1" parent="RMb5vPwJAWPibP_djfCR-101">
          <mxGeometry y="152" width="213.5" height="26" as="geometry" />
        </mxCell>
        <mxCell id="RMb5vPwJAWPibP_djfCR-108" value="+ retrieveStats()" style="text;strokeColor=none;fillColor=none;align=left;verticalAlign=top;spacingLeft=4;spacingRight=4;overflow=hidden;rotatable=0;points=[[0,0.5],[1,0.5]];portConstraint=eastwest;whiteSpace=wrap;html=1;fontFamily=Georgia;fontColor=#000000;strokeWidth=2;" vertex="1" parent="RMb5vPwJAWPibP_djfCR-101">
          <mxGeometry y="178" width="213.5" height="26" as="geometry" />
        </mxCell>
        <mxCell id="RMb5vPwJAWPibP_djfCR-109" value="+ retrieveSubmissions(problem)" style="text;strokeColor=none;fillColor=none;align=left;verticalAlign=top;spacingLeft=4;spacingRight=4;overflow=hidden;rotatable=0;points=[[0,0.5],[1,0.5]];portConstraint=eastwest;whiteSpace=wrap;html=1;fontFamily=Georgia;fontColor=#000000;strokeWidth=2;" vertex="1" parent="RMb5vPwJAWPibP_djfCR-101">
          <mxGeometry y="204" width="213.5" height="26" as="geometry" />
        </mxCell>
        <mxCell id="RMb5vPwJAWPibP_djfCR-110" value="+ insertSolution(solution)" style="text;strokeColor=none;fillColor=none;align=left;verticalAlign=top;spacingLeft=4;spacingRight=4;overflow=hidden;rotatable=0;points=[[0,0.5],[1,0.5]];portConstraint=eastwest;whiteSpace=wrap;html=1;fontFamily=Georgia;fontColor=#000000;strokeWidth=2;" vertex="1" parent="RMb5vPwJAWPibP_djfCR-101">
          <mxGeometry y="230" width="213.5" height="26" as="geometry" />
        </mxCell>
        <mxCell id="RMb5vPwJAWPibP_djfCR-111" value="+ evaluateSolution(solution)" style="text;strokeColor=none;fillColor=none;align=left;verticalAlign=top;spacingLeft=4;spacingRight=4;overflow=hidden;rotatable=0;points=[[0,0.5],[1,0.5]];portConstraint=eastwest;whiteSpace=wrap;html=1;fontFamily=Georgia;fontColor=#000000;strokeWidth=2;" vertex="1" parent="RMb5vPwJAWPibP_djfCR-101">
          <mxGeometry y="256" width="213.5" height="26" as="geometry" />
        </mxCell>
        <mxCell id="RMb5vPwJAWPibP_djfCR-112" value="+ insertRating(rating)" style="text;strokeColor=none;fillColor=none;align=left;verticalAlign=top;spacingLeft=4;spacingRight=4;overflow=hidden;rotatable=0;points=[[0,0.5],[1,0.5]];portConstraint=eastwest;whiteSpace=wrap;html=1;fontFamily=Georgia;fontColor=#000000;strokeWidth=2;" vertex="1" parent="RMb5vPwJAWPibP_djfCR-101">
          <mxGeometry y="282" width="213.5" height="26" as="geometry" />
        </mxCell>
        <mxCell id="RMb5vPwJAWPibP_djfCR-113" value="+ renderEditorialPage(url)" style="text;strokeColor=none;fillColor=none;align=left;verticalAlign=top;spacingLeft=4;spacingRight=4;overflow=hidden;rotatable=0;points=[[0,0.5],[1,0.5]];portConstraint=eastwest;whiteSpace=wrap;html=1;fontFamily=Georgia;fontColor=#000000;strokeWidth=2;" vertex="1" parent="RMb5vPwJAWPibP_djfCR-101">
          <mxGeometry y="308" width="213.5" height="26" as="geometry" />
        </mxCell>
        <mxCell id="RMb5vPwJAWPibP_djfCR-114" value="&lt;span style=&quot;font-weight: normal;&quot;&gt;&lt;i&gt;&amp;lt;&amp;lt;entity&amp;gt;&amp;gt;&lt;br&gt;&lt;/i&gt;&lt;/span&gt;&lt;div&gt;Problem&lt;/div&gt;" style="swimlane;fontStyle=1;align=center;verticalAlign=top;childLayout=stackLayout;horizontal=1;startSize=40;horizontalStack=0;resizeParent=1;resizeParentMax=0;resizeLast=0;collapsible=1;marginBottom=0;whiteSpace=wrap;html=1;rounded=1;fillColor=#fff2cc;strokeColor=#d6b656;fontFamily=Georgia;fontColor=#000000;strokeWidth=2;" vertex="1" parent="1">
          <mxGeometry x="1140" y="610" width="170" height="490" as="geometry" />
        </mxCell>
        <mxCell id="RMb5vPwJAWPibP_djfCR-115" value="- problemID" style="text;strokeColor=none;fillColor=none;align=left;verticalAlign=top;spacingLeft=4;spacingRight=4;overflow=hidden;rotatable=0;points=[[0,0.5],[1,0.5]];portConstraint=eastwest;whiteSpace=wrap;html=1;fontFamily=Georgia;fontColor=#000000;strokeWidth=2;" vertex="1" parent="RMb5vPwJAWPibP_djfCR-114">
          <mxGeometry y="40" width="170" height="26" as="geometry" />
        </mxCell>
        <mxCell id="RMb5vPwJAWPibP_djfCR-116" value="- algorithm_ID" style="text;strokeColor=none;fillColor=none;align=left;verticalAlign=top;spacingLeft=4;spacingRight=4;overflow=hidden;rotatable=0;points=[[0,0.5],[1,0.5]];portConstraint=eastwest;whiteSpace=wrap;html=1;fontFamily=Georgia;fontColor=#000000;strokeWidth=2;" vertex="1" parent="RMb5vPwJAWPibP_djfCR-114">
          <mxGeometry y="66" width="170" height="26" as="geometry" />
        </mxCell>
        <mxCell id="RMb5vPwJAWPibP_djfCR-117" value="- authorID" style="text;strokeColor=none;fillColor=none;align=left;verticalAlign=top;spacingLeft=4;spacingRight=4;overflow=hidden;rotatable=0;points=[[0,0.5],[1,0.5]];portConstraint=eastwest;whiteSpace=wrap;html=1;fontFamily=Georgia;fontColor=#000000;strokeWidth=2;" vertex="1" parent="RMb5vPwJAWPibP_djfCR-114">
          <mxGeometry y="92" width="170" height="26" as="geometry" />
        </mxCell>
        <mxCell id="RMb5vPwJAWPibP_djfCR-118" value="- title" style="text;strokeColor=none;fillColor=none;align=left;verticalAlign=top;spacingLeft=4;spacingRight=4;overflow=hidden;rotatable=0;points=[[0,0.5],[1,0.5]];portConstraint=eastwest;whiteSpace=wrap;html=1;fontFamily=Georgia;fontColor=#000000;strokeWidth=2;" vertex="1" parent="RMb5vPwJAWPibP_djfCR-114">
          <mxGeometry y="118" width="170" height="26" as="geometry" />
        </mxCell>
        <mxCell id="RMb5vPwJAWPibP_djfCR-119" value="- description" style="text;strokeColor=none;fillColor=none;align=left;verticalAlign=top;spacingLeft=4;spacingRight=4;overflow=hidden;rotatable=0;points=[[0,0.5],[1,0.5]];portConstraint=eastwest;whiteSpace=wrap;html=1;fontFamily=Georgia;fontColor=#000000;strokeWidth=2;" vertex="1" parent="RMb5vPwJAWPibP_djfCR-114">
          <mxGeometry y="144" width="170" height="26" as="geometry" />
        </mxCell>
        <mxCell id="RMb5vPwJAWPibP_djfCR-120" value="- canvasDataJSON" style="text;strokeColor=none;fillColor=none;align=left;verticalAlign=top;spacingLeft=4;spacingRight=4;overflow=hidden;rotatable=0;points=[[0,0.5],[1,0.5]];portConstraint=eastwest;whiteSpace=wrap;html=1;fontFamily=Georgia;fontColor=#000000;strokeWidth=2;" vertex="1" parent="RMb5vPwJAWPibP_djfCR-114">
          <mxGeometry y="170" width="170" height="26" as="geometry" />
        </mxCell>
        <mxCell id="RMb5vPwJAWPibP_djfCR-121" value="- solutionChecker" style="text;strokeColor=none;fillColor=none;align=left;verticalAlign=top;spacingLeft=4;spacingRight=4;overflow=hidden;rotatable=0;points=[[0,0.5],[1,0.5]];portConstraint=eastwest;whiteSpace=wrap;html=1;fontFamily=Georgia;fontColor=#000000;strokeWidth=2;" vertex="1" parent="RMb5vPwJAWPibP_djfCR-114">
          <mxGeometry y="196" width="170" height="26" as="geometry" />
        </mxCell>
        <mxCell id="RMb5vPwJAWPibP_djfCR-122" value="- points" style="text;strokeColor=none;fillColor=none;align=left;verticalAlign=top;spacingLeft=4;spacingRight=4;overflow=hidden;rotatable=0;points=[[0,0.5],[1,0.5]];portConstraint=eastwest;whiteSpace=wrap;html=1;fontFamily=Georgia;fontColor=#000000;strokeWidth=2;" vertex="1" parent="RMb5vPwJAWPibP_djfCR-114">
          <mxGeometry y="222" width="170" height="26" as="geometry" />
        </mxCell>
        <mxCell id="RMb5vPwJAWPibP_djfCR-123" value="- editorial" style="text;strokeColor=none;fillColor=none;align=left;verticalAlign=top;spacingLeft=4;spacingRight=4;overflow=hidden;rotatable=0;points=[[0,0.5],[1,0.5]];portConstraint=eastwest;whiteSpace=wrap;html=1;fontFamily=Georgia;fontColor=#000000;strokeWidth=2;" vertex="1" parent="RMb5vPwJAWPibP_djfCR-114">
          <mxGeometry y="248" width="170" height="26" as="geometry" />
        </mxCell>
        <mxCell id="RMb5vPwJAWPibP_djfCR-124" value="- creationTime" style="text;strokeColor=none;fillColor=none;align=left;verticalAlign=top;spacingLeft=4;spacingRight=4;overflow=hidden;rotatable=0;points=[[0,0.5],[1,0.5]];portConstraint=eastwest;whiteSpace=wrap;html=1;fontFamily=Georgia;fontColor=#000000;strokeWidth=2;" vertex="1" parent="RMb5vPwJAWPibP_djfCR-114">
          <mxGeometry y="274" width="170" height="26" as="geometry" />
        </mxCell>
        <mxCell id="RMb5vPwJAWPibP_djfCR-125" value="- is_live" style="text;strokeColor=none;fillColor=none;align=left;verticalAlign=top;spacingLeft=4;spacingRight=4;overflow=hidden;rotatable=0;points=[[0,0.5],[1,0.5]];portConstraint=eastwest;whiteSpace=wrap;html=1;fontFamily=Georgia;fontColor=#000000;strokeWidth=2;" vertex="1" parent="RMb5vPwJAWPibP_djfCR-114">
          <mxGeometry y="300" width="170" height="26" as="geometry" />
        </mxCell>
        <mxCell id="RMb5vPwJAWPibP_djfCR-126" value="" style="line;strokeWidth=2;fillColor=none;align=left;verticalAlign=middle;spacingTop=-1;spacingLeft=3;spacingRight=3;rotatable=0;labelPosition=right;points=[];portConstraint=eastwest;strokeColor=inherit;fontFamily=Georgia;fontColor=#000000;" vertex="1" parent="RMb5vPwJAWPibP_djfCR-114">
          <mxGeometry y="326" width="170" height="8" as="geometry" />
        </mxCell>
        <mxCell id="RMb5vPwJAWPibP_djfCR-127" value="+ getProblemAttributes()" style="text;strokeColor=none;fillColor=none;align=left;verticalAlign=top;spacingLeft=4;spacingRight=4;overflow=hidden;rotatable=0;points=[[0,0.5],[1,0.5]];portConstraint=eastwest;whiteSpace=wrap;html=1;fontFamily=Georgia;fontColor=#000000;strokeWidth=2;" vertex="1" parent="RMb5vPwJAWPibP_djfCR-114">
          <mxGeometry y="334" width="170" height="26" as="geometry" />
        </mxCell>
        <mxCell id="RMb5vPwJAWPibP_djfCR-128" value="+ getProblemsDetails()" style="text;strokeColor=none;fillColor=none;align=left;verticalAlign=top;spacingLeft=4;spacingRight=4;overflow=hidden;rotatable=0;points=[[0,0.5],[1,0.5]];portConstraint=eastwest;whiteSpace=wrap;html=1;fontFamily=Georgia;fontColor=#000000;strokeWidth=2;" vertex="1" parent="RMb5vPwJAWPibP_djfCR-114">
          <mxGeometry y="360" width="170" height="26" as="geometry" />
        </mxCell>
        <mxCell id="RMb5vPwJAWPibP_djfCR-129" value="+ getCanvasData()" style="text;strokeColor=none;fillColor=none;align=left;verticalAlign=top;spacingLeft=4;spacingRight=4;overflow=hidden;rotatable=0;points=[[0,0.5],[1,0.5]];portConstraint=eastwest;whiteSpace=wrap;html=1;fontFamily=Georgia;fontColor=#000000;strokeWidth=2;" vertex="1" parent="RMb5vPwJAWPibP_djfCR-114">
          <mxGeometry y="386" width="170" height="26" as="geometry" />
        </mxCell>
        <mxCell id="RMb5vPwJAWPibP_djfCR-130" value="+ getSolutionChecker()" style="text;strokeColor=none;fillColor=none;align=left;verticalAlign=top;spacingLeft=4;spacingRight=4;overflow=hidden;rotatable=0;points=[[0,0.5],[1,0.5]];portConstraint=eastwest;whiteSpace=wrap;html=1;fontFamily=Georgia;fontColor=#000000;strokeWidth=2;" vertex="1" parent="RMb5vPwJAWPibP_djfCR-114">
          <mxGeometry y="412" width="170" height="26" as="geometry" />
        </mxCell>
        <mxCell id="RMb5vPwJAWPibP_djfCR-131" value="+ getPoints()" style="text;strokeColor=none;fillColor=none;align=left;verticalAlign=top;spacingLeft=4;spacingRight=4;overflow=hidden;rotatable=0;points=[[0,0.5],[1,0.5]];portConstraint=eastwest;whiteSpace=wrap;html=1;fontFamily=Georgia;fontColor=#000000;strokeWidth=2;" vertex="1" parent="RMb5vPwJAWPibP_djfCR-114">
          <mxGeometry y="438" width="170" height="26" as="geometry" />
        </mxCell>
        <mxCell id="RMb5vPwJAWPibP_djfCR-132" value="+ getEditorial()" style="text;strokeColor=none;fillColor=none;align=left;verticalAlign=top;spacingLeft=4;spacingRight=4;overflow=hidden;rotatable=0;points=[[0,0.5],[1,0.5]];portConstraint=eastwest;whiteSpace=wrap;html=1;fontFamily=Georgia;fontColor=#000000;strokeWidth=2;" vertex="1" parent="RMb5vPwJAWPibP_djfCR-114">
          <mxGeometry y="464" width="170" height="26" as="geometry" />
        </mxCell>
        <mxCell id="RMb5vPwJAWPibP_djfCR-133" value="&amp;lt;&amp;lt;entity&amp;gt;&amp;gt;&lt;br&gt;&lt;div&gt;UserActivity&lt;/div&gt;" style="swimlane;fontStyle=1;align=center;verticalAlign=top;childLayout=stackLayout;horizontal=1;startSize=40;horizontalStack=0;resizeParent=1;resizeParentMax=0;resizeLast=0;collapsible=1;marginBottom=0;whiteSpace=wrap;html=1;fillColor=#fff2cc;strokeColor=#d6b656;rounded=1;fontFamily=Georgia;strokeWidth=2;" vertex="1" parent="1">
          <mxGeometry x="1736" y="602" width="200" height="438" as="geometry" />
        </mxCell>
        <mxCell id="RMb5vPwJAWPibP_djfCR-134" value="-&amp;nbsp; userID" style="text;strokeColor=none;fillColor=none;align=left;verticalAlign=top;spacingLeft=4;spacingRight=4;overflow=hidden;rotatable=0;points=[[0,0.5],[1,0.5]];portConstraint=eastwest;whiteSpace=wrap;html=1;fontFamily=Georgia;fontColor=#000000;strokeWidth=2;" vertex="1" parent="RMb5vPwJAWPibP_djfCR-133">
          <mxGeometry y="40" width="200" height="26" as="geometry" />
        </mxCell>
        <mxCell id="RMb5vPwJAWPibP_djfCR-135" value="- problemID" style="text;strokeColor=none;fillColor=none;align=left;verticalAlign=top;spacingLeft=4;spacingRight=4;overflow=hidden;rotatable=0;points=[[0,0.5],[1,0.5]];portConstraint=eastwest;whiteSpace=wrap;html=1;fontFamily=Georgia;fontColor=#000000;strokeWidth=2;" vertex="1" parent="RMb5vPwJAWPibP_djfCR-133">
          <mxGeometry y="66" width="200" height="26" as="geometry" />
        </mxCell>
        <mxCell id="RMb5vPwJAWPibP_djfCR-136" value="- seenTime" style="text;strokeColor=none;fillColor=none;align=left;verticalAlign=top;spacingLeft=4;spacingRight=4;overflow=hidden;rotatable=0;points=[[0,0.5],[1,0.5]];portConstraint=eastwest;whiteSpace=wrap;html=1;fontFamily=Georgia;fontColor=#000000;strokeWidth=2;" vertex="1" parent="RMb5vPwJAWPibP_djfCR-133">
          <mxGeometry y="92" width="200" height="26" as="geometry" />
        </mxCell>
        <mxCell id="RMb5vPwJAWPibP_djfCR-137" value="- numberOfAttempts" style="text;strokeColor=none;fillColor=none;align=left;verticalAlign=top;spacingLeft=4;spacingRight=4;overflow=hidden;rotatable=0;points=[[0,0.5],[1,0.5]];portConstraint=eastwest;whiteSpace=wrap;html=1;fontFamily=Georgia;fontColor=#000000;strokeWidth=2;" vertex="1" parent="RMb5vPwJAWPibP_djfCR-133">
          <mxGeometry y="118" width="200" height="26" as="geometry" />
        </mxCell>
        <mxCell id="RMb5vPwJAWPibP_djfCR-138" value="-&amp;nbsp; firstSolveTime" style="text;strokeColor=none;fillColor=none;align=left;verticalAlign=top;spacingLeft=4;spacingRight=4;overflow=hidden;rotatable=0;points=[[0,0.5],[1,0.5]];portConstraint=eastwest;whiteSpace=wrap;html=1;fontFamily=Georgia;fontColor=#000000;strokeWidth=2;" vertex="1" parent="RMb5vPwJAWPibP_djfCR-133">
          <mxGeometry y="144" width="200" height="26" as="geometry" />
        </mxCell>
        <mxCell id="RMb5vPwJAWPibP_djfCR-139" value="-&amp;nbsp; points" style="text;strokeColor=none;fillColor=none;align=left;verticalAlign=top;spacingLeft=4;spacingRight=4;overflow=hidden;rotatable=0;points=[[0,0.5],[1,0.5]];portConstraint=eastwest;whiteSpace=wrap;html=1;fontFamily=Georgia;fontColor=#000000;strokeWidth=2;" vertex="1" parent="RMb5vPwJAWPibP_djfCR-133">
          <mxGeometry y="170" width="200" height="26" as="geometry" />
        </mxCell>
        <mxCell id="RMb5vPwJAWPibP_djfCR-140" value="- numberOfHintsTaken" style="text;strokeColor=none;fillColor=none;align=left;verticalAlign=top;spacingLeft=4;spacingRight=4;overflow=hidden;rotatable=0;points=[[0,0.5],[1,0.5]];portConstraint=eastwest;whiteSpace=wrap;html=1;fontFamily=Georgia;fontColor=#000000;strokeWidth=2;" vertex="1" parent="RMb5vPwJAWPibP_djfCR-133">
          <mxGeometry y="196" width="200" height="26" as="geometry" />
        </mxCell>
        <mxCell id="RMb5vPwJAWPibP_djfCR-141" value="- rating" style="text;strokeColor=none;fillColor=none;align=left;verticalAlign=top;spacingLeft=4;spacingRight=4;overflow=hidden;rotatable=0;points=[[0,0.5],[1,0.5]];portConstraint=eastwest;whiteSpace=wrap;html=1;fontFamily=Georgia;fontColor=#000000;strokeWidth=2;" vertex="1" parent="RMb5vPwJAWPibP_djfCR-133">
          <mxGeometry y="222" width="200" height="26" as="geometry" />
        </mxCell>
        <mxCell id="RMb5vPwJAWPibP_djfCR-142" value="" style="line;strokeWidth=2;fillColor=none;align=left;verticalAlign=middle;spacingTop=-1;spacingLeft=3;spacingRight=3;rotatable=0;labelPosition=right;points=[];portConstraint=eastwest;strokeColor=inherit;fontFamily=Georgia;fontColor=#000000;" vertex="1" parent="RMb5vPwJAWPibP_djfCR-133">
          <mxGeometry y="248" width="200" height="8" as="geometry" />
        </mxCell>
        <mxCell id="RMb5vPwJAWPibP_djfCR-143" value="+ getUserProblemAttributes()" style="text;strokeColor=none;fillColor=none;align=left;verticalAlign=top;spacingLeft=4;spacingRight=4;overflow=hidden;rotatable=0;points=[[0,0.5],[1,0.5]];portConstraint=eastwest;whiteSpace=wrap;html=1;fontFamily=Georgia;fontColor=#000000;strokeWidth=2;" vertex="1" parent="RMb5vPwJAWPibP_djfCR-133">
          <mxGeometry y="256" width="200" height="26" as="geometry" />
        </mxCell>
        <mxCell id="RMb5vPwJAWPibP_djfCR-144" value="+ getRating()" style="text;strokeColor=none;fillColor=none;align=left;verticalAlign=top;spacingLeft=4;spacingRight=4;overflow=hidden;rotatable=0;points=[[0,0.5],[1,0.5]];portConstraint=eastwest;whiteSpace=wrap;html=1;fontFamily=Georgia;fontColor=#000000;strokeWidth=2;" vertex="1" parent="RMb5vPwJAWPibP_djfCR-133">
          <mxGeometry y="282" width="200" height="26" as="geometry" />
        </mxCell>
        <mxCell id="RMb5vPwJAWPibP_djfCR-145" value="+ getNumberOfHintsTaken()" style="text;strokeColor=none;fillColor=none;align=left;verticalAlign=top;spacingLeft=4;spacingRight=4;overflow=hidden;rotatable=0;points=[[0,0.5],[1,0.5]];portConstraint=eastwest;whiteSpace=wrap;html=1;fontFamily=Georgia;fontColor=#000000;strokeWidth=2;" vertex="1" parent="RMb5vPwJAWPibP_djfCR-133">
          <mxGeometry y="308" width="200" height="26" as="geometry" />
        </mxCell>
        <mxCell id="RMb5vPwJAWPibP_djfCR-146" value="+&amp;nbsp; getPoints()" style="text;strokeColor=none;fillColor=none;align=left;verticalAlign=top;spacingLeft=4;spacingRight=4;overflow=hidden;rotatable=0;points=[[0,0.5],[1,0.5]];portConstraint=eastwest;whiteSpace=wrap;html=1;fontFamily=Georgia;fontColor=#000000;strokeWidth=2;" vertex="1" parent="RMb5vPwJAWPibP_djfCR-133">
          <mxGeometry y="334" width="200" height="26" as="geometry" />
        </mxCell>
        <mxCell id="RMb5vPwJAWPibP_djfCR-147" value="+&amp;nbsp; getFirstSolveTime()" style="text;strokeColor=none;fillColor=none;align=left;verticalAlign=top;spacingLeft=4;spacingRight=4;overflow=hidden;rotatable=0;points=[[0,0.5],[1,0.5]];portConstraint=eastwest;whiteSpace=wrap;html=1;fontFamily=Georgia;fontColor=#000000;strokeWidth=2;" vertex="1" parent="RMb5vPwJAWPibP_djfCR-133">
          <mxGeometry y="360" width="200" height="26" as="geometry" />
        </mxCell>
        <mxCell id="RMb5vPwJAWPibP_djfCR-148" value="+ getNumberOfAttempts()" style="text;strokeColor=none;fillColor=none;align=left;verticalAlign=top;spacingLeft=4;spacingRight=4;overflow=hidden;rotatable=0;points=[[0,0.5],[1,0.5]];portConstraint=eastwest;whiteSpace=wrap;html=1;fontFamily=Georgia;fontColor=#000000;strokeWidth=2;" vertex="1" parent="RMb5vPwJAWPibP_djfCR-133">
          <mxGeometry y="386" width="200" height="26" as="geometry" />
        </mxCell>
        <mxCell id="RMb5vPwJAWPibP_djfCR-149" value="+ getSeenTime()" style="text;strokeColor=none;fillColor=none;align=left;verticalAlign=top;spacingLeft=4;spacingRight=4;overflow=hidden;rotatable=0;points=[[0,0.5],[1,0.5]];portConstraint=eastwest;whiteSpace=wrap;html=1;fontFamily=Georgia;fontColor=#000000;strokeWidth=2;" vertex="1" parent="RMb5vPwJAWPibP_djfCR-133">
          <mxGeometry y="412" width="200" height="26" as="geometry" />
        </mxCell>
        <mxCell id="RMb5vPwJAWPibP_djfCR-150" value="&lt;i&gt;&amp;lt;&amp;lt;interface&amp;gt;&amp;gt;&lt;br&gt;&lt;/i&gt;&lt;b&gt;Canvas&lt;/b&gt;" style="swimlane;fontStyle=0;childLayout=stackLayout;horizontal=1;startSize=40;fillColor=#e1d5e7;horizontalStack=0;resizeParent=1;resizeParentMax=0;resizeLast=0;collapsible=1;marginBottom=0;whiteSpace=wrap;html=1;strokeColor=#9673a6;rounded=1;fontFamily=Georgia;strokeWidth=2;" vertex="1" parent="1">
          <mxGeometry x="580" y="2760" width="140" height="144" as="geometry" />
        </mxCell>
        <mxCell id="RMb5vPwJAWPibP_djfCR-151" value="+ render()" style="text;strokeColor=#9673a6;fillColor=#e1d5e7;align=left;verticalAlign=top;spacingLeft=4;spacingRight=4;overflow=hidden;rotatable=0;points=[[0,0.5],[1,0.5]];portConstraint=eastwest;whiteSpace=wrap;html=1;fontFamily=Georgia;strokeWidth=2;" vertex="1" parent="RMb5vPwJAWPibP_djfCR-150">
          <mxGeometry y="40" width="140" height="26" as="geometry" />
        </mxCell>
        <mxCell id="RMb5vPwJAWPibP_djfCR-152" value="+ setup()" style="text;strokeColor=#9673a6;fillColor=#e1d5e7;align=left;verticalAlign=top;spacingLeft=4;spacingRight=4;overflow=hidden;rotatable=0;points=[[0,0.5],[1,0.5]];portConstraint=eastwest;whiteSpace=wrap;html=1;fontFamily=Georgia;strokeWidth=2;" vertex="1" parent="RMb5vPwJAWPibP_djfCR-150">
          <mxGeometry y="66" width="140" height="26" as="geometry" />
        </mxCell>
        <mxCell id="RMb5vPwJAWPibP_djfCR-153" value="+ clear()" style="text;strokeColor=#9673a6;fillColor=#e1d5e7;align=left;verticalAlign=top;spacingLeft=4;spacingRight=4;overflow=hidden;rotatable=0;points=[[0,0.5],[1,0.5]];portConstraint=eastwest;whiteSpace=wrap;html=1;fontFamily=Georgia;strokeWidth=2;" vertex="1" parent="RMb5vPwJAWPibP_djfCR-150">
          <mxGeometry y="92" width="140" height="26" as="geometry" />
        </mxCell>
        <mxCell id="RMb5vPwJAWPibP_djfCR-154" value="+ getMetaData()" style="text;strokeColor=#9673a6;fillColor=#e1d5e7;align=left;verticalAlign=top;spacingLeft=4;spacingRight=4;overflow=hidden;rotatable=0;points=[[0,0.5],[1,0.5]];portConstraint=eastwest;whiteSpace=wrap;html=1;fontFamily=Georgia;strokeWidth=2;" vertex="1" parent="RMb5vPwJAWPibP_djfCR-150">
          <mxGeometry y="118" width="140" height="26" as="geometry" />
        </mxCell>
        <mxCell id="RMb5vPwJAWPibP_djfCR-155" value="&lt;i style=&quot;font-weight: normal;&quot;&gt;&amp;lt;&amp;lt;controller&amp;gt;&amp;gt;&lt;br&gt;&lt;/i&gt;&lt;div&gt;PlaygroundControl&lt;/div&gt;" style="swimlane;fontStyle=1;align=center;verticalAlign=top;childLayout=stackLayout;horizontal=1;startSize=40;horizontalStack=0;resizeParent=1;resizeParentMax=0;resizeLast=0;collapsible=1;marginBottom=0;whiteSpace=wrap;html=1;fillColor=#e1d5e7;strokeColor=#9673a6;rounded=1;fontFamily=Georgia;fontColor=#000000;strokeWidth=2;" vertex="1" parent="1">
          <mxGeometry x="1014" y="1250" width="202" height="152" as="geometry" />
        </mxCell>
        <mxCell id="RMb5vPwJAWPibP_djfCR-156" value="- canvas" style="text;strokeColor=none;fillColor=none;align=left;verticalAlign=top;spacingLeft=4;spacingRight=4;overflow=hidden;rotatable=0;points=[[0,0.5],[1,0.5]];portConstraint=eastwest;whiteSpace=wrap;html=1;fontFamily=Georgia;fontColor=#000000;strokeWidth=2;" vertex="1" parent="RMb5vPwJAWPibP_djfCR-155">
          <mxGeometry y="40" width="202" height="26" as="geometry" />
        </mxCell>
        <mxCell id="RMb5vPwJAWPibP_djfCR-157" value="" style="line;strokeWidth=2;fillColor=none;align=left;verticalAlign=middle;spacingTop=-1;spacingLeft=3;spacingRight=3;rotatable=0;labelPosition=right;points=[];portConstraint=eastwest;strokeColor=inherit;fontFamily=Georgia;fontColor=#000000;" vertex="1" parent="RMb5vPwJAWPibP_djfCR-155">
          <mxGeometry y="66" width="202" height="8" as="geometry" />
        </mxCell>
        <mxCell id="RMb5vPwJAWPibP_djfCR-158" value="+ retrieveAlgorithms(algorithm)" style="text;strokeColor=none;fillColor=none;align=left;verticalAlign=top;spacingLeft=4;spacingRight=4;overflow=hidden;rotatable=0;points=[[0,0.5],[1,0.5]];portConstraint=eastwest;whiteSpace=wrap;html=1;fontFamily=Georgia;fontColor=#000000;strokeWidth=2;" vertex="1" parent="RMb5vPwJAWPibP_djfCR-155">
          <mxGeometry y="74" width="202" height="26" as="geometry" />
        </mxCell>
        <mxCell id="RMb5vPwJAWPibP_djfCR-159" value="+ retrieveCanvas(canvas,algorithm)" style="text;strokeColor=none;fillColor=none;align=left;verticalAlign=top;spacingLeft=4;spacingRight=4;overflow=hidden;rotatable=0;points=[[0,0.5],[1,0.5]];portConstraint=eastwest;whiteSpace=wrap;html=1;fontFamily=Georgia;fontColor=#000000;strokeWidth=2;" vertex="1" parent="RMb5vPwJAWPibP_djfCR-155">
          <mxGeometry y="100" width="202" height="26" as="geometry" />
        </mxCell>
        <mxCell id="RMb5vPwJAWPibP_djfCR-160" value="+ generateSolution(canvas)" style="text;strokeColor=none;fillColor=none;align=left;verticalAlign=top;spacingLeft=4;spacingRight=4;overflow=hidden;rotatable=0;points=[[0,0.5],[1,0.5]];portConstraint=eastwest;whiteSpace=wrap;html=1;fontFamily=Georgia;fontColor=#000000;strokeWidth=2;" vertex="1" parent="RMb5vPwJAWPibP_djfCR-155">
          <mxGeometry y="126" width="202" height="26" as="geometry" />
        </mxCell>
        <mxCell id="RMb5vPwJAWPibP_djfCR-161" value="&lt;span style=&quot;font-weight: normal;&quot;&gt;&lt;i&gt;&amp;lt;&amp;lt;boundary&amp;gt;&amp;gt;&lt;br&gt;&lt;/i&gt;&lt;/span&gt;&lt;div&gt;GraphUI&lt;/div&gt;" style="swimlane;fontStyle=1;align=center;verticalAlign=top;childLayout=stackLayout;horizontal=1;startSize=40;horizontalStack=0;resizeParent=1;resizeParentMax=0;resizeLast=0;collapsible=1;marginBottom=0;whiteSpace=wrap;html=1;rounded=1;fillColor=#e1d5e7;strokeColor=#9673a6;fontFamily=Georgia;strokeWidth=2;" vertex="1" parent="1">
          <mxGeometry x="280" y="3010" width="160" height="196" as="geometry" />
        </mxCell>
        <mxCell id="RMb5vPwJAWPibP_djfCR-162" value="&lt;div&gt;&lt;br&gt;&lt;/div&gt;&lt;div&gt;&lt;br&gt;&lt;/div&gt;" style="text;strokeColor=#9673a6;fillColor=#e1d5e7;align=left;verticalAlign=top;spacingLeft=4;spacingRight=4;overflow=hidden;rotatable=0;points=[[0,0.5],[1,0.5]];portConstraint=eastwest;whiteSpace=wrap;html=1;fontFamily=Georgia;strokeWidth=2;" vertex="1" parent="RMb5vPwJAWPibP_djfCR-161">
          <mxGeometry y="40" width="160" height="26" as="geometry" />
        </mxCell>
        <mxCell id="RMb5vPwJAWPibP_djfCR-163" value="+ addNode()" style="text;strokeColor=#9673a6;fillColor=#e1d5e7;align=left;verticalAlign=top;spacingLeft=4;spacingRight=4;overflow=hidden;rotatable=0;points=[[0,0.5],[1,0.5]];portConstraint=eastwest;whiteSpace=wrap;html=1;fontFamily=Georgia;strokeWidth=2;" vertex="1" parent="RMb5vPwJAWPibP_djfCR-161">
          <mxGeometry y="66" width="160" height="26" as="geometry" />
        </mxCell>
        <mxCell id="RMb5vPwJAWPibP_djfCR-164" value="+ deleteNode()" style="text;strokeColor=#9673a6;fillColor=#e1d5e7;align=left;verticalAlign=top;spacingLeft=4;spacingRight=4;overflow=hidden;rotatable=0;points=[[0,0.5],[1,0.5]];portConstraint=eastwest;whiteSpace=wrap;html=1;fontFamily=Georgia;strokeWidth=2;" vertex="1" parent="RMb5vPwJAWPibP_djfCR-161">
          <mxGeometry y="92" width="160" height="26" as="geometry" />
        </mxCell>
        <mxCell id="RMb5vPwJAWPibP_djfCR-165" value="+ addEdge()" style="text;strokeColor=#9673a6;fillColor=#e1d5e7;align=left;verticalAlign=top;spacingLeft=4;spacingRight=4;overflow=hidden;rotatable=0;points=[[0,0.5],[1,0.5]];portConstraint=eastwest;whiteSpace=wrap;html=1;fontFamily=Georgia;strokeWidth=2;" vertex="1" parent="RMb5vPwJAWPibP_djfCR-161">
          <mxGeometry y="118" width="160" height="26" as="geometry" />
        </mxCell>
        <mxCell id="RMb5vPwJAWPibP_djfCR-166" value="+ dragNode()" style="text;strokeColor=#9673a6;fillColor=#e1d5e7;align=left;verticalAlign=top;spacingLeft=4;spacingRight=4;overflow=hidden;rotatable=0;points=[[0,0.5],[1,0.5]];portConstraint=eastwest;whiteSpace=wrap;html=1;fontFamily=Georgia;strokeWidth=2;" vertex="1" parent="RMb5vPwJAWPibP_djfCR-161">
          <mxGeometry y="144" width="160" height="26" as="geometry" />
        </mxCell>
        <mxCell id="RMb5vPwJAWPibP_djfCR-167" value="+ deleteEdge()" style="text;strokeColor=#9673a6;fillColor=#e1d5e7;align=left;verticalAlign=top;spacingLeft=4;spacingRight=4;overflow=hidden;rotatable=0;points=[[0,0.5],[1,0.5]];portConstraint=eastwest;whiteSpace=wrap;html=1;fontFamily=Georgia;strokeWidth=2;" vertex="1" parent="RMb5vPwJAWPibP_djfCR-161">
          <mxGeometry y="170" width="160" height="26" as="geometry" />
        </mxCell>
        <mxCell id="RMb5vPwJAWPibP_djfCR-168" value="&lt;div&gt;&lt;span style=&quot;font-weight: normal;&quot;&gt;&lt;i&gt;&amp;lt;&amp;lt;boundary&amp;gt;&amp;gt;&lt;/i&gt;&lt;/span&gt;&lt;/div&gt;&lt;div&gt;TowerOfHanoiUI&lt;/div&gt;" style="swimlane;fontStyle=1;align=center;verticalAlign=top;childLayout=stackLayout;horizontal=1;startSize=40;horizontalStack=0;resizeParent=1;resizeParentMax=0;resizeLast=0;collapsible=1;marginBottom=0;whiteSpace=wrap;html=1;rounded=1;fillColor=#e1d5e7;strokeColor=#9673a6;fontFamily=Georgia;strokeWidth=2;" vertex="1" parent="1">
          <mxGeometry x="471" y="3010" width="160" height="196" as="geometry" />
        </mxCell>
        <mxCell id="RMb5vPwJAWPibP_djfCR-169" value="&lt;div&gt;&lt;br&gt;&lt;/div&gt;&lt;div&gt;&lt;br&gt;&lt;/div&gt;" style="text;strokeColor=#9673a6;fillColor=#e1d5e7;align=left;verticalAlign=top;spacingLeft=4;spacingRight=4;overflow=hidden;rotatable=0;points=[[0,0.5],[1,0.5]];portConstraint=eastwest;whiteSpace=wrap;html=1;fontFamily=Georgia;strokeWidth=2;" vertex="1" parent="RMb5vPwJAWPibP_djfCR-168">
          <mxGeometry y="40" width="160" height="26" as="geometry" />
        </mxCell>
        <mxCell id="RMb5vPwJAWPibP_djfCR-170" value="+ addPeg()" style="text;strokeColor=#9673a6;fillColor=#e1d5e7;align=left;verticalAlign=top;spacingLeft=4;spacingRight=4;overflow=hidden;rotatable=0;points=[[0,0.5],[1,0.5]];portConstraint=eastwest;whiteSpace=wrap;html=1;fontFamily=Georgia;strokeWidth=2;" vertex="1" parent="RMb5vPwJAWPibP_djfCR-168">
          <mxGeometry y="66" width="160" height="26" as="geometry" />
        </mxCell>
        <mxCell id="RMb5vPwJAWPibP_djfCR-171" value="+ deletePeg()" style="text;strokeColor=#9673a6;fillColor=#e1d5e7;align=left;verticalAlign=top;spacingLeft=4;spacingRight=4;overflow=hidden;rotatable=0;points=[[0,0.5],[1,0.5]];portConstraint=eastwest;whiteSpace=wrap;html=1;fontFamily=Georgia;strokeWidth=2;" vertex="1" parent="RMb5vPwJAWPibP_djfCR-168">
          <mxGeometry y="92" width="160" height="26" as="geometry" />
        </mxCell>
        <mxCell id="RMb5vPwJAWPibP_djfCR-172" value="+ setDisk()" style="text;strokeColor=#9673a6;fillColor=#e1d5e7;align=left;verticalAlign=top;spacingLeft=4;spacingRight=4;overflow=hidden;rotatable=0;points=[[0,0.5],[1,0.5]];portConstraint=eastwest;whiteSpace=wrap;html=1;fontFamily=Georgia;strokeWidth=2;" vertex="1" parent="RMb5vPwJAWPibP_djfCR-168">
          <mxGeometry y="118" width="160" height="26" as="geometry" />
        </mxCell>
        <mxCell id="RMb5vPwJAWPibP_djfCR-173" value="+ dragDisk()" style="text;strokeColor=#9673a6;fillColor=#e1d5e7;align=left;verticalAlign=top;spacingLeft=4;spacingRight=4;overflow=hidden;rotatable=0;points=[[0,0.5],[1,0.5]];portConstraint=eastwest;whiteSpace=wrap;html=1;fontFamily=Georgia;strokeWidth=2;" vertex="1" parent="RMb5vPwJAWPibP_djfCR-168">
          <mxGeometry y="144" width="160" height="26" as="geometry" />
        </mxCell>
        <mxCell id="RMb5vPwJAWPibP_djfCR-174" value="+ dropDisk()" style="text;strokeColor=#9673a6;fillColor=#e1d5e7;align=left;verticalAlign=top;spacingLeft=4;spacingRight=4;overflow=hidden;rotatable=0;points=[[0,0.5],[1,0.5]];portConstraint=eastwest;whiteSpace=wrap;html=1;fontFamily=Georgia;strokeWidth=2;" vertex="1" parent="RMb5vPwJAWPibP_djfCR-168">
          <mxGeometry y="170" width="160" height="26" as="geometry" />
        </mxCell>
        <mxCell id="RMb5vPwJAWPibP_djfCR-175" value="&lt;i style=&quot;font-weight: normal;&quot;&gt;&amp;lt;&amp;lt;entity&amp;gt;&amp;gt;&lt;br&gt;&lt;/i&gt;&lt;div&gt;Playground&lt;/div&gt;" style="swimlane;fontStyle=1;align=center;verticalAlign=top;childLayout=stackLayout;horizontal=1;startSize=46;horizontalStack=0;resizeParent=1;resizeParentMax=0;resizeLast=0;collapsible=1;marginBottom=0;whiteSpace=wrap;html=1;fontFamily=Georgia;fillColor=#dae8fc;strokeColor=#6c8ebf;rounded=1;strokeWidth=2;" vertex="1" parent="1">
          <mxGeometry x="1283" y="1250" width="190" height="366" as="geometry" />
        </mxCell>
        <mxCell id="RMb5vPwJAWPibP_djfCR-176" value="- page_id" style="text;strokeColor=none;fillColor=none;align=left;verticalAlign=top;spacingLeft=4;spacingRight=4;overflow=hidden;rotatable=0;points=[[0,0.5],[1,0.5]];portConstraint=eastwest;whiteSpace=wrap;html=1;fontFamily=Georgia;fontColor=#000000;strokeWidth=2;" vertex="1" parent="RMb5vPwJAWPibP_djfCR-175">
          <mxGeometry y="46" width="190" height="26" as="geometry" />
        </mxCell>
        <mxCell id="RMb5vPwJAWPibP_djfCR-177" value="&lt;span&gt;- algorithm_id&lt;/span&gt;" style="shape=partialRectangle;connectable=0;fillColor=none;top=0;left=0;bottom=0;right=0;align=left;spacingLeft=6;overflow=hidden;whiteSpace=wrap;html=1;labelBackgroundColor=none;strokeColor=#788AA3;fontColor=#000000;rounded=1;strokeWidth=2;fontFamily=Georgia;fontStyle=0;verticalAlign=top;" vertex="1" parent="RMb5vPwJAWPibP_djfCR-175">
          <mxGeometry y="72" width="190" height="26" as="geometry">
            <mxRectangle width="150" height="30" as="alternateBounds" />
          </mxGeometry>
        </mxCell>
        <mxCell id="RMb5vPwJAWPibP_djfCR-178" value="- title" style="shape=partialRectangle;connectable=0;fillColor=none;top=0;left=0;bottom=0;right=0;align=left;spacingLeft=6;overflow=hidden;whiteSpace=wrap;html=1;labelBackgroundColor=none;strokeColor=#788AA3;fontColor=#000000;rounded=1;fontFamily=Georgia;verticalAlign=top;strokeWidth=2;" vertex="1" parent="RMb5vPwJAWPibP_djfCR-175">
          <mxGeometry y="98" width="190" height="26" as="geometry">
            <mxRectangle width="150" height="30" as="alternateBounds" />
          </mxGeometry>
        </mxCell>
        <mxCell id="RMb5vPwJAWPibP_djfCR-179" value="- canvas_data_json" style="shape=partialRectangle;connectable=0;fillColor=none;top=0;left=0;bottom=0;right=0;align=left;spacingLeft=6;overflow=hidden;whiteSpace=wrap;html=1;labelBackgroundColor=none;strokeColor=#788AA3;fontColor=#000000;rounded=1;fontFamily=Georgia;verticalAlign=top;strokeWidth=2;" vertex="1" parent="RMb5vPwJAWPibP_djfCR-175">
          <mxGeometry y="124" width="190" height="26" as="geometry">
            <mxRectangle width="150" height="30" as="alternateBounds" />
          </mxGeometry>
        </mxCell>
        <mxCell id="RMb5vPwJAWPibP_djfCR-180" value="&lt;span&gt;- user_id&lt;/span&gt;" style="shape=partialRectangle;connectable=0;fillColor=none;top=0;left=0;bottom=0;right=0;align=left;spacingLeft=6;overflow=hidden;whiteSpace=wrap;html=1;labelBackgroundColor=none;strokeColor=#788AA3;fontColor=#000000;rounded=1;fontFamily=Georgia;fontStyle=0;verticalAlign=top;strokeWidth=2;" vertex="1" parent="RMb5vPwJAWPibP_djfCR-175">
          <mxGeometry y="150" width="190" height="26" as="geometry">
            <mxRectangle width="150" height="30" as="alternateBounds" />
          </mxGeometry>
        </mxCell>
        <mxCell id="RMb5vPwJAWPibP_djfCR-181" value="- timestmp" style="shape=partialRectangle;connectable=0;fillColor=none;top=0;left=0;bottom=0;right=0;align=left;spacingLeft=6;overflow=hidden;whiteSpace=wrap;html=1;labelBackgroundColor=none;strokeColor=#788AA3;fontColor=#000000;rounded=1;fontFamily=Georgia;verticalAlign=top;strokeWidth=2;" vertex="1" parent="RMb5vPwJAWPibP_djfCR-175">
          <mxGeometry y="176" width="190" height="26" as="geometry">
            <mxRectangle width="150" height="30" as="alternateBounds" />
          </mxGeometry>
        </mxCell>
        <mxCell id="RMb5vPwJAWPibP_djfCR-182" value="" style="line;strokeWidth=2;fillColor=none;align=left;verticalAlign=middle;spacingTop=-1;spacingLeft=3;spacingRight=3;rotatable=0;labelPosition=right;points=[];portConstraint=eastwest;strokeColor=inherit;fontFamily=Georgia;fontColor=#000000;" vertex="1" parent="RMb5vPwJAWPibP_djfCR-175">
          <mxGeometry y="202" width="190" height="8" as="geometry" />
        </mxCell>
        <mxCell id="RMb5vPwJAWPibP_djfCR-183" value="+ getPlaygroundAttributes()" style="shape=partialRectangle;connectable=0;fillColor=none;top=0;left=0;bottom=0;right=0;align=left;spacingLeft=6;overflow=hidden;whiteSpace=wrap;html=1;labelBackgroundColor=none;strokeColor=#788AA3;fontColor=#000000;rounded=1;fontFamily=Georgia;strokeWidth=2;" vertex="1" parent="RMb5vPwJAWPibP_djfCR-175">
          <mxGeometry y="210" width="190" height="26" as="geometry">
            <mxRectangle width="150" height="30" as="alternateBounds" />
          </mxGeometry>
        </mxCell>
        <mxCell id="RMb5vPwJAWPibP_djfCR-184" value="+ updatePlayground()" style="shape=partialRectangle;connectable=0;fillColor=none;top=0;left=0;bottom=0;right=0;align=left;spacingLeft=6;overflow=hidden;whiteSpace=wrap;html=1;labelBackgroundColor=none;strokeColor=#788AA3;fontColor=#000000;rounded=1;fontFamily=Georgia;strokeWidth=2;" vertex="1" parent="RMb5vPwJAWPibP_djfCR-175">
          <mxGeometry y="236" width="190" height="26" as="geometry">
            <mxRectangle width="150" height="30" as="alternateBounds" />
          </mxGeometry>
        </mxCell>
        <mxCell id="RMb5vPwJAWPibP_djfCR-185" value="+ getCanvasDataJSON()" style="shape=partialRectangle;connectable=0;fillColor=none;top=0;left=0;bottom=0;right=0;align=left;spacingLeft=6;overflow=hidden;whiteSpace=wrap;html=1;labelBackgroundColor=none;strokeColor=#788AA3;fontColor=#000000;rounded=1;fontFamily=Georgia;strokeWidth=2;" vertex="1" parent="RMb5vPwJAWPibP_djfCR-175">
          <mxGeometry y="262" width="190" height="26" as="geometry">
            <mxRectangle width="150" height="30" as="alternateBounds" />
          </mxGeometry>
        </mxCell>
        <mxCell id="RMb5vPwJAWPibP_djfCR-186" value="+ getTitle()" style="shape=partialRectangle;connectable=0;fillColor=none;top=0;left=0;bottom=0;right=0;align=left;spacingLeft=6;overflow=hidden;whiteSpace=wrap;html=1;labelBackgroundColor=none;strokeColor=#788AA3;fontColor=#000000;rounded=1;fontFamily=Georgia;strokeWidth=2;" vertex="1" parent="RMb5vPwJAWPibP_djfCR-175">
          <mxGeometry y="288" width="190" height="26" as="geometry">
            <mxRectangle width="150" height="30" as="alternateBounds" />
          </mxGeometry>
        </mxCell>
        <mxCell id="RMb5vPwJAWPibP_djfCR-187" value="+ getTimeSTamps()" style="shape=partialRectangle;connectable=0;fillColor=none;top=0;left=0;bottom=0;right=0;align=left;spacingLeft=6;overflow=hidden;whiteSpace=wrap;html=1;labelBackgroundColor=none;strokeColor=#788AA3;fontColor=#000000;rounded=1;fontFamily=Georgia;strokeWidth=2;" vertex="1" parent="RMb5vPwJAWPibP_djfCR-175">
          <mxGeometry y="314" width="190" height="26" as="geometry">
            <mxRectangle width="150" height="30" as="alternateBounds" />
          </mxGeometry>
        </mxCell>
        <mxCell id="RMb5vPwJAWPibP_djfCR-188" value="+ getUserPlaygrounds(userID)" style="shape=partialRectangle;connectable=0;fillColor=none;top=0;left=0;bottom=0;right=0;align=left;spacingLeft=6;overflow=hidden;whiteSpace=wrap;html=1;labelBackgroundColor=none;strokeColor=#788AA3;fontColor=#000000;rounded=1;fontFamily=Georgia;strokeWidth=2;" vertex="1" parent="RMb5vPwJAWPibP_djfCR-175">
          <mxGeometry y="340" width="190" height="26" as="geometry">
            <mxRectangle width="150" height="30" as="alternateBounds" />
          </mxGeometry>
        </mxCell>
        <mxCell id="RMb5vPwJAWPibP_djfCR-189" value="&lt;span style=&quot;font-weight: normal;&quot;&gt;&lt;i&gt;&amp;lt;&amp;lt;entity&amp;gt;&amp;gt;&lt;br&gt;&lt;/i&gt;&lt;/span&gt;&lt;div&gt;User&lt;/div&gt;" style="swimlane;fontStyle=1;align=center;verticalAlign=top;childLayout=stackLayout;horizontal=1;startSize=40;horizontalStack=0;resizeParent=1;resizeParentMax=0;resizeLast=0;collapsible=1;marginBottom=0;whiteSpace=wrap;html=1;fontFamily=Georgia;fillColor=#d5e8d4;strokeColor=#82b366;rounded=1;strokeWidth=2;" vertex="1" parent="1">
          <mxGeometry x="1231" y="1930" width="217" height="412" as="geometry" />
        </mxCell>
        <mxCell id="RMb5vPwJAWPibP_djfCR-190" value="- user_id" style="shape=partialRectangle;connectable=0;fillColor=none;top=0;left=0;bottom=0;right=0;align=left;spacingLeft=6;fontStyle=0;overflow=hidden;whiteSpace=wrap;html=1;labelBackgroundColor=none;strokeColor=#788AA3;fontColor=#000000;rounded=1;strokeWidth=2;fontFamily=Georgia;" vertex="1" parent="RMb5vPwJAWPibP_djfCR-189">
          <mxGeometry y="40" width="217" height="26" as="geometry">
            <mxRectangle width="150" height="30" as="alternateBounds" />
          </mxGeometry>
        </mxCell>
        <mxCell id="RMb5vPwJAWPibP_djfCR-191" value="- name" style="shape=partialRectangle;connectable=0;fillColor=none;top=0;left=0;bottom=0;right=0;align=left;spacingLeft=6;overflow=hidden;whiteSpace=wrap;html=1;labelBackgroundColor=none;strokeColor=#788AA3;fontColor=#000000;rounded=1;fontFamily=Georgia;fontStyle=0;strokeWidth=2;" vertex="1" parent="RMb5vPwJAWPibP_djfCR-189">
          <mxGeometry y="66" width="217" height="26" as="geometry">
            <mxRectangle width="150" height="30" as="alternateBounds" />
          </mxGeometry>
        </mxCell>
        <mxCell id="RMb5vPwJAWPibP_djfCR-192" value="- image" style="shape=partialRectangle;connectable=0;fillColor=none;top=0;left=0;bottom=0;right=0;align=left;spacingLeft=6;overflow=hidden;whiteSpace=wrap;html=1;labelBackgroundColor=none;strokeColor=#788AA3;fontColor=#000000;rounded=1;fontFamily=Georgia;fontStyle=0;strokeWidth=2;" vertex="1" parent="RMb5vPwJAWPibP_djfCR-189">
          <mxGeometry y="92" width="217" height="26" as="geometry">
            <mxRectangle width="150" height="30" as="alternateBounds" />
          </mxGeometry>
        </mxCell>
        <mxCell id="RMb5vPwJAWPibP_djfCR-193" value="- location" style="shape=partialRectangle;connectable=0;fillColor=none;top=0;left=0;bottom=0;right=0;align=left;spacingLeft=6;overflow=hidden;whiteSpace=wrap;html=1;labelBackgroundColor=none;strokeColor=#788AA3;fontColor=#000000;rounded=1;fontFamily=Georgia;fontStyle=0;strokeWidth=2;" vertex="1" parent="RMb5vPwJAWPibP_djfCR-189">
          <mxGeometry y="118" width="217" height="26" as="geometry">
            <mxRectangle width="150" height="30" as="alternateBounds" />
          </mxGeometry>
        </mxCell>
        <mxCell id="RMb5vPwJAWPibP_djfCR-194" value="- gender" style="shape=partialRectangle;connectable=0;fillColor=none;top=0;left=0;bottom=0;right=0;align=left;spacingLeft=6;overflow=hidden;whiteSpace=wrap;html=1;labelBackgroundColor=none;strokeColor=#788AA3;fontColor=#000000;rounded=1;fontFamily=Georgia;fontStyle=0;strokeWidth=2;" vertex="1" parent="RMb5vPwJAWPibP_djfCR-189">
          <mxGeometry y="144" width="217" height="26" as="geometry">
            <mxRectangle width="150" height="30" as="alternateBounds" />
          </mxGeometry>
        </mxCell>
        <mxCell id="RMb5vPwJAWPibP_djfCR-195" value="- date_of_birth" style="shape=partialRectangle;connectable=0;fillColor=none;top=0;left=0;bottom=0;right=0;align=left;spacingLeft=6;overflow=hidden;whiteSpace=wrap;html=1;labelBackgroundColor=none;strokeColor=#788AA3;fontColor=#000000;rounded=1;fontFamily=Georgia;fontStyle=0;strokeWidth=2;" vertex="1" parent="RMb5vPwJAWPibP_djfCR-189">
          <mxGeometry y="170" width="217" height="26" as="geometry">
            <mxRectangle width="150" height="30" as="alternateBounds" />
          </mxGeometry>
        </mxCell>
        <mxCell id="RMb5vPwJAWPibP_djfCR-196" value="- is_public" style="shape=partialRectangle;connectable=0;fillColor=none;top=0;left=0;bottom=0;right=0;align=left;spacingLeft=6;overflow=hidden;whiteSpace=wrap;html=1;labelBackgroundColor=none;strokeColor=#788AA3;fontColor=#000000;rounded=1;fontFamily=Georgia;fontStyle=0;strokeWidth=2;" vertex="1" parent="RMb5vPwJAWPibP_djfCR-189">
          <mxGeometry y="196" width="217" height="26" as="geometry">
            <mxRectangle width="150" height="30" as="alternateBounds" />
          </mxGeometry>
        </mxCell>
        <mxCell id="RMb5vPwJAWPibP_djfCR-197" value="- authType" style="shape=partialRectangle;connectable=0;fillColor=none;top=0;left=0;bottom=0;right=0;align=left;spacingLeft=6;overflow=hidden;whiteSpace=wrap;html=1;labelBackgroundColor=none;strokeColor=#788AA3;fontColor=#000000;rounded=1;fontFamily=Georgia;fontStyle=0;strokeWidth=2;" vertex="1" parent="RMb5vPwJAWPibP_djfCR-189">
          <mxGeometry y="222" width="217" height="26" as="geometry">
            <mxRectangle width="150" height="30" as="alternateBounds" />
          </mxGeometry>
        </mxCell>
        <mxCell id="RMb5vPwJAWPibP_djfCR-198" value="- loginData" style="shape=partialRectangle;connectable=0;fillColor=none;top=0;left=0;bottom=0;right=0;align=left;spacingLeft=6;overflow=hidden;whiteSpace=wrap;html=1;labelBackgroundColor=none;strokeColor=#788AA3;fontColor=#000000;rounded=1;fontFamily=Georgia;fontStyle=0;strokeWidth=2;" vertex="1" parent="RMb5vPwJAWPibP_djfCR-189">
          <mxGeometry y="248" width="217" height="26" as="geometry">
            <mxRectangle width="150" height="30" as="alternateBounds" />
          </mxGeometry>
        </mxCell>
        <mxCell id="RMb5vPwJAWPibP_djfCR-199" value="" style="line;strokeWidth=2;fillColor=none;align=left;verticalAlign=middle;spacingTop=-1;spacingLeft=3;spacingRight=3;rotatable=0;labelPosition=right;points=[];portConstraint=eastwest;strokeColor=inherit;fontFamily=Georgia;fontColor=#000000;" vertex="1" parent="RMb5vPwJAWPibP_djfCR-189">
          <mxGeometry y="274" width="217" height="8" as="geometry" />
        </mxCell>
        <mxCell id="RMb5vPwJAWPibP_djfCR-200" value="+ newUser(username,loginData,pass)" style="shape=partialRectangle;connectable=0;fillColor=none;top=0;left=0;bottom=0;right=0;align=left;spacingLeft=6;overflow=hidden;whiteSpace=wrap;html=1;labelBackgroundColor=none;strokeColor=#788AA3;fontColor=#000000;rounded=1;fontFamily=Georgia;fontStyle=0;strokeWidth=2;" vertex="1" parent="RMb5vPwJAWPibP_djfCR-189">
          <mxGeometry y="282" width="217" height="26" as="geometry">
            <mxRectangle width="150" height="30" as="alternateBounds" />
          </mxGeometry>
        </mxCell>
        <mxCell id="RMb5vPwJAWPibP_djfCR-201" value="+ checkUser(username,pass)" style="shape=partialRectangle;connectable=0;fillColor=none;top=0;left=0;bottom=0;right=0;align=left;spacingLeft=6;overflow=hidden;whiteSpace=wrap;html=1;labelBackgroundColor=none;strokeColor=#788AA3;fontColor=#000000;rounded=1;fontFamily=Georgia;fontStyle=0;strokeWidth=2;" vertex="1" parent="RMb5vPwJAWPibP_djfCR-189">
          <mxGeometry y="308" width="217" height="26" as="geometry">
            <mxRectangle width="150" height="30" as="alternateBounds" />
          </mxGeometry>
        </mxCell>
        <mxCell id="RMb5vPwJAWPibP_djfCR-202" value="+ changePass(pass)" style="shape=partialRectangle;connectable=0;fillColor=none;top=0;left=0;bottom=0;right=0;align=left;spacingLeft=6;overflow=hidden;whiteSpace=wrap;html=1;labelBackgroundColor=none;strokeColor=#788AA3;fontColor=#000000;rounded=1;fontFamily=Georgia;fontStyle=0;strokeWidth=2;" vertex="1" parent="RMb5vPwJAWPibP_djfCR-189">
          <mxGeometry y="334" width="217" height="26" as="geometry">
            <mxRectangle width="150" height="30" as="alternateBounds" />
          </mxGeometry>
        </mxCell>
        <mxCell id="RMb5vPwJAWPibP_djfCR-203" value="+ updateUserInfo(data)" style="shape=partialRectangle;connectable=0;fillColor=none;top=0;left=0;bottom=0;right=0;align=left;spacingLeft=6;overflow=hidden;whiteSpace=wrap;html=1;labelBackgroundColor=none;strokeColor=#788AA3;fontColor=#000000;rounded=1;fontFamily=Georgia;fontStyle=0;strokeWidth=2;" vertex="1" parent="RMb5vPwJAWPibP_djfCR-189">
          <mxGeometry y="360" width="217" height="26" as="geometry">
            <mxRectangle width="150" height="30" as="alternateBounds" />
          </mxGeometry>
        </mxCell>
        <mxCell id="RMb5vPwJAWPibP_djfCR-204" value="+ deleteUser(user_id)" style="shape=partialRectangle;connectable=0;fillColor=none;top=0;left=0;bottom=0;right=0;align=left;spacingLeft=6;overflow=hidden;whiteSpace=wrap;html=1;labelBackgroundColor=none;strokeColor=#788AA3;fontColor=#000000;rounded=1;fontFamily=Georgia;fontStyle=0;strokeWidth=2;" vertex="1" parent="RMb5vPwJAWPibP_djfCR-189">
          <mxGeometry y="386" width="217" height="26" as="geometry">
            <mxRectangle width="150" height="30" as="alternateBounds" />
          </mxGeometry>
        </mxCell>
        <mxCell id="RMb5vPwJAWPibP_djfCR-205" value="&lt;div&gt;&lt;span style=&quot;font-weight: normal;&quot;&gt;&lt;i&gt;&amp;lt;&amp;lt;boundary&amp;gt;&amp;gt;&lt;/i&gt;&lt;/span&gt;&lt;/div&gt;&lt;div&gt;KnapsackUI&lt;/div&gt;" style="swimlane;fontStyle=1;align=center;verticalAlign=top;childLayout=stackLayout;horizontal=1;startSize=40;horizontalStack=0;resizeParent=1;resizeParentMax=0;resizeLast=0;collapsible=1;marginBottom=0;whiteSpace=wrap;html=1;rounded=1;fillColor=#e1d5e7;strokeColor=#9673a6;fontFamily=Georgia;strokeWidth=2;" vertex="1" parent="1">
          <mxGeometry x="660" y="3010" width="167" height="196" as="geometry" />
        </mxCell>
        <mxCell id="RMb5vPwJAWPibP_djfCR-206" value="&lt;div&gt;&lt;br&gt;&lt;/div&gt;&lt;div&gt;&lt;br&gt;&lt;/div&gt;" style="text;strokeColor=#9673a6;fillColor=#e1d5e7;align=left;verticalAlign=top;spacingLeft=4;spacingRight=4;overflow=hidden;rotatable=0;points=[[0,0.5],[1,0.5]];portConstraint=eastwest;whiteSpace=wrap;html=1;fontFamily=Georgia;strokeWidth=2;" vertex="1" parent="RMb5vPwJAWPibP_djfCR-205">
          <mxGeometry y="40" width="167" height="26" as="geometry" />
        </mxCell>
        <mxCell id="RMb5vPwJAWPibP_djfCR-207" value="+ setKnapsackCapacity()" style="text;strokeColor=#9673a6;fillColor=#e1d5e7;align=left;verticalAlign=top;spacingLeft=4;spacingRight=4;overflow=hidden;rotatable=0;points=[[0,0.5],[1,0.5]];portConstraint=eastwest;whiteSpace=wrap;html=1;fontFamily=Georgia;strokeWidth=2;" vertex="1" parent="RMb5vPwJAWPibP_djfCR-205">
          <mxGeometry y="66" width="167" height="26" as="geometry" />
        </mxCell>
        <mxCell id="RMb5vPwJAWPibP_djfCR-208" value="+ addItem()" style="text;strokeColor=#9673a6;fillColor=#e1d5e7;align=left;verticalAlign=top;spacingLeft=4;spacingRight=4;overflow=hidden;rotatable=0;points=[[0,0.5],[1,0.5]];portConstraint=eastwest;whiteSpace=wrap;html=1;fontFamily=Georgia;strokeWidth=2;" vertex="1" parent="RMb5vPwJAWPibP_djfCR-205">
          <mxGeometry y="92" width="167" height="26" as="geometry" />
        </mxCell>
        <mxCell id="RMb5vPwJAWPibP_djfCR-209" value="+ deleteItem()" style="text;strokeColor=#9673a6;fillColor=#e1d5e7;align=left;verticalAlign=top;spacingLeft=4;spacingRight=4;overflow=hidden;rotatable=0;points=[[0,0.5],[1,0.5]];portConstraint=eastwest;whiteSpace=wrap;html=1;fontFamily=Georgia;strokeWidth=2;" vertex="1" parent="RMb5vPwJAWPibP_djfCR-205">
          <mxGeometry y="118" width="167" height="26" as="geometry" />
        </mxCell>
        <mxCell id="RMb5vPwJAWPibP_djfCR-210" value="+ dragItem()" style="text;strokeColor=#9673a6;fillColor=#e1d5e7;align=left;verticalAlign=top;spacingLeft=4;spacingRight=4;overflow=hidden;rotatable=0;points=[[0,0.5],[1,0.5]];portConstraint=eastwest;whiteSpace=wrap;html=1;fontFamily=Georgia;strokeWidth=2;" vertex="1" parent="RMb5vPwJAWPibP_djfCR-205">
          <mxGeometry y="144" width="167" height="26" as="geometry" />
        </mxCell>
        <mxCell id="RMb5vPwJAWPibP_djfCR-211" value="+ dropItem()" style="text;strokeColor=#9673a6;fillColor=#e1d5e7;align=left;verticalAlign=top;spacingLeft=4;spacingRight=4;overflow=hidden;rotatable=0;points=[[0,0.5],[1,0.5]];portConstraint=eastwest;whiteSpace=wrap;html=1;fontFamily=Georgia;strokeWidth=2;" vertex="1" parent="RMb5vPwJAWPibP_djfCR-205">
          <mxGeometry y="170" width="167" height="26" as="geometry" />
        </mxCell>
        <mxCell id="RMb5vPwJAWPibP_djfCR-212" value="&lt;div&gt;&lt;span style=&quot;font-weight: normal;&quot;&gt;&lt;i&gt;&amp;lt;&amp;lt;boundary&amp;gt;&amp;gt;&lt;/i&gt;&lt;/span&gt;&lt;/div&gt;&lt;div&gt;CardsUI&lt;/div&gt;" style="swimlane;fontStyle=1;align=center;verticalAlign=top;childLayout=stackLayout;horizontal=1;startSize=40;horizontalStack=0;resizeParent=1;resizeParentMax=0;resizeLast=0;collapsible=1;marginBottom=0;whiteSpace=wrap;html=1;rounded=1;fillColor=#e1d5e7;strokeColor=#9673a6;fontFamily=Georgia;strokeWidth=2;" vertex="1" parent="1">
          <mxGeometry x="850" y="3010" width="160" height="222" as="geometry" />
        </mxCell>
        <mxCell id="RMb5vPwJAWPibP_djfCR-213" value="&lt;div&gt;&lt;br&gt;&lt;/div&gt;&lt;div&gt;&lt;br&gt;&lt;/div&gt;" style="text;strokeColor=#9673a6;fillColor=#e1d5e7;align=left;verticalAlign=top;spacingLeft=4;spacingRight=4;overflow=hidden;rotatable=0;points=[[0,0.5],[1,0.5]];portConstraint=eastwest;whiteSpace=wrap;html=1;fontFamily=Georgia;strokeWidth=2;" vertex="1" parent="RMb5vPwJAWPibP_djfCR-212">
          <mxGeometry y="40" width="160" height="26" as="geometry" />
        </mxCell>
        <mxCell id="RMb5vPwJAWPibP_djfCR-214" value="+ addCard()" style="text;strokeColor=#9673a6;fillColor=#e1d5e7;align=left;verticalAlign=top;spacingLeft=4;spacingRight=4;overflow=hidden;rotatable=0;points=[[0,0.5],[1,0.5]];portConstraint=eastwest;whiteSpace=wrap;html=1;fontFamily=Georgia;strokeWidth=2;" vertex="1" parent="RMb5vPwJAWPibP_djfCR-212">
          <mxGeometry y="66" width="160" height="26" as="geometry" />
        </mxCell>
        <mxCell id="RMb5vPwJAWPibP_djfCR-215" value="+ deleteCard()" style="text;strokeColor=#9673a6;fillColor=#e1d5e7;align=left;verticalAlign=top;spacingLeft=4;spacingRight=4;overflow=hidden;rotatable=0;points=[[0,0.5],[1,0.5]];portConstraint=eastwest;whiteSpace=wrap;html=1;fontFamily=Georgia;strokeWidth=2;" vertex="1" parent="RMb5vPwJAWPibP_djfCR-212">
          <mxGeometry y="92" width="160" height="26" as="geometry" />
        </mxCell>
        <mxCell id="RMb5vPwJAWPibP_djfCR-216" value="+ dragCard()" style="text;strokeColor=#9673a6;fillColor=#e1d5e7;align=left;verticalAlign=top;spacingLeft=4;spacingRight=4;overflow=hidden;rotatable=0;points=[[0,0.5],[1,0.5]];portConstraint=eastwest;whiteSpace=wrap;html=1;fontFamily=Georgia;strokeWidth=2;" vertex="1" parent="RMb5vPwJAWPibP_djfCR-212">
          <mxGeometry y="118" width="160" height="26" as="geometry" />
        </mxCell>
        <mxCell id="RMb5vPwJAWPibP_djfCR-217" value="+ dropCard()" style="text;strokeColor=#9673a6;fillColor=#e1d5e7;align=left;verticalAlign=top;spacingLeft=4;spacingRight=4;overflow=hidden;rotatable=0;points=[[0,0.5],[1,0.5]];portConstraint=eastwest;whiteSpace=wrap;html=1;fontFamily=Georgia;strokeWidth=2;" vertex="1" parent="RMb5vPwJAWPibP_djfCR-212">
          <mxGeometry y="144" width="160" height="26" as="geometry" />
        </mxCell>
        <mxCell id="RMb5vPwJAWPibP_djfCR-218" value="+ swapCards()" style="text;strokeColor=#9673a6;fillColor=#e1d5e7;align=left;verticalAlign=top;spacingLeft=4;spacingRight=4;overflow=hidden;rotatable=0;points=[[0,0.5],[1,0.5]];portConstraint=eastwest;whiteSpace=wrap;html=1;fontFamily=Georgia;strokeWidth=2;" vertex="1" parent="RMb5vPwJAWPibP_djfCR-212">
          <mxGeometry y="170" width="160" height="26" as="geometry" />
        </mxCell>
        <mxCell id="RMb5vPwJAWPibP_djfCR-219" value="+ flipCard()" style="text;strokeColor=#9673a6;fillColor=#e1d5e7;align=left;verticalAlign=top;spacingLeft=4;spacingRight=4;overflow=hidden;rotatable=0;points=[[0,0.5],[1,0.5]];portConstraint=eastwest;whiteSpace=wrap;html=1;fontFamily=Georgia;strokeWidth=2;" vertex="1" parent="RMb5vPwJAWPibP_djfCR-212">
          <mxGeometry y="196" width="160" height="26" as="geometry" />
        </mxCell>
        <mxCell id="RMb5vPwJAWPibP_djfCR-220" value="&amp;lt;&amp;lt;boundary&amp;gt;&amp;gt;&lt;br&gt;&lt;div&gt;DashboardUI&lt;/div&gt;" style="swimlane;fontStyle=1;align=center;verticalAlign=top;childLayout=stackLayout;horizontal=1;startSize=40;horizontalStack=0;resizeParent=1;resizeParentMax=0;resizeLast=0;collapsible=1;marginBottom=0;whiteSpace=wrap;html=1;fillColor=#dae8fc;strokeColor=#6c8ebf;rounded=1;fontFamily=Georgia;strokeWidth=2;" vertex="1" parent="1">
          <mxGeometry x="188" y="2410" width="270" height="204" as="geometry" />
        </mxCell>
        <mxCell id="RMb5vPwJAWPibP_djfCR-221" value="&lt;br&gt;" style="text;strokeColor=none;fillColor=none;align=left;verticalAlign=top;spacingLeft=4;spacingRight=4;overflow=hidden;rotatable=0;points=[[0,0.5],[1,0.5]];portConstraint=eastwest;whiteSpace=wrap;html=1;fontFamily=Georgia;fontColor=#000000;strokeWidth=2;" vertex="1" parent="RMb5vPwJAWPibP_djfCR-220">
          <mxGeometry y="40" width="270" height="26" as="geometry" />
        </mxCell>
        <mxCell id="RMb5vPwJAWPibP_djfCR-222" value="" style="line;strokeWidth=2;fillColor=none;align=left;verticalAlign=middle;spacingTop=-1;spacingLeft=3;spacingRight=3;rotatable=0;labelPosition=right;points=[];portConstraint=eastwest;strokeColor=inherit;fontFamily=Georgia;fontColor=#000000;" vertex="1" parent="RMb5vPwJAWPibP_djfCR-220">
          <mxGeometry y="66" width="270" height="8" as="geometry" />
        </mxCell>
        <mxCell id="RMb5vPwJAWPibP_djfCR-223" value="+ viewUserRatingRank(ranking, userId)" style="text;strokeColor=none;fillColor=none;align=left;verticalAlign=top;spacingLeft=4;spacingRight=4;overflow=hidden;rotatable=0;points=[[0,0.5],[1,0.5]];portConstraint=eastwest;whiteSpace=wrap;html=1;fontFamily=Georgia;fontColor=#000000;strokeWidth=2;" vertex="1" parent="RMb5vPwJAWPibP_djfCR-220">
          <mxGeometry y="74" width="270" height="26" as="geometry" />
        </mxCell>
        <mxCell id="RMb5vPwJAWPibP_djfCR-224" value="+ viewUserStats(stats, userId)" style="text;strokeColor=none;fillColor=none;align=left;verticalAlign=top;spacingLeft=4;spacingRight=4;overflow=hidden;rotatable=0;points=[[0,0.5],[1,0.5]];portConstraint=eastwest;whiteSpace=wrap;html=1;fontFamily=Georgia;fontColor=#000000;strokeWidth=2;" vertex="1" parent="RMb5vPwJAWPibP_djfCR-220">
          <mxGeometry y="100" width="270" height="26" as="geometry" />
        </mxCell>
        <mxCell id="RMb5vPwJAWPibP_djfCR-225" value="+ viewHeatMap(heatmapData,userID)" style="text;strokeColor=none;fillColor=none;align=left;verticalAlign=top;spacingLeft=4;spacingRight=4;overflow=hidden;rotatable=0;points=[[0,0.5],[1,0.5]];portConstraint=eastwest;whiteSpace=wrap;html=1;fontFamily=Georgia;fontColor=#000000;strokeWidth=2;" vertex="1" parent="RMb5vPwJAWPibP_djfCR-220">
          <mxGeometry y="126" width="270" height="26" as="geometry" />
        </mxCell>
        <mxCell id="RMb5vPwJAWPibP_djfCR-226" value="+ viewUserPlaygrounds(playgrounds, userID)" style="text;strokeColor=none;fillColor=none;align=left;verticalAlign=top;spacingLeft=4;spacingRight=4;overflow=hidden;rotatable=0;points=[[0,0.5],[1,0.5]];portConstraint=eastwest;whiteSpace=wrap;html=1;fontFamily=Georgia;fontColor=#000000;strokeWidth=2;" vertex="1" parent="RMb5vPwJAWPibP_djfCR-220">
          <mxGeometry y="152" width="270" height="26" as="geometry" />
        </mxCell>
        <mxCell id="RMb5vPwJAWPibP_djfCR-227" value="+ viewUserSubmissions(submissions, userID)" style="text;strokeColor=none;fillColor=none;align=left;verticalAlign=top;spacingLeft=4;spacingRight=4;overflow=hidden;rotatable=0;points=[[0,0.5],[1,0.5]];portConstraint=eastwest;whiteSpace=wrap;html=1;fontFamily=Georgia;fontColor=#000000;strokeWidth=2;" vertex="1" parent="RMb5vPwJAWPibP_djfCR-220">
          <mxGeometry y="178" width="270" height="26" as="geometry" />
        </mxCell>
        <mxCell id="RMb5vPwJAWPibP_djfCR-228" value="&amp;lt;&amp;lt;controller&amp;gt;&lt;br&gt;&lt;div&gt;Dashboard&lt;/div&gt;" style="swimlane;fontStyle=1;align=center;verticalAlign=top;childLayout=stackLayout;horizontal=1;startSize=40;horizontalStack=0;resizeParent=1;resizeParentMax=0;resizeLast=0;collapsible=1;marginBottom=0;whiteSpace=wrap;html=1;fillColor=#dae8fc;strokeColor=#6c8ebf;rounded=1;fontFamily=Georgia;strokeWidth=2;" vertex="1" parent="1">
          <mxGeometry x="482" y="2410" width="210" height="204" as="geometry" />
        </mxCell>
        <mxCell id="RMb5vPwJAWPibP_djfCR-229" value="&lt;br&gt;" style="text;strokeColor=none;fillColor=none;align=left;verticalAlign=top;spacingLeft=4;spacingRight=4;overflow=hidden;rotatable=0;points=[[0,0.5],[1,0.5]];portConstraint=eastwest;whiteSpace=wrap;html=1;fontFamily=Georgia;fontColor=#000000;strokeWidth=2;" vertex="1" parent="RMb5vPwJAWPibP_djfCR-228">
          <mxGeometry y="40" width="210" height="26" as="geometry" />
        </mxCell>
        <mxCell id="RMb5vPwJAWPibP_djfCR-230" value="" style="line;strokeWidth=2;fillColor=none;align=left;verticalAlign=middle;spacingTop=-1;spacingLeft=3;spacingRight=3;rotatable=0;labelPosition=right;points=[];portConstraint=eastwest;strokeColor=inherit;fontFamily=Georgia;fontColor=#000000;" vertex="1" parent="RMb5vPwJAWPibP_djfCR-228">
          <mxGeometry y="66" width="210" height="8" as="geometry" />
        </mxCell>
        <mxCell id="RMb5vPwJAWPibP_djfCR-231" value="+ retrieveUserRatingRank(userID)" style="text;strokeColor=none;fillColor=none;align=left;verticalAlign=top;spacingLeft=4;spacingRight=4;overflow=hidden;rotatable=0;points=[[0,0.5],[1,0.5]];portConstraint=eastwest;whiteSpace=wrap;html=1;fontFamily=Georgia;fontColor=#000000;strokeWidth=2;" vertex="1" parent="RMb5vPwJAWPibP_djfCR-228">
          <mxGeometry y="74" width="210" height="26" as="geometry" />
        </mxCell>
        <mxCell id="RMb5vPwJAWPibP_djfCR-232" value="+ retrieveUserStats(userId)" style="text;strokeColor=none;fillColor=none;align=left;verticalAlign=top;spacingLeft=4;spacingRight=4;overflow=hidden;rotatable=0;points=[[0,0.5],[1,0.5]];portConstraint=eastwest;whiteSpace=wrap;html=1;fontFamily=Georgia;fontColor=#000000;strokeWidth=2;" vertex="1" parent="RMb5vPwJAWPibP_djfCR-228">
          <mxGeometry y="100" width="210" height="26" as="geometry" />
        </mxCell>
        <mxCell id="RMb5vPwJAWPibP_djfCR-233" value="+ retrieveHeatMap(userId)" style="text;strokeColor=none;fillColor=none;align=left;verticalAlign=top;spacingLeft=4;spacingRight=4;overflow=hidden;rotatable=0;points=[[0,0.5],[1,0.5]];portConstraint=eastwest;whiteSpace=wrap;html=1;fontFamily=Georgia;fontColor=#000000;strokeWidth=2;" vertex="1" parent="RMb5vPwJAWPibP_djfCR-228">
          <mxGeometry y="126" width="210" height="26" as="geometry" />
        </mxCell>
        <mxCell id="RMb5vPwJAWPibP_djfCR-234" value="+ retrieveUserPlaygrounds(userId)" style="text;strokeColor=none;fillColor=none;align=left;verticalAlign=top;spacingLeft=4;spacingRight=4;overflow=hidden;rotatable=0;points=[[0,0.5],[1,0.5]];portConstraint=eastwest;whiteSpace=wrap;html=1;fontFamily=Georgia;fontColor=#000000;strokeWidth=2;" vertex="1" parent="RMb5vPwJAWPibP_djfCR-228">
          <mxGeometry y="152" width="210" height="26" as="geometry" />
        </mxCell>
        <mxCell id="RMb5vPwJAWPibP_djfCR-235" value="+ retrieveUserSubmissions(userId)" style="text;strokeColor=none;fillColor=none;align=left;verticalAlign=top;spacingLeft=4;spacingRight=4;overflow=hidden;rotatable=0;points=[[0,0.5],[1,0.5]];portConstraint=eastwest;whiteSpace=wrap;html=1;fontFamily=Georgia;fontColor=#000000;strokeWidth=2;" vertex="1" parent="RMb5vPwJAWPibP_djfCR-228">
          <mxGeometry y="178" width="210" height="26" as="geometry" />
        </mxCell>
        <mxCell id="RMb5vPwJAWPibP_djfCR-236" value="&amp;lt;&amp;lt;boundary&amp;gt;&amp;gt;&lt;br&gt;&lt;div&gt;AI_AssistanceUI&lt;/div&gt;" style="swimlane;fontStyle=1;align=center;verticalAlign=top;childLayout=stackLayout;horizontal=1;startSize=40;horizontalStack=0;resizeParent=1;resizeParentMax=0;resizeLast=0;collapsible=1;marginBottom=0;whiteSpace=wrap;html=1;fillColor=#d5e8d4;strokeColor=#82b366;rounded=1;strokeWidth=2;fontFamily=Georgia;" vertex="1" parent="1">
          <mxGeometry x="670" y="2073" width="202" height="152" as="geometry" />
        </mxCell>
        <mxCell id="RMb5vPwJAWPibP_djfCR-237" value="&lt;br&gt;" style="text;strokeColor=none;fillColor=none;align=left;verticalAlign=top;spacingLeft=4;spacingRight=4;overflow=hidden;rotatable=0;points=[[0,0.5],[1,0.5]];portConstraint=eastwest;whiteSpace=wrap;html=1;strokeWidth=2;fontFamily=Georgia;fontColor=#000000;" vertex="1" parent="RMb5vPwJAWPibP_djfCR-236">
          <mxGeometry y="40" width="202" height="26" as="geometry" />
        </mxCell>
        <mxCell id="RMb5vPwJAWPibP_djfCR-238" value="" style="line;strokeWidth=2;fillColor=none;align=left;verticalAlign=middle;spacingTop=-1;spacingLeft=3;spacingRight=3;rotatable=0;labelPosition=right;points=[];portConstraint=eastwest;strokeColor=inherit;fontFamily=Georgia;fontColor=#000000;" vertex="1" parent="RMb5vPwJAWPibP_djfCR-236">
          <mxGeometry y="66" width="202" height="8" as="geometry" />
        </mxCell>
        <mxCell id="RMb5vPwJAWPibP_djfCR-239" value="+ viewChatInterface()" style="text;strokeColor=none;fillColor=none;align=left;verticalAlign=top;spacingLeft=4;spacingRight=4;overflow=hidden;rotatable=0;points=[[0,0.5],[1,0.5]];portConstraint=eastwest;whiteSpace=wrap;html=1;strokeWidth=2;fontFamily=Georgia;fontColor=#000000;" vertex="1" parent="RMb5vPwJAWPibP_djfCR-236">
          <mxGeometry y="74" width="202" height="26" as="geometry" />
        </mxCell>
        <mxCell id="RMb5vPwJAWPibP_djfCR-240" value="+ viewChatHistory(history, userID)" style="text;strokeColor=none;fillColor=none;align=left;verticalAlign=top;spacingLeft=4;spacingRight=4;overflow=hidden;rotatable=0;points=[[0,0.5],[1,0.5]];portConstraint=eastwest;whiteSpace=wrap;html=1;strokeWidth=2;fontFamily=Georgia;fontColor=#000000;" vertex="1" parent="RMb5vPwJAWPibP_djfCR-236">
          <mxGeometry y="100" width="202" height="26" as="geometry" />
        </mxCell>
        <mxCell id="RMb5vPwJAWPibP_djfCR-241" value="+ prompt()" style="text;strokeColor=none;fillColor=none;align=left;verticalAlign=top;spacingLeft=4;spacingRight=4;overflow=hidden;rotatable=0;points=[[0,0.5],[1,0.5]];portConstraint=eastwest;whiteSpace=wrap;html=1;strokeWidth=2;fontFamily=Georgia;fontColor=#000000;" vertex="1" parent="RMb5vPwJAWPibP_djfCR-236">
          <mxGeometry y="126" width="202" height="26" as="geometry" />
        </mxCell>
        <mxCell id="RMb5vPwJAWPibP_djfCR-242" value="&amp;lt;&amp;lt;controller&amp;gt;&amp;gt;&lt;br&gt;&lt;div&gt;AI_Assistance&lt;/div&gt;" style="swimlane;fontStyle=1;align=center;verticalAlign=top;childLayout=stackLayout;horizontal=1;startSize=40;horizontalStack=0;resizeParent=1;resizeParentMax=0;resizeLast=0;collapsible=1;marginBottom=0;whiteSpace=wrap;html=1;fillColor=#d5e8d4;strokeColor=#82b366;rounded=1;strokeWidth=2;fontFamily=Georgia;" vertex="1" parent="1">
          <mxGeometry x="935" y="2070" width="176" height="152" as="geometry" />
        </mxCell>
        <mxCell id="RMb5vPwJAWPibP_djfCR-243" value="&lt;br&gt;" style="text;strokeColor=none;fillColor=none;align=left;verticalAlign=top;spacingLeft=4;spacingRight=4;overflow=hidden;rotatable=0;points=[[0,0.5],[1,0.5]];portConstraint=eastwest;whiteSpace=wrap;html=1;strokeWidth=2;fontFamily=Georgia;fontColor=#000000;" vertex="1" parent="RMb5vPwJAWPibP_djfCR-242">
          <mxGeometry y="40" width="176" height="26" as="geometry" />
        </mxCell>
        <mxCell id="RMb5vPwJAWPibP_djfCR-244" value="" style="line;strokeWidth=2;fillColor=none;align=left;verticalAlign=middle;spacingTop=-1;spacingLeft=3;spacingRight=3;rotatable=0;labelPosition=right;points=[];portConstraint=eastwest;strokeColor=inherit;fontFamily=Georgia;fontColor=#000000;" vertex="1" parent="RMb5vPwJAWPibP_djfCR-242">
          <mxGeometry y="66" width="176" height="8" as="geometry" />
        </mxCell>
        <mxCell id="RMb5vPwJAWPibP_djfCR-245" value="+ retrieveChatHistory(userID)" style="text;strokeColor=none;fillColor=none;align=left;verticalAlign=top;spacingLeft=4;spacingRight=4;overflow=hidden;rotatable=0;points=[[0,0.5],[1,0.5]];portConstraint=eastwest;whiteSpace=wrap;html=1;strokeWidth=2;fontFamily=Georgia;fontColor=#000000;" vertex="1" parent="RMb5vPwJAWPibP_djfCR-242">
          <mxGeometry y="74" width="176" height="26" as="geometry" />
        </mxCell>
        <mxCell id="RMb5vPwJAWPibP_djfCR-246" value="+ generateResponse()" style="text;strokeColor=none;fillColor=none;align=left;verticalAlign=top;spacingLeft=4;spacingRight=4;overflow=hidden;rotatable=0;points=[[0,0.5],[1,0.5]];portConstraint=eastwest;whiteSpace=wrap;html=1;strokeWidth=2;fontFamily=Georgia;fontColor=#000000;" vertex="1" parent="RMb5vPwJAWPibP_djfCR-242">
          <mxGeometry y="100" width="176" height="26" as="geometry" />
        </mxCell>
        <mxCell id="RMb5vPwJAWPibP_djfCR-247" value="+ saveResponse(response)" style="text;strokeColor=none;fillColor=none;align=left;verticalAlign=top;spacingLeft=4;spacingRight=4;overflow=hidden;rotatable=0;points=[[0,0.5],[1,0.5]];portConstraint=eastwest;whiteSpace=wrap;html=1;strokeWidth=2;fontFamily=Georgia;fontColor=#000000;" vertex="1" parent="RMb5vPwJAWPibP_djfCR-242">
          <mxGeometry y="126" width="176" height="26" as="geometry" />
        </mxCell>
        <mxCell id="RMb5vPwJAWPibP_djfCR-248" value="&amp;lt;&amp;lt;enitity&amp;gt;&amp;gt;&lt;br&gt;&lt;div&gt;Chat&lt;/div&gt;" style="swimlane;fontStyle=1;align=center;verticalAlign=top;childLayout=stackLayout;horizontal=1;startSize=40;horizontalStack=0;resizeParent=1;resizeParentMax=0;resizeLast=0;collapsible=1;marginBottom=0;whiteSpace=wrap;html=1;fillColor=#d5e8d4;strokeColor=#82b366;rounded=1;strokeWidth=2;fontFamily=Georgia;" vertex="1" parent="1">
          <mxGeometry x="471" y="2073" width="160" height="204" as="geometry" />
        </mxCell>
        <mxCell id="RMb5vPwJAWPibP_djfCR-249" value="- chat_id" style="shape=partialRectangle;connectable=0;fillColor=none;top=0;left=0;bottom=0;right=0;align=left;spacingLeft=6;fontStyle=0;overflow=hidden;whiteSpace=wrap;html=1;labelBackgroundColor=none;strokeColor=#457B9D;fontColor=#000000;rounded=1;strokeWidth=2;fontFamily=Georgia;" vertex="1" parent="RMb5vPwJAWPibP_djfCR-248">
          <mxGeometry y="40" width="160" height="26" as="geometry">
            <mxRectangle width="150" height="30" as="alternateBounds" />
          </mxGeometry>
        </mxCell>
        <mxCell id="RMb5vPwJAWPibP_djfCR-250" value="&lt;span&gt;- user_id&lt;/span&gt;" style="shape=partialRectangle;connectable=0;fillColor=none;top=0;left=0;bottom=0;right=0;align=left;spacingLeft=6;overflow=hidden;whiteSpace=wrap;html=1;labelBackgroundColor=none;strokeColor=#788AA3;fontColor=#000000;rounded=1;strokeWidth=2;fontFamily=Georgia;fontStyle=0" vertex="1" parent="RMb5vPwJAWPibP_djfCR-248">
          <mxGeometry y="66" width="160" height="26" as="geometry">
            <mxRectangle width="150" height="30" as="alternateBounds" />
          </mxGeometry>
        </mxCell>
        <mxCell id="RMb5vPwJAWPibP_djfCR-251" value="- title" style="shape=partialRectangle;connectable=0;fillColor=none;top=0;left=0;bottom=0;right=0;align=left;spacingLeft=6;overflow=hidden;whiteSpace=wrap;html=1;labelBackgroundColor=none;strokeColor=#788AA3;fontColor=#000000;rounded=1;fontFamily=Georgia;fontStyle=0;strokeWidth=2;" vertex="1" parent="RMb5vPwJAWPibP_djfCR-248">
          <mxGeometry y="92" width="160" height="26" as="geometry">
            <mxRectangle width="150" height="30" as="alternateBounds" />
          </mxGeometry>
        </mxCell>
        <mxCell id="RMb5vPwJAWPibP_djfCR-252" value="- timeStamp" style="shape=partialRectangle;connectable=0;fillColor=none;top=0;left=0;bottom=0;right=0;align=left;spacingLeft=6;overflow=hidden;whiteSpace=wrap;html=1;labelBackgroundColor=none;strokeColor=#788AA3;fontColor=#000000;rounded=1;fontFamily=Georgia;fontStyle=0;strokeWidth=2;" vertex="1" parent="RMb5vPwJAWPibP_djfCR-248">
          <mxGeometry y="118" width="160" height="26" as="geometry">
            <mxRectangle width="150" height="30" as="alternateBounds" />
          </mxGeometry>
        </mxCell>
        <mxCell id="RMb5vPwJAWPibP_djfCR-253" value="" style="line;strokeWidth=2;fillColor=none;align=left;verticalAlign=middle;spacingTop=-1;spacingLeft=3;spacingRight=3;rotatable=0;labelPosition=right;points=[];portConstraint=eastwest;strokeColor=inherit;fontFamily=Georgia;fontColor=#000000;" vertex="1" parent="RMb5vPwJAWPibP_djfCR-248">
          <mxGeometry y="144" width="160" height="8" as="geometry" />
        </mxCell>
        <mxCell id="RMb5vPwJAWPibP_djfCR-254" value="+ getChatAttributes()" style="text;strokeColor=none;fillColor=none;align=left;verticalAlign=top;spacingLeft=4;spacingRight=4;overflow=hidden;rotatable=0;points=[[0,0.5],[1,0.5]];portConstraint=eastwest;whiteSpace=wrap;html=1;strokeWidth=2;fontFamily=Georgia;fontColor=#000000;" vertex="1" parent="RMb5vPwJAWPibP_djfCR-248">
          <mxGeometry y="152" width="160" height="26" as="geometry" />
        </mxCell>
        <mxCell id="RMb5vPwJAWPibP_djfCR-255" value="+ insertChat()" style="text;strokeColor=none;fillColor=none;align=left;verticalAlign=top;spacingLeft=4;spacingRight=4;overflow=hidden;rotatable=0;points=[[0,0.5],[1,0.5]];portConstraint=eastwest;whiteSpace=wrap;html=1;strokeWidth=2;fontFamily=Georgia;fontColor=#000000;" vertex="1" parent="RMb5vPwJAWPibP_djfCR-248">
          <mxGeometry y="178" width="160" height="26" as="geometry" />
        </mxCell>
        <mxCell id="RMb5vPwJAWPibP_djfCR-256" value="&amp;lt;&amp;lt;entity&amp;gt;&amp;gt;&lt;br&gt;&lt;div&gt;Prompt&lt;/div&gt;" style="swimlane;fontStyle=1;align=center;verticalAlign=top;childLayout=stackLayout;horizontal=1;startSize=40;horizontalStack=0;resizeParent=1;resizeParentMax=0;resizeLast=0;collapsible=1;marginBottom=0;whiteSpace=wrap;html=1;rounded=1;fillColor=#d5e8d4;strokeColor=#82b366;strokeWidth=2;fontFamily=Georgia;" vertex="1" parent="1">
          <mxGeometry x="271" y="2070" width="160" height="204" as="geometry" />
        </mxCell>
        <mxCell id="RMb5vPwJAWPibP_djfCR-257" value="- prompt_id" style="text;strokeColor=none;fillColor=none;align=left;verticalAlign=top;spacingLeft=4;spacingRight=4;overflow=hidden;rotatable=0;points=[[0,0.5],[1,0.5]];portConstraint=eastwest;whiteSpace=wrap;html=1;strokeWidth=2;fontFamily=Georgia;fontColor=#000000;" vertex="1" parent="RMb5vPwJAWPibP_djfCR-256">
          <mxGeometry y="40" width="160" height="26" as="geometry" />
        </mxCell>
        <mxCell id="RMb5vPwJAWPibP_djfCR-258" value="- chat_id" style="text;strokeColor=none;fillColor=none;align=left;verticalAlign=top;spacingLeft=4;spacingRight=4;overflow=hidden;rotatable=0;points=[[0,0.5],[1,0.5]];portConstraint=eastwest;whiteSpace=wrap;html=1;strokeWidth=2;fontFamily=Georgia;fontColor=#000000;" vertex="1" parent="RMb5vPwJAWPibP_djfCR-256">
          <mxGeometry y="66" width="160" height="26" as="geometry" />
        </mxCell>
        <mxCell id="RMb5vPwJAWPibP_djfCR-259" value="- response" style="text;strokeColor=none;fillColor=none;align=left;verticalAlign=top;spacingLeft=4;spacingRight=4;overflow=hidden;rotatable=0;points=[[0,0.5],[1,0.5]];portConstraint=eastwest;whiteSpace=wrap;html=1;strokeWidth=2;fontFamily=Georgia;fontColor=#000000;" vertex="1" parent="RMb5vPwJAWPibP_djfCR-256">
          <mxGeometry y="92" width="160" height="26" as="geometry" />
        </mxCell>
        <mxCell id="RMb5vPwJAWPibP_djfCR-260" value="- timeStamp" style="text;strokeColor=none;fillColor=none;align=left;verticalAlign=top;spacingLeft=4;spacingRight=4;overflow=hidden;rotatable=0;points=[[0,0.5],[1,0.5]];portConstraint=eastwest;whiteSpace=wrap;html=1;strokeWidth=2;fontFamily=Georgia;fontColor=#000000;" vertex="1" parent="RMb5vPwJAWPibP_djfCR-256">
          <mxGeometry y="118" width="160" height="26" as="geometry" />
        </mxCell>
        <mxCell id="RMb5vPwJAWPibP_djfCR-261" value="" style="line;strokeWidth=2;fillColor=none;align=left;verticalAlign=middle;spacingTop=-1;spacingLeft=3;spacingRight=3;rotatable=0;labelPosition=right;points=[];portConstraint=eastwest;strokeColor=inherit;fontFamily=Georgia;fontColor=#000000;" vertex="1" parent="RMb5vPwJAWPibP_djfCR-256">
          <mxGeometry y="144" width="160" height="8" as="geometry" />
        </mxCell>
        <mxCell id="RMb5vPwJAWPibP_djfCR-262" value="+ getPromptAttributes()" style="text;strokeColor=none;fillColor=none;align=left;verticalAlign=top;spacingLeft=4;spacingRight=4;overflow=hidden;rotatable=0;points=[[0,0.5],[1,0.5]];portConstraint=eastwest;whiteSpace=wrap;html=1;strokeWidth=2;fontFamily=Georgia;fontColor=#000000;" vertex="1" parent="RMb5vPwJAWPibP_djfCR-256">
          <mxGeometry y="152" width="160" height="26" as="geometry" />
        </mxCell>
        <mxCell id="RMb5vPwJAWPibP_djfCR-263" value="+ insertPrompt()" style="text;strokeColor=none;fillColor=none;align=left;verticalAlign=top;spacingLeft=4;spacingRight=4;overflow=hidden;rotatable=0;points=[[0,0.5],[1,0.5]];portConstraint=eastwest;whiteSpace=wrap;html=1;strokeWidth=2;fontFamily=Georgia;fontColor=#000000;" vertex="1" parent="RMb5vPwJAWPibP_djfCR-256">
          <mxGeometry y="178" width="160" height="26" as="geometry" />
        </mxCell>
        <mxCell id="RMb5vPwJAWPibP_djfCR-264" value="&amp;lt;&amp;lt;boundary&amp;gt;&amp;gt;&lt;br&gt;&lt;div&gt;LoginUI&lt;/div&gt;" style="swimlane;fontStyle=1;align=center;verticalAlign=top;childLayout=stackLayout;horizontal=1;startSize=39;horizontalStack=0;resizeParent=1;resizeParentMax=0;resizeLast=0;collapsible=1;marginBottom=0;whiteSpace=wrap;html=1;strokeWidth=2;fillColor=#d5e8d4;strokeColor=#82b366;rounded=1;fontFamily=Georgia;" vertex="1" parent="1">
          <mxGeometry x="878" y="1733" width="197" height="151" as="geometry" />
        </mxCell>
        <mxCell id="RMb5vPwJAWPibP_djfCR-265" value="&lt;br&gt;" style="text;strokeColor=none;fillColor=none;align=left;verticalAlign=top;spacingLeft=4;spacingRight=4;overflow=hidden;rotatable=0;points=[[0,0.5],[1,0.5]];portConstraint=eastwest;whiteSpace=wrap;html=1;strokeWidth=2;fontFamily=Georgia;fontColor=#000000;" vertex="1" parent="RMb5vPwJAWPibP_djfCR-264">
          <mxGeometry y="39" width="197" height="26" as="geometry" />
        </mxCell>
        <mxCell id="RMb5vPwJAWPibP_djfCR-266" value="" style="line;strokeWidth=2;fillColor=none;align=left;verticalAlign=middle;spacingTop=-1;spacingLeft=3;spacingRight=3;rotatable=0;labelPosition=right;points=[];portConstraint=eastwest;strokeColor=inherit;fontFamily=Georgia;fontColor=#000000;" vertex="1" parent="RMb5vPwJAWPibP_djfCR-264">
          <mxGeometry y="65" width="197" height="8" as="geometry" />
        </mxCell>
        <mxCell id="RMb5vPwJAWPibP_djfCR-267" value="+ inputUserInfo(username, pass)" style="text;strokeColor=none;fillColor=none;align=left;verticalAlign=top;spacingLeft=4;spacingRight=4;overflow=hidden;rotatable=0;points=[[0,0.5],[1,0.5]];portConstraint=eastwest;whiteSpace=wrap;html=1;strokeWidth=2;fontFamily=Georgia;fontColor=#000000;" vertex="1" parent="RMb5vPwJAWPibP_djfCR-264">
          <mxGeometry y="73" width="197" height="26" as="geometry" />
        </mxCell>
        <mxCell id="RMb5vPwJAWPibP_djfCR-268" value="+ login()" style="text;strokeColor=none;fillColor=none;align=left;verticalAlign=top;spacingLeft=4;spacingRight=4;overflow=hidden;rotatable=0;points=[[0,0.5],[1,0.5]];portConstraint=eastwest;whiteSpace=wrap;html=1;strokeWidth=2;fontFamily=Georgia;fontColor=#000000;" vertex="1" parent="RMb5vPwJAWPibP_djfCR-264">
          <mxGeometry y="99" width="197" height="26" as="geometry" />
        </mxCell>
        <mxCell id="RMb5vPwJAWPibP_djfCR-269" value="+ forgotPass(username,loginData)" style="text;strokeColor=none;fillColor=none;align=left;verticalAlign=top;spacingLeft=4;spacingRight=4;overflow=hidden;rotatable=0;points=[[0,0.5],[1,0.5]];portConstraint=eastwest;whiteSpace=wrap;html=1;strokeWidth=2;fontFamily=Georgia;fontColor=#000000;" vertex="1" parent="RMb5vPwJAWPibP_djfCR-264">
          <mxGeometry y="125" width="197" height="26" as="geometry" />
        </mxCell>
        <mxCell id="RMb5vPwJAWPibP_djfCR-270" value="&amp;lt;&amp;lt;boundary&amp;gt;&amp;gt;&lt;br&gt;&lt;div&gt;SignupUI&lt;/div&gt;" style="swimlane;fontStyle=1;align=center;verticalAlign=top;childLayout=stackLayout;horizontal=1;startSize=39;horizontalStack=0;resizeParent=1;resizeParentMax=0;resizeLast=0;collapsible=1;marginBottom=0;whiteSpace=wrap;html=1;strokeWidth=2;rounded=1;fillColor=#d5e8d4;strokeColor=#82b366;fontFamily=Georgia;" vertex="1" parent="1">
          <mxGeometry x="1114" y="1734" width="192" height="125" as="geometry" />
        </mxCell>
        <mxCell id="RMb5vPwJAWPibP_djfCR-271" value="&lt;br&gt;" style="text;strokeColor=none;fillColor=none;align=left;verticalAlign=top;spacingLeft=4;spacingRight=4;overflow=hidden;rotatable=0;points=[[0,0.5],[1,0.5]];portConstraint=eastwest;whiteSpace=wrap;html=1;strokeWidth=2;fontFamily=Georgia;fontColor=#000000;" vertex="1" parent="RMb5vPwJAWPibP_djfCR-270">
          <mxGeometry y="39" width="192" height="26" as="geometry" />
        </mxCell>
        <mxCell id="RMb5vPwJAWPibP_djfCR-272" value="" style="line;strokeWidth=2;fillColor=none;align=left;verticalAlign=middle;spacingTop=-1;spacingLeft=3;spacingRight=3;rotatable=0;labelPosition=right;points=[];portConstraint=eastwest;strokeColor=inherit;fontFamily=Georgia;fontColor=#000000;" vertex="1" parent="RMb5vPwJAWPibP_djfCR-270">
          <mxGeometry y="65" width="192" height="8" as="geometry" />
        </mxCell>
        <mxCell id="RMb5vPwJAWPibP_djfCR-273" value="+ inputUserInfo(userAttributes)" style="text;strokeColor=none;fillColor=none;align=left;verticalAlign=top;spacingLeft=4;spacingRight=4;overflow=hidden;rotatable=0;points=[[0,0.5],[1,0.5]];portConstraint=eastwest;whiteSpace=wrap;html=1;strokeWidth=2;fontFamily=Georgia;fontColor=#000000;" vertex="1" parent="RMb5vPwJAWPibP_djfCR-270">
          <mxGeometry y="73" width="192" height="26" as="geometry" />
        </mxCell>
        <mxCell id="RMb5vPwJAWPibP_djfCR-274" value="+ signUp()" style="text;strokeColor=none;fillColor=none;align=left;verticalAlign=top;spacingLeft=4;spacingRight=4;overflow=hidden;rotatable=0;points=[[0,0.5],[1,0.5]];portConstraint=eastwest;whiteSpace=wrap;html=1;strokeWidth=2;fontFamily=Georgia;fontColor=#000000;" vertex="1" parent="RMb5vPwJAWPibP_djfCR-270">
          <mxGeometry y="99" width="192" height="26" as="geometry" />
        </mxCell>
        <mxCell id="RMb5vPwJAWPibP_djfCR-275" value="&amp;lt;&amp;lt;controller&amp;gt;&amp;gt;&lt;br&gt;&lt;div&gt;Authentication&lt;/div&gt;" style="swimlane;fontStyle=1;align=center;verticalAlign=top;childLayout=stackLayout;horizontal=1;startSize=40;horizontalStack=0;resizeParent=1;resizeParentMax=0;resizeLast=0;collapsible=1;marginBottom=0;whiteSpace=wrap;html=1;strokeWidth=2;fillColor=#d5e8d4;strokeColor=#82b366;rounded=1;fontFamily=Georgia;" vertex="1" parent="1">
          <mxGeometry x="1343" y="1734" width="211" height="152" as="geometry" />
        </mxCell>
        <mxCell id="RMb5vPwJAWPibP_djfCR-276" value="&lt;br&gt;" style="text;strokeColor=none;fillColor=none;align=left;verticalAlign=top;spacingLeft=4;spacingRight=4;overflow=hidden;rotatable=0;points=[[0,0.5],[1,0.5]];portConstraint=eastwest;whiteSpace=wrap;html=1;strokeWidth=2;fontFamily=Georgia;fontColor=#000000;" vertex="1" parent="RMb5vPwJAWPibP_djfCR-275">
          <mxGeometry y="40" width="211" height="26" as="geometry" />
        </mxCell>
        <mxCell id="RMb5vPwJAWPibP_djfCR-277" value="" style="line;strokeWidth=2;fillColor=none;align=left;verticalAlign=middle;spacingTop=-1;spacingLeft=3;spacingRight=3;rotatable=0;labelPosition=right;points=[];portConstraint=eastwest;strokeColor=inherit;fontFamily=Georgia;fontColor=#000000;" vertex="1" parent="RMb5vPwJAWPibP_djfCR-275">
          <mxGeometry y="66" width="211" height="8" as="geometry" />
        </mxCell>
        <mxCell id="RMb5vPwJAWPibP_djfCR-278" value="+ login(username, pass)" style="text;strokeColor=none;fillColor=none;align=left;verticalAlign=top;spacingLeft=4;spacingRight=4;overflow=hidden;rotatable=0;points=[[0,0.5],[1,0.5]];portConstraint=eastwest;whiteSpace=wrap;html=1;strokeWidth=2;fontFamily=Georgia;fontColor=#000000;" vertex="1" parent="RMb5vPwJAWPibP_djfCR-275">
          <mxGeometry y="74" width="211" height="26" as="geometry" />
        </mxCell>
        <mxCell id="RMb5vPwJAWPibP_djfCR-279" value="+ signUp(userAttributes)" style="text;strokeColor=none;fillColor=none;align=left;verticalAlign=top;spacingLeft=4;spacingRight=4;overflow=hidden;rotatable=0;points=[[0,0.5],[1,0.5]];portConstraint=eastwest;whiteSpace=wrap;html=1;strokeWidth=2;fontFamily=Georgia;fontColor=#000000;" vertex="1" parent="RMb5vPwJAWPibP_djfCR-275">
          <mxGeometry y="100" width="211" height="26" as="geometry" />
        </mxCell>
        <mxCell id="RMb5vPwJAWPibP_djfCR-280" value="+ forgotPass(username,loginData)" style="text;strokeColor=none;fillColor=none;align=left;verticalAlign=top;spacingLeft=4;spacingRight=4;overflow=hidden;rotatable=0;points=[[0,0.5],[1,0.5]];portConstraint=eastwest;whiteSpace=wrap;html=1;strokeWidth=2;fontFamily=Georgia;fontColor=#000000;" vertex="1" parent="RMb5vPwJAWPibP_djfCR-275">
          <mxGeometry y="126" width="211" height="26" as="geometry" />
        </mxCell>
        <mxCell id="RMb5vPwJAWPibP_djfCR-281" value="" style="endArrow=block;dashed=1;endFill=0;endSize=12;html=1;rounded=0;exitX=0.5;exitY=0;exitDx=0;exitDy=0;edgeStyle=orthogonalEdgeStyle;strokeWidth=2;fillColor=#e1d5e7;strokeColor=#9673a6;fontFamily=Georgia;fontColor=#000000;" edge="1" parent="1" source="RMb5vPwJAWPibP_djfCR-161" target="RMb5vPwJAWPibP_djfCR-154">
          <mxGeometry width="160" relative="1" as="geometry">
            <mxPoint x="650" y="3010" as="sourcePoint" />
            <mxPoint x="810" y="3010" as="targetPoint" />
            <Array as="points">
              <mxPoint x="360" y="2960" />
              <mxPoint x="650" y="2960" />
            </Array>
          </mxGeometry>
        </mxCell>
        <mxCell id="RMb5vPwJAWPibP_djfCR-282" value="" style="endArrow=block;dashed=1;endFill=0;endSize=12;html=1;rounded=0;exitX=0.5;exitY=0;exitDx=0;exitDy=0;edgeStyle=orthogonalEdgeStyle;entryX=0.501;entryY=1.013;entryDx=0;entryDy=0;entryPerimeter=0;strokeWidth=2;fillColor=#e1d5e7;strokeColor=#9673a6;fontFamily=Georgia;fontColor=#000000;" edge="1" parent="1" source="RMb5vPwJAWPibP_djfCR-168" target="RMb5vPwJAWPibP_djfCR-154">
          <mxGeometry width="160" relative="1" as="geometry">
            <mxPoint x="370" y="3020" as="sourcePoint" />
            <mxPoint x="600" y="2920" as="targetPoint" />
            <Array as="points">
              <mxPoint x="550" y="3010" />
              <mxPoint x="550" y="2960" />
              <mxPoint x="650" y="2960" />
            </Array>
          </mxGeometry>
        </mxCell>
        <mxCell id="RMb5vPwJAWPibP_djfCR-283" value="" style="endArrow=block;dashed=1;endFill=0;endSize=12;html=1;rounded=0;edgeStyle=orthogonalEdgeStyle;exitX=0.538;exitY=0.001;exitDx=0;exitDy=0;exitPerimeter=0;entryX=0.5;entryY=1.013;entryDx=0;entryDy=0;entryPerimeter=0;strokeWidth=2;fillColor=#e1d5e7;strokeColor=#9673a6;fontFamily=Georgia;fontColor=#000000;" edge="1" parent="1" source="RMb5vPwJAWPibP_djfCR-205" target="RMb5vPwJAWPibP_djfCR-154">
          <mxGeometry width="160" relative="1" as="geometry">
            <mxPoint x="750" y="3000" as="sourcePoint" />
            <mxPoint x="650" y="2920" as="targetPoint" />
            <Array as="points">
              <mxPoint x="750" y="3000" />
              <mxPoint x="750" y="3000" />
              <mxPoint x="750" y="2960" />
              <mxPoint x="650" y="2960" />
            </Array>
          </mxGeometry>
        </mxCell>
        <mxCell id="RMb5vPwJAWPibP_djfCR-284" value="&lt;span style=&quot;font-weight: normal;&quot;&gt;&lt;i&gt;&amp;lt;&amp;lt;boundary&amp;gt;&amp;gt;&lt;br&gt;&lt;/i&gt;&lt;/span&gt;&lt;div&gt;ProfileUI&lt;/div&gt;" style="swimlane;fontStyle=1;align=center;verticalAlign=top;childLayout=stackLayout;horizontal=1;startSize=40;horizontalStack=0;resizeParent=1;resizeParentMax=0;resizeLast=0;collapsible=1;marginBottom=0;whiteSpace=wrap;html=1;strokeWidth=2;fontFamily=Georgia;rounded=1;fillColor=#d5e8d4;strokeColor=#82b366;" vertex="1" parent="1">
          <mxGeometry x="792" y="2410" width="189" height="152" as="geometry" />
        </mxCell>
        <mxCell id="RMb5vPwJAWPibP_djfCR-285" value="&lt;br&gt;" style="text;strokeColor=none;fillColor=none;align=left;verticalAlign=top;spacingLeft=4;spacingRight=4;overflow=hidden;rotatable=0;points=[[0,0.5],[1,0.5]];portConstraint=eastwest;whiteSpace=wrap;html=1;strokeWidth=2;fontFamily=Georgia;fontColor=#000000;" vertex="1" parent="RMb5vPwJAWPibP_djfCR-284">
          <mxGeometry y="40" width="189" height="26" as="geometry" />
        </mxCell>
        <mxCell id="RMb5vPwJAWPibP_djfCR-286" value="" style="line;strokeWidth=2;fillColor=none;align=left;verticalAlign=middle;spacingTop=-1;spacingLeft=3;spacingRight=3;rotatable=0;labelPosition=right;points=[];portConstraint=eastwest;strokeColor=inherit;fontFamily=Georgia;fontColor=#000000;" vertex="1" parent="RMb5vPwJAWPibP_djfCR-284">
          <mxGeometry y="66" width="189" height="8" as="geometry" />
        </mxCell>
        <mxCell id="RMb5vPwJAWPibP_djfCR-287" value="+ viewProfile()" style="text;strokeColor=none;fillColor=none;align=left;verticalAlign=top;spacingLeft=4;spacingRight=4;overflow=hidden;rotatable=0;points=[[0,0.5],[1,0.5]];portConstraint=eastwest;whiteSpace=wrap;html=1;strokeWidth=2;fontFamily=Georgia;fontColor=#000000;" vertex="1" parent="RMb5vPwJAWPibP_djfCR-284">
          <mxGeometry y="74" width="189" height="26" as="geometry" />
        </mxCell>
        <mxCell id="RMb5vPwJAWPibP_djfCR-288" value="+ inputUpdateInfo(info)" style="text;strokeColor=none;fillColor=none;align=left;verticalAlign=top;spacingLeft=4;spacingRight=4;overflow=hidden;rotatable=0;points=[[0,0.5],[1,0.5]];portConstraint=eastwest;whiteSpace=wrap;html=1;fontFamily=Georgia;fontColor=#000000;strokeWidth=2;" vertex="1" parent="RMb5vPwJAWPibP_djfCR-284">
          <mxGeometry y="100" width="189" height="26" as="geometry" />
        </mxCell>
        <mxCell id="RMb5vPwJAWPibP_djfCR-289" value="+ inputUpdatedPassword(pass)" style="text;strokeColor=none;fillColor=none;align=left;verticalAlign=top;spacingLeft=4;spacingRight=4;overflow=hidden;rotatable=0;points=[[0,0.5],[1,0.5]];portConstraint=eastwest;whiteSpace=wrap;html=1;fontFamily=Georgia;fontColor=#000000;strokeWidth=2;" vertex="1" parent="RMb5vPwJAWPibP_djfCR-284">
          <mxGeometry y="126" width="189" height="26" as="geometry" />
        </mxCell>
        <mxCell id="RMb5vPwJAWPibP_djfCR-290" value="" style="endArrow=block;dashed=1;endFill=0;endSize=12;html=1;rounded=0;edgeStyle=orthogonalEdgeStyle;entryX=0.5;entryY=1.013;entryDx=0;entryDy=0;entryPerimeter=0;exitX=0.5;exitY=0;exitDx=0;exitDy=0;strokeWidth=2;fillColor=#e1d5e7;strokeColor=#9673a6;fontFamily=Georgia;fontColor=#000000;" edge="1" parent="1" source="RMb5vPwJAWPibP_djfCR-212">
          <mxGeometry width="160" relative="1" as="geometry">
            <mxPoint x="840" y="2970" as="sourcePoint" />
            <mxPoint x="650" y="2904" as="targetPoint" />
            <Array as="points">
              <mxPoint x="930" y="2960" />
              <mxPoint x="650" y="2960" />
            </Array>
          </mxGeometry>
        </mxCell>
        <mxCell id="RMb5vPwJAWPibP_djfCR-291" value="&lt;span style=&quot;font-weight: normal;&quot;&gt;&lt;i&gt;&amp;lt;&amp;lt;controller&amp;gt;&amp;gt;&lt;br&gt;&lt;/i&gt;&lt;/span&gt;&lt;div&gt;Profile&lt;/div&gt;" style="swimlane;fontStyle=1;align=center;verticalAlign=top;childLayout=stackLayout;horizontal=1;startSize=40;horizontalStack=0;resizeParent=1;resizeParentMax=0;resizeLast=0;collapsible=1;marginBottom=0;whiteSpace=wrap;html=1;fontFamily=Georgia;strokeWidth=2;rounded=1;fillColor=#d5e8d4;strokeColor=#82b366;" vertex="1" parent="1">
          <mxGeometry x="1022" y="2410" width="160" height="152" as="geometry" />
        </mxCell>
        <mxCell id="RMb5vPwJAWPibP_djfCR-292" value="&lt;br&gt;" style="text;strokeColor=none;fillColor=none;align=left;verticalAlign=top;spacingLeft=4;spacingRight=4;overflow=hidden;rotatable=0;points=[[0,0.5],[1,0.5]];portConstraint=eastwest;whiteSpace=wrap;html=1;fontFamily=Georgia;fontColor=#000000;strokeWidth=2;" vertex="1" parent="RMb5vPwJAWPibP_djfCR-291">
          <mxGeometry y="40" width="160" height="26" as="geometry" />
        </mxCell>
        <mxCell id="RMb5vPwJAWPibP_djfCR-293" value="" style="line;strokeWidth=2;fillColor=none;align=left;verticalAlign=middle;spacingTop=-1;spacingLeft=3;spacingRight=3;rotatable=0;labelPosition=right;points=[];portConstraint=eastwest;strokeColor=inherit;fontFamily=Georgia;fontColor=#000000;" vertex="1" parent="RMb5vPwJAWPibP_djfCR-291">
          <mxGeometry y="66" width="160" height="8" as="geometry" />
        </mxCell>
        <mxCell id="RMb5vPwJAWPibP_djfCR-294" value="+ retrieveProfileInfo()" style="text;strokeColor=none;fillColor=none;align=left;verticalAlign=top;spacingLeft=4;spacingRight=4;overflow=hidden;rotatable=0;points=[[0,0.5],[1,0.5]];portConstraint=eastwest;whiteSpace=wrap;html=1;fontFamily=Georgia;fontColor=#000000;strokeWidth=2;" vertex="1" parent="RMb5vPwJAWPibP_djfCR-291">
          <mxGeometry y="74" width="160" height="26" as="geometry" />
        </mxCell>
        <mxCell id="RMb5vPwJAWPibP_djfCR-295" value="+ updateProfile(info)" style="text;strokeColor=none;fillColor=none;align=left;verticalAlign=top;spacingLeft=4;spacingRight=4;overflow=hidden;rotatable=0;points=[[0,0.5],[1,0.5]];portConstraint=eastwest;whiteSpace=wrap;html=1;fontFamily=Georgia;fontColor=#000000;strokeWidth=2;" vertex="1" parent="RMb5vPwJAWPibP_djfCR-291">
          <mxGeometry y="100" width="160" height="26" as="geometry" />
        </mxCell>
        <mxCell id="RMb5vPwJAWPibP_djfCR-296" value="+ updatePassword(pass)" style="text;strokeColor=none;fillColor=none;align=left;verticalAlign=top;spacingLeft=4;spacingRight=4;overflow=hidden;rotatable=0;points=[[0,0.5],[1,0.5]];portConstraint=eastwest;whiteSpace=wrap;html=1;fontFamily=Georgia;fontColor=#000000;strokeWidth=2;" vertex="1" parent="RMb5vPwJAWPibP_djfCR-291">
          <mxGeometry y="126" width="160" height="26" as="geometry" />
        </mxCell>
        <mxCell id="RMb5vPwJAWPibP_djfCR-297" value="&amp;lt;&amp;lt;entity&amp;gt;&amp;gt;&lt;br&gt;&lt;div&gt;ProblemSetter&lt;/div&gt;" style="swimlane;fontStyle=1;align=center;verticalAlign=top;childLayout=stackLayout;horizontal=1;startSize=40;horizontalStack=0;resizeParent=1;resizeParentMax=0;resizeLast=0;collapsible=1;marginBottom=0;whiteSpace=wrap;html=1;rounded=1;swimlaneLine=1;glass=0;fontFamily=Georgia;strokeWidth=2;fillColor=#fff2cc;strokeColor=#d6b656;" vertex="1" parent="1">
          <mxGeometry x="634" y="403" width="203" height="178" as="geometry" />
        </mxCell>
        <mxCell id="RMb5vPwJAWPibP_djfCR-298" value="- authorID" style="text;strokeColor=none;fillColor=none;align=left;verticalAlign=top;spacingLeft=4;spacingRight=4;overflow=hidden;rotatable=0;points=[[0,0.5],[1,0.5]];portConstraint=eastwest;whiteSpace=wrap;html=1;fontFamily=Georgia;fontColor=#000000;strokeWidth=2;" vertex="1" parent="RMb5vPwJAWPibP_djfCR-297">
          <mxGeometry y="40" width="203" height="26" as="geometry" />
        </mxCell>
        <mxCell id="RMb5vPwJAWPibP_djfCR-299" value="- name" style="text;strokeColor=none;fillColor=none;align=left;verticalAlign=top;spacingLeft=4;spacingRight=4;overflow=hidden;rotatable=0;points=[[0,0.5],[1,0.5]];portConstraint=eastwest;whiteSpace=wrap;html=1;fontFamily=Georgia;fontColor=#000000;strokeWidth=2;" vertex="1" parent="RMb5vPwJAWPibP_djfCR-297">
          <mxGeometry y="66" width="203" height="26" as="geometry" />
        </mxCell>
        <mxCell id="RMb5vPwJAWPibP_djfCR-300" value="- image" style="text;strokeColor=none;fillColor=none;align=left;verticalAlign=top;spacingLeft=4;spacingRight=4;overflow=hidden;rotatable=0;points=[[0,0.5],[1,0.5]];portConstraint=eastwest;whiteSpace=wrap;html=1;fontFamily=Georgia;fontColor=#000000;strokeWidth=2;" vertex="1" parent="RMb5vPwJAWPibP_djfCR-297">
          <mxGeometry y="92" width="203" height="26" as="geometry" />
        </mxCell>
        <mxCell id="RMb5vPwJAWPibP_djfCR-301" value="" style="line;strokeWidth=2;fillColor=none;align=left;verticalAlign=middle;spacingTop=-1;spacingLeft=3;spacingRight=3;rotatable=0;labelPosition=right;points=[];portConstraint=eastwest;strokeColor=inherit;fontFamily=Georgia;fontColor=#000000;" vertex="1" parent="RMb5vPwJAWPibP_djfCR-297">
          <mxGeometry y="118" width="203" height="8" as="geometry" />
        </mxCell>
        <mxCell id="RMb5vPwJAWPibP_djfCR-302" value="+ getProblemSetterAttributes()" style="text;strokeColor=none;fillColor=none;align=left;verticalAlign=top;spacingLeft=4;spacingRight=4;overflow=hidden;rotatable=0;points=[[0,0.5],[1,0.5]];portConstraint=eastwest;whiteSpace=wrap;html=1;fontFamily=Georgia;fontColor=#000000;strokeWidth=2;" vertex="1" parent="RMb5vPwJAWPibP_djfCR-297">
          <mxGeometry y="126" width="203" height="26" as="geometry" />
        </mxCell>
        <mxCell id="RMb5vPwJAWPibP_djfCR-303" value="+ updateInfo()" style="text;strokeColor=none;fillColor=none;align=left;verticalAlign=top;spacingLeft=4;spacingRight=4;overflow=hidden;rotatable=0;points=[[0,0.5],[1,0.5]];portConstraint=eastwest;whiteSpace=wrap;html=1;fontFamily=Georgia;fontColor=#000000;strokeWidth=2;" vertex="1" parent="RMb5vPwJAWPibP_djfCR-297">
          <mxGeometry y="152" width="203" height="26" as="geometry" />
        </mxCell>
        <mxCell id="RMb5vPwJAWPibP_djfCR-304" value="&amp;lt;&amp;lt;entity&amp;gt;&amp;gt;&lt;br&gt;&lt;div&gt;Auth&lt;/div&gt;" style="swimlane;fontStyle=1;align=center;verticalAlign=top;childLayout=stackLayout;horizontal=1;startSize=40;horizontalStack=0;resizeParent=1;resizeParentMax=0;resizeLast=0;collapsible=1;marginBottom=0;whiteSpace=wrap;html=1;fontFamily=Georgia;strokeWidth=2;rounded=1;fillColor=#d5e8d4;strokeColor=#82b366;" vertex="1" parent="1">
          <mxGeometry x="266.5" y="1250" width="160" height="246" as="geometry" />
        </mxCell>
        <mxCell id="RMb5vPwJAWPibP_djfCR-305" value="- user_id" style="shape=partialRectangle;connectable=0;fillColor=none;top=0;left=0;bottom=0;right=0;align=left;spacingLeft=6;fontStyle=0;overflow=hidden;whiteSpace=wrap;html=1;labelBackgroundColor=none;strokeColor=#457B9D;fontColor=#000000;rounded=1;strokeWidth=2;fontFamily=Georgia;" vertex="1" parent="RMb5vPwJAWPibP_djfCR-304">
          <mxGeometry y="40" width="160" height="30" as="geometry">
            <mxRectangle width="120" height="30" as="alternateBounds" />
          </mxGeometry>
        </mxCell>
        <mxCell id="RMb5vPwJAWPibP_djfCR-306" value="- auth_type" style="shape=partialRectangle;connectable=0;fillColor=none;top=0;left=0;bottom=0;right=0;align=left;spacingLeft=6;overflow=hidden;whiteSpace=wrap;html=1;labelBackgroundColor=none;strokeColor=#788AA3;fontColor=#000000;rounded=1;strokeWidth=2;fontFamily=Georgia;" vertex="1" parent="RMb5vPwJAWPibP_djfCR-304">
          <mxGeometry y="70" width="160" height="30" as="geometry">
            <mxRectangle width="120" height="30" as="alternateBounds" />
          </mxGeometry>
        </mxCell>
        <mxCell id="RMb5vPwJAWPibP_djfCR-307" value="- login" style="shape=partialRectangle;connectable=0;fillColor=none;top=0;left=0;bottom=0;right=0;align=left;spacingLeft=6;overflow=hidden;whiteSpace=wrap;html=1;labelBackgroundColor=none;strokeColor=#788AA3;fontColor=#000000;rounded=1;fontFamily=Georgia;strokeWidth=2;" vertex="1" parent="RMb5vPwJAWPibP_djfCR-304">
          <mxGeometry y="100" width="160" height="30" as="geometry">
            <mxRectangle width="120" height="30" as="alternateBounds" />
          </mxGeometry>
        </mxCell>
        <mxCell id="RMb5vPwJAWPibP_djfCR-308" value="- hashed_pass" style="shape=partialRectangle;connectable=0;fillColor=none;top=0;left=0;bottom=0;right=0;align=left;spacingLeft=6;overflow=hidden;whiteSpace=wrap;html=1;labelBackgroundColor=none;strokeColor=#788AA3;fontColor=#000000;rounded=1;fontFamily=Georgia;strokeWidth=2;" vertex="1" parent="RMb5vPwJAWPibP_djfCR-304">
          <mxGeometry y="130" width="160" height="30" as="geometry">
            <mxRectangle width="120" height="30" as="alternateBounds" />
          </mxGeometry>
        </mxCell>
        <mxCell id="RMb5vPwJAWPibP_djfCR-309" value="" style="line;strokeWidth=2;fillColor=none;align=left;verticalAlign=middle;spacingTop=-1;spacingLeft=3;spacingRight=3;rotatable=0;labelPosition=right;points=[];portConstraint=eastwest;strokeColor=inherit;fontFamily=Georgia;fontColor=#000000;" vertex="1" parent="RMb5vPwJAWPibP_djfCR-304">
          <mxGeometry y="160" width="160" height="8" as="geometry" />
        </mxCell>
        <mxCell id="RMb5vPwJAWPibP_djfCR-310" value="+ getAuthAttributes()" style="text;strokeColor=none;fillColor=none;align=left;verticalAlign=top;spacingLeft=4;spacingRight=4;overflow=hidden;rotatable=0;points=[[0,0.5],[1,0.5]];portConstraint=eastwest;whiteSpace=wrap;html=1;fontFamily=Georgia;fontColor=#000000;strokeWidth=2;" vertex="1" parent="RMb5vPwJAWPibP_djfCR-304">
          <mxGeometry y="168" width="160" height="26" as="geometry" />
        </mxCell>
        <mxCell id="RMb5vPwJAWPibP_djfCR-311" value="+ getAuthType()" style="text;strokeColor=none;fillColor=none;align=left;verticalAlign=top;spacingLeft=4;spacingRight=4;overflow=hidden;rotatable=0;points=[[0,0.5],[1,0.5]];portConstraint=eastwest;whiteSpace=wrap;html=1;strokeWidth=2;fontColor=#000000;fontFamily=Georgia;" vertex="1" parent="RMb5vPwJAWPibP_djfCR-304">
          <mxGeometry y="194" width="160" height="26" as="geometry" />
        </mxCell>
        <mxCell id="RMb5vPwJAWPibP_djfCR-312" value="+ updatePassword()" style="text;strokeColor=none;fillColor=none;align=left;verticalAlign=top;spacingLeft=4;spacingRight=4;overflow=hidden;rotatable=0;points=[[0,0.5],[1,0.5]];portConstraint=eastwest;whiteSpace=wrap;html=1;strokeWidth=2;fontColor=#000000;fontFamily=Georgia;" vertex="1" parent="RMb5vPwJAWPibP_djfCR-304">
          <mxGeometry y="220" width="160" height="26" as="geometry" />
        </mxCell>
        <mxCell id="RMb5vPwJAWPibP_djfCR-313" value="&amp;lt;&amp;lt;entity&amp;gt;&amp;gt;&lt;br&gt;&lt;div&gt;ResetPassword&lt;/div&gt;" style="swimlane;fontStyle=1;align=center;verticalAlign=top;childLayout=stackLayout;horizontal=1;startSize=40;horizontalStack=0;resizeParent=1;resizeParentMax=0;resizeLast=0;collapsible=1;marginBottom=0;whiteSpace=wrap;html=1;fontFamily=Georgia;strokeWidth=2;rounded=1;fillColor=#d5e8d4;strokeColor=#82b366;" vertex="1" parent="1">
          <mxGeometry x="491" y="1250" width="179" height="178" as="geometry" />
        </mxCell>
        <mxCell id="RMb5vPwJAWPibP_djfCR-314" value="- reset_id" style="text;strokeColor=none;fillColor=none;align=left;verticalAlign=top;spacingLeft=4;spacingRight=4;overflow=hidden;rotatable=0;points=[[0,0.5],[1,0.5]];portConstraint=eastwest;whiteSpace=wrap;html=1;fontFamily=Georgia;fontColor=#000000;strokeWidth=2;" vertex="1" parent="RMb5vPwJAWPibP_djfCR-313">
          <mxGeometry y="40" width="179" height="26" as="geometry" />
        </mxCell>
        <mxCell id="RMb5vPwJAWPibP_djfCR-315" value="- user_id" style="text;strokeColor=none;fillColor=none;align=left;verticalAlign=top;spacingLeft=4;spacingRight=4;overflow=hidden;rotatable=0;points=[[0,0.5],[1,0.5]];portConstraint=eastwest;whiteSpace=wrap;html=1;strokeWidth=2;fontColor=#000000;fontFamily=Georgia;" vertex="1" parent="RMb5vPwJAWPibP_djfCR-313">
          <mxGeometry y="66" width="179" height="26" as="geometry" />
        </mxCell>
        <mxCell id="RMb5vPwJAWPibP_djfCR-316" value="- token" style="text;strokeColor=none;fillColor=none;align=left;verticalAlign=top;spacingLeft=4;spacingRight=4;overflow=hidden;rotatable=0;points=[[0,0.5],[1,0.5]];portConstraint=eastwest;whiteSpace=wrap;html=1;strokeWidth=2;fontColor=#000000;fontFamily=Georgia;" vertex="1" parent="RMb5vPwJAWPibP_djfCR-313">
          <mxGeometry y="92" width="179" height="26" as="geometry" />
        </mxCell>
        <mxCell id="RMb5vPwJAWPibP_djfCR-317" value="" style="line;strokeWidth=2;fillColor=none;align=left;verticalAlign=middle;spacingTop=-1;spacingLeft=3;spacingRight=3;rotatable=0;labelPosition=right;points=[];portConstraint=eastwest;strokeColor=inherit;fontFamily=Georgia;fontColor=#000000;" vertex="1" parent="RMb5vPwJAWPibP_djfCR-313">
          <mxGeometry y="118" width="179" height="8" as="geometry" />
        </mxCell>
        <mxCell id="RMb5vPwJAWPibP_djfCR-318" value="+ getResetPassAttributes()" style="text;strokeColor=none;fillColor=none;align=left;verticalAlign=top;spacingLeft=4;spacingRight=4;overflow=hidden;rotatable=0;points=[[0,0.5],[1,0.5]];portConstraint=eastwest;whiteSpace=wrap;html=1;fontFamily=Georgia;fontColor=#000000;strokeWidth=2;" vertex="1" parent="RMb5vPwJAWPibP_djfCR-313">
          <mxGeometry y="126" width="179" height="26" as="geometry" />
        </mxCell>
        <mxCell id="RMb5vPwJAWPibP_djfCR-319" value="+ resetPassword()" style="text;strokeColor=none;fillColor=none;align=left;verticalAlign=top;spacingLeft=4;spacingRight=4;overflow=hidden;rotatable=0;points=[[0,0.5],[1,0.5]];portConstraint=eastwest;whiteSpace=wrap;html=1;strokeWidth=2;fontColor=#000000;fontFamily=Georgia;" vertex="1" parent="RMb5vPwJAWPibP_djfCR-313">
          <mxGeometry y="152" width="179" height="26" as="geometry" />
        </mxCell>
        <mxCell id="RMb5vPwJAWPibP_djfCR-320" value="&lt;span style=&quot;font-weight: normal;&quot;&gt;&lt;i&gt;&amp;lt;&amp;lt;entity&amp;gt;&amp;gt;&lt;br&gt;&lt;/i&gt;&lt;/span&gt;&lt;div&gt;Topic&lt;/div&gt;" style="swimlane;fontStyle=1;align=center;verticalAlign=top;childLayout=stackLayout;horizontal=1;startSize=40;horizontalStack=0;resizeParent=1;resizeParentMax=0;resizeLast=0;collapsible=1;marginBottom=0;whiteSpace=wrap;html=1;fillColor=#F8CECC;strokeColor=#b85450;rounded=1;fontFamily=Georgia;strokeWidth=2;" vertex="1" parent="1">
          <mxGeometry x="1569" y="40" width="190" height="204" as="geometry" />
        </mxCell>
        <mxCell id="RMb5vPwJAWPibP_djfCR-321" value="- topicID&amp;nbsp;" style="text;strokeColor=none;fillColor=none;align=left;verticalAlign=top;spacingLeft=4;spacingRight=4;overflow=hidden;rotatable=0;points=[[0,0.5],[1,0.5]];portConstraint=eastwest;whiteSpace=wrap;html=1;fontFamily=Georgia;fontColor=#000000;strokeWidth=2;" vertex="1" parent="RMb5vPwJAWPibP_djfCR-320">
          <mxGeometry y="40" width="190" height="26" as="geometry" />
        </mxCell>
        <mxCell id="RMb5vPwJAWPibP_djfCR-322" value="- name" style="text;strokeColor=none;fillColor=none;align=left;verticalAlign=top;spacingLeft=4;spacingRight=4;overflow=hidden;rotatable=0;points=[[0,0.5],[1,0.5]];portConstraint=eastwest;whiteSpace=wrap;html=1;fontFamily=Georgia;fontColor=#000000;strokeWidth=2;" vertex="1" parent="RMb5vPwJAWPibP_djfCR-320">
          <mxGeometry y="66" width="190" height="26" as="geometry" />
        </mxCell>
        <mxCell id="RMb5vPwJAWPibP_djfCR-323" value="- description" style="text;strokeColor=none;fillColor=none;align=left;verticalAlign=top;spacingLeft=4;spacingRight=4;overflow=hidden;rotatable=0;points=[[0,0.5],[1,0.5]];portConstraint=eastwest;whiteSpace=wrap;html=1;fontFamily=Georgia;fontColor=#000000;strokeWidth=2;" vertex="1" parent="RMb5vPwJAWPibP_djfCR-320">
          <mxGeometry y="92" width="190" height="26" as="geometry" />
        </mxCell>
        <mxCell id="RMb5vPwJAWPibP_djfCR-324" value="- logo" style="text;strokeColor=none;fillColor=none;align=left;verticalAlign=top;spacingLeft=4;spacingRight=4;overflow=hidden;rotatable=0;points=[[0,0.5],[1,0.5]];portConstraint=eastwest;whiteSpace=wrap;html=1;fontFamily=Georgia;fontColor=#000000;strokeWidth=2;" vertex="1" parent="RMb5vPwJAWPibP_djfCR-320">
          <mxGeometry y="118" width="190" height="26" as="geometry" />
        </mxCell>
        <mxCell id="RMb5vPwJAWPibP_djfCR-325" value="" style="line;strokeWidth=2;fillColor=none;align=left;verticalAlign=middle;spacingTop=-1;spacingLeft=3;spacingRight=3;rotatable=0;labelPosition=right;points=[];portConstraint=eastwest;strokeColor=inherit;fontFamily=Georgia;fontColor=#000000;" vertex="1" parent="RMb5vPwJAWPibP_djfCR-320">
          <mxGeometry y="144" width="190" height="8" as="geometry" />
        </mxCell>
        <mxCell id="RMb5vPwJAWPibP_djfCR-326" value="+ getTopicAttributes()" style="text;strokeColor=none;fillColor=none;align=left;verticalAlign=top;spacingLeft=4;spacingRight=4;overflow=hidden;rotatable=0;points=[[0,0.5],[1,0.5]];portConstraint=eastwest;whiteSpace=wrap;html=1;fontFamily=Georgia;fontColor=#000000;strokeWidth=2;" vertex="1" parent="RMb5vPwJAWPibP_djfCR-320">
          <mxGeometry y="152" width="190" height="26" as="geometry" />
        </mxCell>
        <mxCell id="RMb5vPwJAWPibP_djfCR-327" value="+ updateTopic()" style="text;strokeColor=none;fillColor=none;align=left;verticalAlign=top;spacingLeft=4;spacingRight=4;overflow=hidden;rotatable=0;points=[[0,0.5],[1,0.5]];portConstraint=eastwest;whiteSpace=wrap;html=1;fontFamily=Georgia;fontColor=#000000;strokeWidth=2;" vertex="1" parent="RMb5vPwJAWPibP_djfCR-320">
          <mxGeometry y="178" width="190" height="26" as="geometry" />
        </mxCell>
        <mxCell id="RMb5vPwJAWPibP_djfCR-328" value="&lt;span style=&quot;font-weight: normal;&quot;&gt;&lt;i&gt;&amp;lt;&amp;lt;entity&amp;gt;&amp;gt;&lt;br&gt;&lt;/i&gt;&lt;/span&gt;&lt;div&gt;Hint&lt;/div&gt;" style="swimlane;fontStyle=1;align=center;verticalAlign=top;childLayout=stackLayout;horizontal=1;startSize=40;horizontalStack=0;resizeParent=1;resizeParentMax=0;resizeLast=0;collapsible=1;marginBottom=0;whiteSpace=wrap;html=1;rounded=1;fillColor=#fff2cc;strokeColor=#d6b656;fontFamily=Georgia;fontColor=#000000;strokeWidth=2;" vertex="1" parent="1">
          <mxGeometry x="827" y="1005" width="170" height="204" as="geometry" />
        </mxCell>
        <mxCell id="RMb5vPwJAWPibP_djfCR-329" value="- hint_ID" style="text;strokeColor=none;fillColor=none;align=left;verticalAlign=top;spacingLeft=4;spacingRight=4;overflow=hidden;rotatable=0;points=[[0,0.5],[1,0.5]];portConstraint=eastwest;whiteSpace=wrap;html=1;fontFamily=Georgia;fontColor=#000000;strokeWidth=2;" vertex="1" parent="RMb5vPwJAWPibP_djfCR-328">
          <mxGeometry y="40" width="170" height="26" as="geometry" />
        </mxCell>
        <mxCell id="RMb5vPwJAWPibP_djfCR-330" value="- problemID" style="text;strokeColor=none;fillColor=none;align=left;verticalAlign=top;spacingLeft=4;spacingRight=4;overflow=hidden;rotatable=0;points=[[0,0.5],[1,0.5]];portConstraint=eastwest;whiteSpace=wrap;html=1;fontFamily=Georgia;fontColor=#000000;strokeWidth=2;" vertex="1" parent="RMb5vPwJAWPibP_djfCR-328">
          <mxGeometry y="66" width="170" height="26" as="geometry" />
        </mxCell>
        <mxCell id="RMb5vPwJAWPibP_djfCR-331" value="- text" style="text;strokeColor=none;fillColor=none;align=left;verticalAlign=top;spacingLeft=4;spacingRight=4;overflow=hidden;rotatable=0;points=[[0,0.5],[1,0.5]];portConstraint=eastwest;whiteSpace=wrap;html=1;fontFamily=Georgia;fontColor=#000000;strokeWidth=2;" vertex="1" parent="RMb5vPwJAWPibP_djfCR-328">
          <mxGeometry y="92" width="170" height="26" as="geometry" />
        </mxCell>
        <mxCell id="RMb5vPwJAWPibP_djfCR-332" value="- penalty" style="text;strokeColor=none;fillColor=none;align=left;verticalAlign=top;spacingLeft=4;spacingRight=4;overflow=hidden;rotatable=0;points=[[0,0.5],[1,0.5]];portConstraint=eastwest;whiteSpace=wrap;html=1;fontFamily=Georgia;fontColor=#000000;strokeWidth=2;" vertex="1" parent="RMb5vPwJAWPibP_djfCR-328">
          <mxGeometry y="118" width="170" height="26" as="geometry" />
        </mxCell>
        <mxCell id="RMb5vPwJAWPibP_djfCR-333" value="" style="line;strokeWidth=2;fillColor=none;align=left;verticalAlign=middle;spacingTop=-1;spacingLeft=3;spacingRight=3;rotatable=0;labelPosition=right;points=[];portConstraint=eastwest;strokeColor=inherit;fontFamily=Georgia;fontColor=#000000;" vertex="1" parent="RMb5vPwJAWPibP_djfCR-328">
          <mxGeometry y="144" width="170" height="8" as="geometry" />
        </mxCell>
        <mxCell id="RMb5vPwJAWPibP_djfCR-334" value="+ getHints()" style="text;strokeColor=none;fillColor=none;align=left;verticalAlign=top;spacingLeft=4;spacingRight=4;overflow=hidden;rotatable=0;points=[[0,0.5],[1,0.5]];portConstraint=eastwest;whiteSpace=wrap;html=1;fontFamily=Georgia;fontColor=#000000;strokeWidth=2;" vertex="1" parent="RMb5vPwJAWPibP_djfCR-328">
          <mxGeometry y="152" width="170" height="26" as="geometry" />
        </mxCell>
        <mxCell id="RMb5vPwJAWPibP_djfCR-335" value="+ getPenalty()" style="text;strokeColor=none;fillColor=none;align=left;verticalAlign=top;spacingLeft=4;spacingRight=4;overflow=hidden;rotatable=0;points=[[0,0.5],[1,0.5]];portConstraint=eastwest;whiteSpace=wrap;html=1;fontFamily=Georgia;fontColor=#000000;strokeWidth=2;" vertex="1" parent="RMb5vPwJAWPibP_djfCR-328">
          <mxGeometry y="178" width="170" height="26" as="geometry" />
        </mxCell>
        <mxCell id="RMb5vPwJAWPibP_djfCR-336" value="&amp;lt;&amp;lt;entity&amp;gt;&amp;gt;&lt;br&gt;&lt;div&gt;Canvas&lt;/div&gt;" style="swimlane;fontStyle=1;align=center;verticalAlign=top;childLayout=stackLayout;horizontal=1;startSize=40;horizontalStack=0;resizeParent=1;resizeParentMax=0;resizeLast=0;collapsible=1;marginBottom=0;whiteSpace=wrap;html=1;rounded=1;swimlaneLine=1;glass=0;fontFamily=Georgia;strokeWidth=2;fillColor=#ffe6cc;strokeColor=#d79b00;" vertex="1" parent="1">
          <mxGeometry x="895" y="376" width="203" height="204" as="geometry" />
        </mxCell>
        <mxCell id="RMb5vPwJAWPibP_djfCR-337" value="- canvasID" style="text;strokeColor=none;fillColor=none;align=left;verticalAlign=top;spacingLeft=4;spacingRight=4;overflow=hidden;rotatable=0;points=[[0,0.5],[1,0.5]];portConstraint=eastwest;whiteSpace=wrap;html=1;fontFamily=Georgia;fontColor=#000000;strokeWidth=2;" vertex="1" parent="RMb5vPwJAWPibP_djfCR-336">
          <mxGeometry y="40" width="203" height="26" as="geometry" />
        </mxCell>
        <mxCell id="RMb5vPwJAWPibP_djfCR-338" value="- name" style="text;strokeColor=none;fillColor=none;align=left;verticalAlign=top;spacingLeft=4;spacingRight=4;overflow=hidden;rotatable=0;points=[[0,0.5],[1,0.5]];portConstraint=eastwest;whiteSpace=wrap;html=1;fontFamily=Georgia;fontColor=#000000;strokeWidth=2;" vertex="1" parent="RMb5vPwJAWPibP_djfCR-336">
          <mxGeometry y="66" width="203" height="26" as="geometry" />
        </mxCell>
        <mxCell id="RMb5vPwJAWPibP_djfCR-339" value="- logo" style="text;strokeColor=none;fillColor=none;align=left;verticalAlign=top;spacingLeft=4;spacingRight=4;overflow=hidden;rotatable=0;points=[[0,0.5],[1,0.5]];portConstraint=eastwest;whiteSpace=wrap;html=1;fontFamily=Georgia;fontColor=#000000;strokeWidth=2;" vertex="1" parent="RMb5vPwJAWPibP_djfCR-336">
          <mxGeometry y="92" width="203" height="26" as="geometry" />
        </mxCell>
        <mxCell id="RMb5vPwJAWPibP_djfCR-340" value="- image" style="text;strokeColor=none;fillColor=none;align=left;verticalAlign=top;spacingLeft=4;spacingRight=4;overflow=hidden;rotatable=0;points=[[0,0.5],[1,0.5]];portConstraint=eastwest;whiteSpace=wrap;html=1;fontFamily=Georgia;fontColor=#000000;strokeWidth=2;" vertex="1" parent="RMb5vPwJAWPibP_djfCR-336">
          <mxGeometry y="118" width="203" height="26" as="geometry" />
        </mxCell>
        <mxCell id="RMb5vPwJAWPibP_djfCR-341" value="" style="line;strokeWidth=2;fillColor=none;align=left;verticalAlign=middle;spacingTop=-1;spacingLeft=3;spacingRight=3;rotatable=0;labelPosition=right;points=[];portConstraint=eastwest;strokeColor=inherit;fontFamily=Georgia;fontColor=#000000;" vertex="1" parent="RMb5vPwJAWPibP_djfCR-336">
          <mxGeometry y="144" width="203" height="8" as="geometry" />
        </mxCell>
        <mxCell id="RMb5vPwJAWPibP_djfCR-342" value="+ getCanvasAttributes()" style="text;strokeColor=none;fillColor=none;align=left;verticalAlign=top;spacingLeft=4;spacingRight=4;overflow=hidden;rotatable=0;points=[[0,0.5],[1,0.5]];portConstraint=eastwest;whiteSpace=wrap;html=1;fontFamily=Georgia;fontColor=#000000;strokeWidth=2;" vertex="1" parent="RMb5vPwJAWPibP_djfCR-336">
          <mxGeometry y="152" width="203" height="26" as="geometry" />
        </mxCell>
        <mxCell id="RMb5vPwJAWPibP_djfCR-343" value="+ updateInfo()" style="text;strokeColor=none;fillColor=none;align=left;verticalAlign=top;spacingLeft=4;spacingRight=4;overflow=hidden;rotatable=0;points=[[0,0.5],[1,0.5]];portConstraint=eastwest;whiteSpace=wrap;html=1;fontFamily=Georgia;fontColor=#000000;strokeWidth=2;" vertex="1" parent="RMb5vPwJAWPibP_djfCR-336">
          <mxGeometry y="178" width="203" height="26" as="geometry" />
        </mxCell>
      </root>
    </mxGraphModel>
  </diagram>
</mxfile>
